ISO-10303-21;
HEADER;
/* Generated by software containing ST-Developer
 * from STEP Tools, Inc. (www.steptools.com) 
 */

FILE_DESCRIPTION(
/* description */ (''),
/* implementation_level */ '2;1');

FILE_NAME(
/* name */ 'minimal Case final.step',
/* time_stamp */ '2026-07-10T04:02:01+02:00',
/* author */ (''),
/* organization */ (''),
/* preprocessor_version */ 'ST-DEVELOPER v20.1',
/* originating_system */ 'Autodesk Translation Framework v15.8.0.0',
/* authorisation */ '');

FILE_SCHEMA (('AUTOMOTIVE_DESIGN { 1 0 10303 214 3 1 1 }'));
ENDSEC;

DATA;
#10=MECHANICAL_DESIGN_GEOMETRIC_PRESENTATION_REPRESENTATION('',(#13),#1314);
#11=SHAPE_REPRESENTATION_RELATIONSHIP('SRR','None',#1320,#12);
#12=ADVANCED_BREP_SHAPE_REPRESENTATION('',(#14),#1313);
#13=STYLED_ITEM('',(#1329),#14);
#14=MANIFOLD_SOLID_BREP('Body2',#798);
#15=FACE_BOUND('',#122,.T.);
#16=FACE_BOUND('',#124,.T.);
#17=FACE_BOUND('',#126,.T.);
#18=FACE_BOUND('',#128,.T.);
#19=FACE_BOUND('',#159,.T.);
#20=FACE_BOUND('',#161,.T.);
#21=FACE_BOUND('',#162,.T.);
#22=FACE_BOUND('',#163,.T.);
#23=FACE_BOUND('',#164,.T.);
#24=FACE_BOUND('',#165,.T.);
#25=PLANE('',#803);
#26=PLANE('',#807);
#27=PLANE('',#811);
#28=PLANE('',#815);
#29=PLANE('',#819);
#30=PLANE('',#823);
#31=PLANE('',#824);
#32=PLANE('',#826);
#33=PLANE('',#828);
#34=PLANE('',#830);
#35=PLANE('',#832);
#36=PLANE('',#833);
#37=PLANE('',#834);
#38=PLANE('',#835);
#39=PLANE('',#836);
#40=PLANE('',#837);
#41=PLANE('',#838);
#42=PLANE('',#839);
#43=PLANE('',#840);
#44=PLANE('',#841);
#45=PLANE('',#842);
#46=PLANE('',#843);
#47=PLANE('',#844);
#48=PLANE('',#845);
#49=PLANE('',#846);
#50=PLANE('',#847);
#51=PLANE('',#848);
#52=PLANE('',#849);
#53=PLANE('',#850);
#54=PLANE('',#851);
#55=PLANE('',#852);
#56=PLANE('',#853);
#57=PLANE('',#854);
#58=PLANE('',#855);
#59=PLANE('',#856);
#60=PLANE('',#865);
#61=PLANE('',#866);
#62=FACE_OUTER_BOUND('',#109,.T.);
#63=FACE_OUTER_BOUND('',#110,.T.);
#64=FACE_OUTER_BOUND('',#111,.T.);
#65=FACE_OUTER_BOUND('',#112,.T.);
#66=FACE_OUTER_BOUND('',#113,.T.);
#67=FACE_OUTER_BOUND('',#114,.T.);
#68=FACE_OUTER_BOUND('',#115,.T.);
#69=FACE_OUTER_BOUND('',#116,.T.);
#70=FACE_OUTER_BOUND('',#117,.T.);
#71=FACE_OUTER_BOUND('',#118,.T.);
#72=FACE_OUTER_BOUND('',#119,.T.);
#73=FACE_OUTER_BOUND('',#120,.T.);
#74=FACE_OUTER_BOUND('',#121,.T.);
#75=FACE_OUTER_BOUND('',#123,.T.);
#76=FACE_OUTER_BOUND('',#125,.T.);
#77=FACE_OUTER_BOUND('',#127,.T.);
#78=FACE_OUTER_BOUND('',#129,.T.);
#79=FACE_OUTER_BOUND('',#130,.T.);
#80=FACE_OUTER_BOUND('',#131,.T.);
#81=FACE_OUTER_BOUND('',#132,.T.);
#82=FACE_OUTER_BOUND('',#133,.T.);
#83=FACE_OUTER_BOUND('',#134,.T.);
#84=FACE_OUTER_BOUND('',#135,.T.);
#85=FACE_OUTER_BOUND('',#136,.T.);
#86=FACE_OUTER_BOUND('',#137,.T.);
#87=FACE_OUTER_BOUND('',#138,.T.);
#88=FACE_OUTER_BOUND('',#139,.T.);
#89=FACE_OUTER_BOUND('',#140,.T.);
#90=FACE_OUTER_BOUND('',#141,.T.);
#91=FACE_OUTER_BOUND('',#142,.T.);
#92=FACE_OUTER_BOUND('',#143,.T.);
#93=FACE_OUTER_BOUND('',#144,.T.);
#94=FACE_OUTER_BOUND('',#145,.T.);
#95=FACE_OUTER_BOUND('',#146,.T.);
#96=FACE_OUTER_BOUND('',#147,.T.);
#97=FACE_OUTER_BOUND('',#148,.T.);
#98=FACE_OUTER_BOUND('',#149,.T.);
#99=FACE_OUTER_BOUND('',#150,.T.);
#100=FACE_OUTER_BOUND('',#151,.T.);
#101=FACE_OUTER_BOUND('',#152,.T.);
#102=FACE_OUTER_BOUND('',#153,.T.);
#103=FACE_OUTER_BOUND('',#154,.T.);
#104=FACE_OUTER_BOUND('',#155,.T.);
#105=FACE_OUTER_BOUND('',#156,.T.);
#106=FACE_OUTER_BOUND('',#157,.T.);
#107=FACE_OUTER_BOUND('',#158,.T.);
#108=FACE_OUTER_BOUND('',#160,.T.);
#109=EDGE_LOOP('',(#531,#532,#533,#534));
#110=EDGE_LOOP('',(#535));
#111=EDGE_LOOP('',(#536,#537,#538,#539));
#112=EDGE_LOOP('',(#540));
#113=EDGE_LOOP('',(#541,#542,#543,#544));
#114=EDGE_LOOP('',(#545));
#115=EDGE_LOOP('',(#546,#547,#548,#549));
#116=EDGE_LOOP('',(#550));
#117=EDGE_LOOP('',(#551,#552,#553,#554));
#118=EDGE_LOOP('',(#555));
#119=EDGE_LOOP('',(#556,#557,#558,#559));
#120=EDGE_LOOP('',(#560,#561,#562,#563,#564,#565,#566,#567,#568,#569,#570,
#571,#572,#573,#574,#575,#576,#577,#578,#579,#580,#581,#582,#583,#584));
#121=EDGE_LOOP('',(#585));
#122=EDGE_LOOP('',(#586));
#123=EDGE_LOOP('',(#587));
#124=EDGE_LOOP('',(#588));
#125=EDGE_LOOP('',(#589));
#126=EDGE_LOOP('',(#590));
#127=EDGE_LOOP('',(#591));
#128=EDGE_LOOP('',(#592));
#129=EDGE_LOOP('',(#593,#594,#595,#596));
#130=EDGE_LOOP('',(#597,#598,#599,#600));
#131=EDGE_LOOP('',(#601,#602,#603,#604));
#132=EDGE_LOOP('',(#605,#606,#607,#608));
#133=EDGE_LOOP('',(#609,#610,#611,#612));
#134=EDGE_LOOP('',(#613,#614,#615,#616));
#135=EDGE_LOOP('',(#617,#618,#619,#620));
#136=EDGE_LOOP('',(#621,#622,#623,#624));
#137=EDGE_LOOP('',(#625,#626,#627,#628));
#138=EDGE_LOOP('',(#629,#630,#631,#632));
#139=EDGE_LOOP('',(#633,#634,#635,#636));
#140=EDGE_LOOP('',(#637,#638,#639,#640));
#141=EDGE_LOOP('',(#641,#642,#643,#644));
#142=EDGE_LOOP('',(#645,#646,#647,#648));
#143=EDGE_LOOP('',(#649,#650,#651,#652));
#144=EDGE_LOOP('',(#653,#654,#655,#656));
#145=EDGE_LOOP('',(#657,#658,#659,#660));
#146=EDGE_LOOP('',(#661,#662,#663,#664));
#147=EDGE_LOOP('',(#665,#666,#667,#668));
#148=EDGE_LOOP('',(#669,#670,#671,#672));
#149=EDGE_LOOP('',(#673,#674,#675,#676));
#150=EDGE_LOOP('',(#677,#678,#679,#680));
#151=EDGE_LOOP('',(#681,#682,#683,#684));
#152=EDGE_LOOP('',(#685,#686,#687,#688));
#153=EDGE_LOOP('',(#689,#690,#691,#692));
#154=EDGE_LOOP('',(#693,#694,#695,#696));
#155=EDGE_LOOP('',(#697,#698,#699,#700));
#156=EDGE_LOOP('',(#701,#702,#703,#704));
#157=EDGE_LOOP('',(#705,#706,#707,#708));
#158=EDGE_LOOP('',(#709));
#159=EDGE_LOOP('',(#710));
#160=EDGE_LOOP('',(#711,#712,#713,#714,#715,#716,#717,#718,#719,#720,#721,
#722,#723,#724,#725,#726,#727,#728,#729,#730,#731,#732,#733,#734,#735));
#161=EDGE_LOOP('',(#736));
#162=EDGE_LOOP('',(#737));
#163=EDGE_LOOP('',(#738));
#164=EDGE_LOOP('',(#739));
#165=EDGE_LOOP('',(#740));
#166=LINE('',#1093,#251);
#167=LINE('',#1100,#252);
#168=LINE('',#1107,#253);
#169=LINE('',#1114,#254);
#170=LINE('',#1121,#255);
#171=LINE('',#1128,#256);
#172=LINE('',#1133,#257);
#173=LINE('',#1135,#258);
#174=LINE('',#1137,#259);
#175=LINE('',#1139,#260);
#176=LINE('',#1141,#261);
#177=LINE('',#1143,#262);
#178=LINE('',#1145,#263);
#179=LINE('',#1147,#264);
#180=LINE('',#1149,#265);
#181=LINE('',#1151,#266);
#182=LINE('',#1153,#267);
#183=LINE('',#1155,#268);
#184=LINE('',#1157,#269);
#185=LINE('',#1159,#270);
#186=LINE('',#1161,#271);
#187=LINE('',#1163,#272);
#188=LINE('',#1165,#273);
#189=LINE('',#1167,#274);
#190=LINE('',#1169,#275);
#191=LINE('',#1171,#276);
#192=LINE('',#1173,#277);
#193=LINE('',#1175,#278);
#194=LINE('',#1177,#279);
#195=LINE('',#1179,#280);
#196=LINE('',#1180,#281);
#197=LINE('',#1196,#282);
#198=LINE('',#1197,#283);
#199=LINE('',#1198,#284);
#200=LINE('',#1201,#285);
#201=LINE('',#1202,#286);
#202=LINE('',#1205,#287);
#203=LINE('',#1206,#288);
#204=LINE('',#1209,#289);
#205=LINE('',#1210,#290);
#206=LINE('',#1213,#291);
#207=LINE('',#1214,#292);
#208=LINE('',#1217,#293);
#209=LINE('',#1218,#294);
#210=LINE('',#1221,#295);
#211=LINE('',#1222,#296);
#212=LINE('',#1225,#297);
#213=LINE('',#1226,#298);
#214=LINE('',#1229,#299);
#215=LINE('',#1230,#300);
#216=LINE('',#1233,#301);
#217=LINE('',#1234,#302);
#218=LINE('',#1237,#303);
#219=LINE('',#1238,#304);
#220=LINE('',#1241,#305);
#221=LINE('',#1242,#306);
#222=LINE('',#1245,#307);
#223=LINE('',#1246,#308);
#224=LINE('',#1249,#309);
#225=LINE('',#1250,#310);
#226=LINE('',#1253,#311);
#227=LINE('',#1254,#312);
#228=LINE('',#1257,#313);
#229=LINE('',#1258,#314);
#230=LINE('',#1261,#315);
#231=LINE('',#1262,#316);
#232=LINE('',#1265,#317);
#233=LINE('',#1266,#318);
#234=LINE('',#1269,#319);
#235=LINE('',#1270,#320);
#236=LINE('',#1273,#321);
#237=LINE('',#1274,#322);
#238=LINE('',#1277,#323);
#239=LINE('',#1278,#324);
#240=LINE('',#1281,#325);
#241=LINE('',#1282,#326);
#242=LINE('',#1285,#327);
#243=LINE('',#1286,#328);
#244=LINE('',#1289,#329);
#245=LINE('',#1290,#330);
#246=LINE('',#1292,#331);
#247=LINE('',#1295,#332);
#248=LINE('',#1299,#333);
#249=LINE('',#1303,#334);
#250=LINE('',#1307,#335);
#251=VECTOR('',#873,0.9375);
#252=VECTOR('',#882,0.9375);
#253=VECTOR('',#891,0.9375);
#254=VECTOR('',#900,0.9375);
#255=VECTOR('',#909,0.9375);
#256=VECTOR('',#918,2.5);
#257=VECTOR('',#923,10.);
#258=VECTOR('',#924,10.);
#259=VECTOR('',#925,10.);
#260=VECTOR('',#926,10.);
#261=VECTOR('',#927,10.);
#262=VECTOR('',#928,10.);
#263=VECTOR('',#929,10.);
#264=VECTOR('',#930,10.);
#265=VECTOR('',#931,10.);
#266=VECTOR('',#932,10.);
#267=VECTOR('',#933,10.);
#268=VECTOR('',#934,10.);
#269=VECTOR('',#935,10.);
#270=VECTOR('',#936,10.);
#271=VECTOR('',#937,10.);
#272=VECTOR('',#938,10.);
#273=VECTOR('',#939,10.);
#274=VECTOR('',#940,10.);
#275=VECTOR('',#941,10.);
#276=VECTOR('',#942,10.);
#277=VECTOR('',#943,10.);
#278=VECTOR('',#944,10.);
#279=VECTOR('',#945,10.);
#280=VECTOR('',#946,10.);
#281=VECTOR('',#947,10.);
#282=VECTOR('',#966,10.);
#283=VECTOR('',#967,10.);
#284=VECTOR('',#968,10.);
#285=VECTOR('',#971,10.);
#286=VECTOR('',#972,10.);
#287=VECTOR('',#975,10.);
#288=VECTOR('',#976,10.);
#289=VECTOR('',#979,10.);
#290=VECTOR('',#980,10.);
#291=VECTOR('',#983,10.);
#292=VECTOR('',#984,10.);
#293=VECTOR('',#987,10.);
#294=VECTOR('',#988,10.);
#295=VECTOR('',#991,10.);
#296=VECTOR('',#992,10.);
#297=VECTOR('',#995,10.);
#298=VECTOR('',#996,10.);
#299=VECTOR('',#999,10.);
#300=VECTOR('',#1000,10.);
#301=VECTOR('',#1003,10.);
#302=VECTOR('',#1004,10.);
#303=VECTOR('',#1007,10.);
#304=VECTOR('',#1008,10.);
#305=VECTOR('',#1011,10.);
#306=VECTOR('',#1012,10.);
#307=VECTOR('',#1015,10.);
#308=VECTOR('',#1016,10.);
#309=VECTOR('',#1019,10.);
#310=VECTOR('',#1020,10.);
#311=VECTOR('',#1023,10.);
#312=VECTOR('',#1024,10.);
#313=VECTOR('',#1027,10.);
#314=VECTOR('',#1028,10.);
#315=VECTOR('',#1031,10.);
#316=VECTOR('',#1032,10.);
#317=VECTOR('',#1035,10.);
#318=VECTOR('',#1036,10.);
#319=VECTOR('',#1039,10.);
#320=VECTOR('',#1040,10.);
#321=VECTOR('',#1043,10.);
#322=VECTOR('',#1044,10.);
#323=VECTOR('',#1047,10.);
#324=VECTOR('',#1048,10.);
#325=VECTOR('',#1051,10.);
#326=VECTOR('',#1052,10.);
#327=VECTOR('',#1055,10.);
#328=VECTOR('',#1056,10.);
#329=VECTOR('',#1059,10.);
#330=VECTOR('',#1060,10.);
#331=VECTOR('',#1063,10.);
#332=VECTOR('',#1066,2.5);
#333=VECTOR('',#1071,2.5);
#334=VECTOR('',#1076,2.5);
#335=VECTOR('',#1081,2.5);
#336=CIRCLE('',#801,0.9377);
#337=CIRCLE('',#802,0.9377);
#338=CIRCLE('',#805,0.9377);
#339=CIRCLE('',#806,0.9377);
#340=CIRCLE('',#809,0.9377);
#341=CIRCLE('',#810,0.9377);
#342=CIRCLE('',#813,0.9377);
#343=CIRCLE('',#814,0.9377);
#344=CIRCLE('',#817,0.9377);
#345=CIRCLE('',#818,0.9377);
#346=CIRCLE('',#821,2.5);
#347=CIRCLE('',#822,2.5);
#348=CIRCLE('',#825,2.5);
#349=CIRCLE('',#827,2.5);
#350=CIRCLE('',#829,2.5);
#351=CIRCLE('',#831,2.5);
#352=CIRCLE('',#858,2.5);
#353=CIRCLE('',#860,2.5);
#354=CIRCLE('',#862,2.5);
#355=CIRCLE('',#864,2.5);
#356=VERTEX_POINT('',#1090);
#357=VERTEX_POINT('',#1092);
#358=VERTEX_POINT('',#1097);
#359=VERTEX_POINT('',#1099);
#360=VERTEX_POINT('',#1104);
#361=VERTEX_POINT('',#1106);
#362=VERTEX_POINT('',#1111);
#363=VERTEX_POINT('',#1113);
#364=VERTEX_POINT('',#1118);
#365=VERTEX_POINT('',#1120);
#366=VERTEX_POINT('',#1125);
#367=VERTEX_POINT('',#1127);
#368=VERTEX_POINT('',#1131);
#369=VERTEX_POINT('',#1132);
#370=VERTEX_POINT('',#1134);
#371=VERTEX_POINT('',#1136);
#372=VERTEX_POINT('',#1138);
#373=VERTEX_POINT('',#1140);
#374=VERTEX_POINT('',#1142);
#375=VERTEX_POINT('',#1144);
#376=VERTEX_POINT('',#1146);
#377=VERTEX_POINT('',#1148);
#378=VERTEX_POINT('',#1150);
#379=VERTEX_POINT('',#1152);
#380=VERTEX_POINT('',#1154);
#381=VERTEX_POINT('',#1156);
#382=VERTEX_POINT('',#1158);
#383=VERTEX_POINT('',#1160);
#384=VERTEX_POINT('',#1162);
#385=VERTEX_POINT('',#1164);
#386=VERTEX_POINT('',#1166);
#387=VERTEX_POINT('',#1168);
#388=VERTEX_POINT('',#1170);
#389=VERTEX_POINT('',#1172);
#390=VERTEX_POINT('',#1174);
#391=VERTEX_POINT('',#1176);
#392=VERTEX_POINT('',#1178);
#393=VERTEX_POINT('',#1182);
#394=VERTEX_POINT('',#1185);
#395=VERTEX_POINT('',#1188);
#396=VERTEX_POINT('',#1191);
#397=VERTEX_POINT('',#1194);
#398=VERTEX_POINT('',#1195);
#399=VERTEX_POINT('',#1200);
#400=VERTEX_POINT('',#1204);
#401=VERTEX_POINT('',#1208);
#402=VERTEX_POINT('',#1212);
#403=VERTEX_POINT('',#1216);
#404=VERTEX_POINT('',#1220);
#405=VERTEX_POINT('',#1224);
#406=VERTEX_POINT('',#1228);
#407=VERTEX_POINT('',#1232);
#408=VERTEX_POINT('',#1236);
#409=VERTEX_POINT('',#1240);
#410=VERTEX_POINT('',#1244);
#411=VERTEX_POINT('',#1248);
#412=VERTEX_POINT('',#1252);
#413=VERTEX_POINT('',#1256);
#414=VERTEX_POINT('',#1260);
#415=VERTEX_POINT('',#1264);
#416=VERTEX_POINT('',#1268);
#417=VERTEX_POINT('',#1272);
#418=VERTEX_POINT('',#1276);
#419=VERTEX_POINT('',#1280);
#420=VERTEX_POINT('',#1284);
#421=VERTEX_POINT('',#1288);
#422=VERTEX_POINT('',#1294);
#423=VERTEX_POINT('',#1298);
#424=VERTEX_POINT('',#1302);
#425=VERTEX_POINT('',#1306);
#426=EDGE_CURVE('',#356,#356,#336,.F.);
#427=EDGE_CURVE('',#356,#357,#166,.T.);
#428=EDGE_CURVE('',#357,#357,#337,.F.);
#429=EDGE_CURVE('',#358,#358,#338,.F.);
#430=EDGE_CURVE('',#358,#359,#167,.T.);
#431=EDGE_CURVE('',#359,#359,#339,.F.);
#432=EDGE_CURVE('',#360,#360,#340,.F.);
#433=EDGE_CURVE('',#360,#361,#168,.T.);
#434=EDGE_CURVE('',#361,#361,#341,.F.);
#435=EDGE_CURVE('',#362,#362,#342,.F.);
#436=EDGE_CURVE('',#362,#363,#169,.T.);
#437=EDGE_CURVE('',#363,#363,#343,.F.);
#438=EDGE_CURVE('',#364,#364,#344,.F.);
#439=EDGE_CURVE('',#364,#365,#170,.T.);
#440=EDGE_CURVE('',#365,#365,#345,.F.);
#441=EDGE_CURVE('',#366,#366,#346,.T.);
#442=EDGE_CURVE('',#366,#367,#171,.T.);
#443=EDGE_CURVE('',#367,#367,#347,.T.);
#444=EDGE_CURVE('',#368,#369,#172,.T.);
#445=EDGE_CURVE('',#369,#370,#173,.T.);
#446=EDGE_CURVE('',#370,#371,#174,.T.);
#447=EDGE_CURVE('',#371,#372,#175,.T.);
#448=EDGE_CURVE('',#372,#373,#176,.T.);
#449=EDGE_CURVE('',#373,#374,#177,.T.);
#450=EDGE_CURVE('',#374,#375,#178,.T.);
#451=EDGE_CURVE('',#375,#376,#179,.T.);
#452=EDGE_CURVE('',#376,#377,#180,.T.);
#453=EDGE_CURVE('',#377,#378,#181,.T.);
#454=EDGE_CURVE('',#378,#379,#182,.T.);
#455=EDGE_CURVE('',#379,#380,#183,.T.);
#456=EDGE_CURVE('',#380,#381,#184,.T.);
#457=EDGE_CURVE('',#381,#382,#185,.T.);
#458=EDGE_CURVE('',#382,#383,#186,.T.);
#459=EDGE_CURVE('',#383,#384,#187,.T.);
#460=EDGE_CURVE('',#384,#385,#188,.T.);
#461=EDGE_CURVE('',#385,#386,#189,.T.);
#462=EDGE_CURVE('',#386,#387,#190,.T.);
#463=EDGE_CURVE('',#387,#388,#191,.T.);
#464=EDGE_CURVE('',#388,#389,#192,.T.);
#465=EDGE_CURVE('',#389,#390,#193,.T.);
#466=EDGE_CURVE('',#390,#391,#194,.T.);
#467=EDGE_CURVE('',#391,#392,#195,.T.);
#468=EDGE_CURVE('',#392,#368,#196,.T.);
#469=EDGE_CURVE('',#393,#393,#348,.T.);
#470=EDGE_CURVE('',#394,#394,#349,.T.);
#471=EDGE_CURVE('',#395,#395,#350,.T.);
#472=EDGE_CURVE('',#396,#396,#351,.T.);
#473=EDGE_CURVE('',#397,#398,#197,.T.);
#474=EDGE_CURVE('',#398,#370,#198,.T.);
#475=EDGE_CURVE('',#397,#369,#199,.T.);
#476=EDGE_CURVE('',#398,#399,#200,.T.);
#477=EDGE_CURVE('',#399,#371,#201,.T.);
#478=EDGE_CURVE('',#399,#400,#202,.T.);
#479=EDGE_CURVE('',#400,#372,#203,.T.);
#480=EDGE_CURVE('',#400,#401,#204,.T.);
#481=EDGE_CURVE('',#401,#373,#205,.T.);
#482=EDGE_CURVE('',#401,#402,#206,.T.);
#483=EDGE_CURVE('',#402,#374,#207,.T.);
#484=EDGE_CURVE('',#402,#403,#208,.T.);
#485=EDGE_CURVE('',#403,#375,#209,.T.);
#486=EDGE_CURVE('',#403,#404,#210,.T.);
#487=EDGE_CURVE('',#404,#376,#211,.T.);
#488=EDGE_CURVE('',#404,#405,#212,.T.);
#489=EDGE_CURVE('',#405,#377,#213,.T.);
#490=EDGE_CURVE('',#405,#406,#214,.T.);
#491=EDGE_CURVE('',#406,#378,#215,.T.);
#492=EDGE_CURVE('',#406,#407,#216,.T.);
#493=EDGE_CURVE('',#407,#379,#217,.T.);
#494=EDGE_CURVE('',#407,#408,#218,.T.);
#495=EDGE_CURVE('',#408,#380,#219,.T.);
#496=EDGE_CURVE('',#408,#409,#220,.T.);
#497=EDGE_CURVE('',#409,#381,#221,.T.);
#498=EDGE_CURVE('',#409,#410,#222,.T.);
#499=EDGE_CURVE('',#410,#382,#223,.T.);
#500=EDGE_CURVE('',#410,#411,#224,.T.);
#501=EDGE_CURVE('',#411,#383,#225,.T.);
#502=EDGE_CURVE('',#411,#412,#226,.T.);
#503=EDGE_CURVE('',#412,#384,#227,.T.);
#504=EDGE_CURVE('',#412,#413,#228,.T.);
#505=EDGE_CURVE('',#413,#385,#229,.T.);
#506=EDGE_CURVE('',#413,#414,#230,.T.);
#507=EDGE_CURVE('',#414,#386,#231,.T.);
#508=EDGE_CURVE('',#414,#415,#232,.T.);
#509=EDGE_CURVE('',#415,#387,#233,.T.);
#510=EDGE_CURVE('',#415,#416,#234,.T.);
#511=EDGE_CURVE('',#416,#388,#235,.T.);
#512=EDGE_CURVE('',#416,#417,#236,.T.);
#513=EDGE_CURVE('',#417,#389,#237,.T.);
#514=EDGE_CURVE('',#417,#418,#238,.T.);
#515=EDGE_CURVE('',#418,#390,#239,.T.);
#516=EDGE_CURVE('',#418,#419,#240,.T.);
#517=EDGE_CURVE('',#419,#391,#241,.T.);
#518=EDGE_CURVE('',#419,#420,#242,.T.);
#519=EDGE_CURVE('',#420,#392,#243,.T.);
#520=EDGE_CURVE('',#420,#421,#244,.T.);
#521=EDGE_CURVE('',#421,#368,#245,.T.);
#522=EDGE_CURVE('',#421,#397,#246,.T.);
#523=EDGE_CURVE('',#393,#422,#247,.T.);
#524=EDGE_CURVE('',#422,#422,#352,.T.);
#525=EDGE_CURVE('',#394,#423,#248,.T.);
#526=EDGE_CURVE('',#423,#423,#353,.T.);
#527=EDGE_CURVE('',#395,#424,#249,.T.);
#528=EDGE_CURVE('',#424,#424,#354,.T.);
#529=EDGE_CURVE('',#396,#425,#250,.T.);
#530=EDGE_CURVE('',#425,#425,#355,.T.);
#531=ORIENTED_EDGE('',*,*,#426,.T.);
#532=ORIENTED_EDGE('',*,*,#427,.T.);
#533=ORIENTED_EDGE('',*,*,#428,.F.);
#534=ORIENTED_EDGE('',*,*,#427,.F.);
#535=ORIENTED_EDGE('',*,*,#426,.F.);
#536=ORIENTED_EDGE('',*,*,#429,.T.);
#537=ORIENTED_EDGE('',*,*,#430,.T.);
#538=ORIENTED_EDGE('',*,*,#431,.F.);
#539=ORIENTED_EDGE('',*,*,#430,.F.);
#540=ORIENTED_EDGE('',*,*,#429,.F.);
#541=ORIENTED_EDGE('',*,*,#432,.T.);
#542=ORIENTED_EDGE('',*,*,#433,.T.);
#543=ORIENTED_EDGE('',*,*,#434,.F.);
#544=ORIENTED_EDGE('',*,*,#433,.F.);
#545=ORIENTED_EDGE('',*,*,#432,.F.);
#546=ORIENTED_EDGE('',*,*,#435,.T.);
#547=ORIENTED_EDGE('',*,*,#436,.T.);
#548=ORIENTED_EDGE('',*,*,#437,.F.);
#549=ORIENTED_EDGE('',*,*,#436,.F.);
#550=ORIENTED_EDGE('',*,*,#435,.F.);
#551=ORIENTED_EDGE('',*,*,#438,.T.);
#552=ORIENTED_EDGE('',*,*,#439,.T.);
#553=ORIENTED_EDGE('',*,*,#440,.F.);
#554=ORIENTED_EDGE('',*,*,#439,.F.);
#555=ORIENTED_EDGE('',*,*,#438,.F.);
#556=ORIENTED_EDGE('',*,*,#441,.F.);
#557=ORIENTED_EDGE('',*,*,#442,.T.);
#558=ORIENTED_EDGE('',*,*,#443,.F.);
#559=ORIENTED_EDGE('',*,*,#442,.F.);
#560=ORIENTED_EDGE('',*,*,#444,.T.);
#561=ORIENTED_EDGE('',*,*,#445,.T.);
#562=ORIENTED_EDGE('',*,*,#446,.T.);
#563=ORIENTED_EDGE('',*,*,#447,.T.);
#564=ORIENTED_EDGE('',*,*,#448,.T.);
#565=ORIENTED_EDGE('',*,*,#449,.T.);
#566=ORIENTED_EDGE('',*,*,#450,.T.);
#567=ORIENTED_EDGE('',*,*,#451,.T.);
#568=ORIENTED_EDGE('',*,*,#452,.T.);
#569=ORIENTED_EDGE('',*,*,#453,.T.);
#570=ORIENTED_EDGE('',*,*,#454,.T.);
#571=ORIENTED_EDGE('',*,*,#455,.T.);
#572=ORIENTED_EDGE('',*,*,#456,.T.);
#573=ORIENTED_EDGE('',*,*,#457,.T.);
#574=ORIENTED_EDGE('',*,*,#458,.T.);
#575=ORIENTED_EDGE('',*,*,#459,.T.);
#576=ORIENTED_EDGE('',*,*,#460,.T.);
#577=ORIENTED_EDGE('',*,*,#461,.T.);
#578=ORIENTED_EDGE('',*,*,#462,.T.);
#579=ORIENTED_EDGE('',*,*,#463,.T.);
#580=ORIENTED_EDGE('',*,*,#464,.T.);
#581=ORIENTED_EDGE('',*,*,#465,.T.);
#582=ORIENTED_EDGE('',*,*,#466,.T.);
#583=ORIENTED_EDGE('',*,*,#467,.T.);
#584=ORIENTED_EDGE('',*,*,#468,.T.);
#585=ORIENTED_EDGE('',*,*,#469,.T.);
#586=ORIENTED_EDGE('',*,*,#434,.T.);
#587=ORIENTED_EDGE('',*,*,#470,.T.);
#588=ORIENTED_EDGE('',*,*,#431,.T.);
#589=ORIENTED_EDGE('',*,*,#471,.T.);
#590=ORIENTED_EDGE('',*,*,#440,.T.);
#591=ORIENTED_EDGE('',*,*,#472,.T.);
#592=ORIENTED_EDGE('',*,*,#437,.T.);
#593=ORIENTED_EDGE('',*,*,#473,.T.);
#594=ORIENTED_EDGE('',*,*,#474,.T.);
#595=ORIENTED_EDGE('',*,*,#445,.F.);
#596=ORIENTED_EDGE('',*,*,#475,.F.);
#597=ORIENTED_EDGE('',*,*,#476,.T.);
#598=ORIENTED_EDGE('',*,*,#477,.T.);
#599=ORIENTED_EDGE('',*,*,#446,.F.);
#600=ORIENTED_EDGE('',*,*,#474,.F.);
#601=ORIENTED_EDGE('',*,*,#478,.T.);
#602=ORIENTED_EDGE('',*,*,#479,.T.);
#603=ORIENTED_EDGE('',*,*,#447,.F.);
#604=ORIENTED_EDGE('',*,*,#477,.F.);
#605=ORIENTED_EDGE('',*,*,#480,.T.);
#606=ORIENTED_EDGE('',*,*,#481,.T.);
#607=ORIENTED_EDGE('',*,*,#448,.F.);
#608=ORIENTED_EDGE('',*,*,#479,.F.);
#609=ORIENTED_EDGE('',*,*,#482,.T.);
#610=ORIENTED_EDGE('',*,*,#483,.T.);
#611=ORIENTED_EDGE('',*,*,#449,.F.);
#612=ORIENTED_EDGE('',*,*,#481,.F.);
#613=ORIENTED_EDGE('',*,*,#484,.T.);
#614=ORIENTED_EDGE('',*,*,#485,.T.);
#615=ORIENTED_EDGE('',*,*,#450,.F.);
#616=ORIENTED_EDGE('',*,*,#483,.F.);
#617=ORIENTED_EDGE('',*,*,#486,.T.);
#618=ORIENTED_EDGE('',*,*,#487,.T.);
#619=ORIENTED_EDGE('',*,*,#451,.F.);
#620=ORIENTED_EDGE('',*,*,#485,.F.);
#621=ORIENTED_EDGE('',*,*,#488,.T.);
#622=ORIENTED_EDGE('',*,*,#489,.T.);
#623=ORIENTED_EDGE('',*,*,#452,.F.);
#624=ORIENTED_EDGE('',*,*,#487,.F.);
#625=ORIENTED_EDGE('',*,*,#490,.T.);
#626=ORIENTED_EDGE('',*,*,#491,.T.);
#627=ORIENTED_EDGE('',*,*,#453,.F.);
#628=ORIENTED_EDGE('',*,*,#489,.F.);
#629=ORIENTED_EDGE('',*,*,#492,.T.);
#630=ORIENTED_EDGE('',*,*,#493,.T.);
#631=ORIENTED_EDGE('',*,*,#454,.F.);
#632=ORIENTED_EDGE('',*,*,#491,.F.);
#633=ORIENTED_EDGE('',*,*,#494,.T.);
#634=ORIENTED_EDGE('',*,*,#495,.T.);
#635=ORIENTED_EDGE('',*,*,#455,.F.);
#636=ORIENTED_EDGE('',*,*,#493,.F.);
#637=ORIENTED_EDGE('',*,*,#496,.T.);
#638=ORIENTED_EDGE('',*,*,#497,.T.);
#639=ORIENTED_EDGE('',*,*,#456,.F.);
#640=ORIENTED_EDGE('',*,*,#495,.F.);
#641=ORIENTED_EDGE('',*,*,#498,.T.);
#642=ORIENTED_EDGE('',*,*,#499,.T.);
#643=ORIENTED_EDGE('',*,*,#457,.F.);
#644=ORIENTED_EDGE('',*,*,#497,.F.);
#645=ORIENTED_EDGE('',*,*,#500,.T.);
#646=ORIENTED_EDGE('',*,*,#501,.T.);
#647=ORIENTED_EDGE('',*,*,#458,.F.);
#648=ORIENTED_EDGE('',*,*,#499,.F.);
#649=ORIENTED_EDGE('',*,*,#502,.T.);
#650=ORIENTED_EDGE('',*,*,#503,.T.);
#651=ORIENTED_EDGE('',*,*,#459,.F.);
#652=ORIENTED_EDGE('',*,*,#501,.F.);
#653=ORIENTED_EDGE('',*,*,#504,.T.);
#654=ORIENTED_EDGE('',*,*,#505,.T.);
#655=ORIENTED_EDGE('',*,*,#460,.F.);
#656=ORIENTED_EDGE('',*,*,#503,.F.);
#657=ORIENTED_EDGE('',*,*,#506,.T.);
#658=ORIENTED_EDGE('',*,*,#507,.T.);
#659=ORIENTED_EDGE('',*,*,#461,.F.);
#660=ORIENTED_EDGE('',*,*,#505,.F.);
#661=ORIENTED_EDGE('',*,*,#508,.T.);
#662=ORIENTED_EDGE('',*,*,#509,.T.);
#663=ORIENTED_EDGE('',*,*,#462,.F.);
#664=ORIENTED_EDGE('',*,*,#507,.F.);
#665=ORIENTED_EDGE('',*,*,#510,.T.);
#666=ORIENTED_EDGE('',*,*,#511,.T.);
#667=ORIENTED_EDGE('',*,*,#463,.F.);
#668=ORIENTED_EDGE('',*,*,#509,.F.);
#669=ORIENTED_EDGE('',*,*,#512,.T.);
#670=ORIENTED_EDGE('',*,*,#513,.T.);
#671=ORIENTED_EDGE('',*,*,#464,.F.);
#672=ORIENTED_EDGE('',*,*,#511,.F.);
#673=ORIENTED_EDGE('',*,*,#514,.T.);
#674=ORIENTED_EDGE('',*,*,#515,.T.);
#675=ORIENTED_EDGE('',*,*,#465,.F.);
#676=ORIENTED_EDGE('',*,*,#513,.F.);
#677=ORIENTED_EDGE('',*,*,#516,.T.);
#678=ORIENTED_EDGE('',*,*,#517,.T.);
#679=ORIENTED_EDGE('',*,*,#466,.F.);
#680=ORIENTED_EDGE('',*,*,#515,.F.);
#681=ORIENTED_EDGE('',*,*,#518,.T.);
#682=ORIENTED_EDGE('',*,*,#519,.T.);
#683=ORIENTED_EDGE('',*,*,#467,.F.);
#684=ORIENTED_EDGE('',*,*,#517,.F.);
#685=ORIENTED_EDGE('',*,*,#520,.T.);
#686=ORIENTED_EDGE('',*,*,#521,.T.);
#687=ORIENTED_EDGE('',*,*,#468,.F.);
#688=ORIENTED_EDGE('',*,*,#519,.F.);
#689=ORIENTED_EDGE('',*,*,#522,.T.);
#690=ORIENTED_EDGE('',*,*,#475,.T.);
#691=ORIENTED_EDGE('',*,*,#444,.F.);
#692=ORIENTED_EDGE('',*,*,#521,.F.);
#693=ORIENTED_EDGE('',*,*,#469,.F.);
#694=ORIENTED_EDGE('',*,*,#523,.T.);
#695=ORIENTED_EDGE('',*,*,#524,.F.);
#696=ORIENTED_EDGE('',*,*,#523,.F.);
#697=ORIENTED_EDGE('',*,*,#470,.F.);
#698=ORIENTED_EDGE('',*,*,#525,.T.);
#699=ORIENTED_EDGE('',*,*,#526,.F.);
#700=ORIENTED_EDGE('',*,*,#525,.F.);
#701=ORIENTED_EDGE('',*,*,#471,.F.);
#702=ORIENTED_EDGE('',*,*,#527,.T.);
#703=ORIENTED_EDGE('',*,*,#528,.F.);
#704=ORIENTED_EDGE('',*,*,#527,.F.);
#705=ORIENTED_EDGE('',*,*,#472,.F.);
#706=ORIENTED_EDGE('',*,*,#529,.T.);
#707=ORIENTED_EDGE('',*,*,#530,.F.);
#708=ORIENTED_EDGE('',*,*,#529,.F.);
#709=ORIENTED_EDGE('',*,*,#441,.T.);
#710=ORIENTED_EDGE('',*,*,#428,.T.);
#711=ORIENTED_EDGE('',*,*,#522,.F.);
#712=ORIENTED_EDGE('',*,*,#520,.F.);
#713=ORIENTED_EDGE('',*,*,#518,.F.);
#714=ORIENTED_EDGE('',*,*,#516,.F.);
#715=ORIENTED_EDGE('',*,*,#514,.F.);
#716=ORIENTED_EDGE('',*,*,#512,.F.);
#717=ORIENTED_EDGE('',*,*,#510,.F.);
#718=ORIENTED_EDGE('',*,*,#508,.F.);
#719=ORIENTED_EDGE('',*,*,#506,.F.);
#720=ORIENTED_EDGE('',*,*,#504,.F.);
#721=ORIENTED_EDGE('',*,*,#502,.F.);
#722=ORIENTED_EDGE('',*,*,#500,.F.);
#723=ORIENTED_EDGE('',*,*,#498,.F.);
#724=ORIENTED_EDGE('',*,*,#496,.F.);
#725=ORIENTED_EDGE('',*,*,#494,.F.);
#726=ORIENTED_EDGE('',*,*,#492,.F.);
#727=ORIENTED_EDGE('',*,*,#490,.F.);
#728=ORIENTED_EDGE('',*,*,#488,.F.);
#729=ORIENTED_EDGE('',*,*,#486,.F.);
#730=ORIENTED_EDGE('',*,*,#484,.F.);
#731=ORIENTED_EDGE('',*,*,#482,.F.);
#732=ORIENTED_EDGE('',*,*,#480,.F.);
#733=ORIENTED_EDGE('',*,*,#478,.F.);
#734=ORIENTED_EDGE('',*,*,#476,.F.);
#735=ORIENTED_EDGE('',*,*,#473,.F.);
#736=ORIENTED_EDGE('',*,*,#443,.T.);
#737=ORIENTED_EDGE('',*,*,#530,.T.);
#738=ORIENTED_EDGE('',*,*,#528,.T.);
#739=ORIENTED_EDGE('',*,*,#526,.T.);
#740=ORIENTED_EDGE('',*,*,#524,.T.);
#741=CYLINDRICAL_SURFACE('',#800,0.9377);
#742=CYLINDRICAL_SURFACE('',#804,0.9377);
#743=CYLINDRICAL_SURFACE('',#808,0.9377);
#744=CYLINDRICAL_SURFACE('',#812,0.9377);
#745=CYLINDRICAL_SURFACE('',#816,0.9377);
#746=CYLINDRICAL_SURFACE('',#820,2.5);
#747=CYLINDRICAL_SURFACE('',#857,2.5);
#748=CYLINDRICAL_SURFACE('',#859,2.5);
#749=CYLINDRICAL_SURFACE('',#861,2.5);
#750=CYLINDRICAL_SURFACE('',#863,2.5);
#751=ADVANCED_FACE('',(#62),#741,.F.);
#752=ADVANCED_FACE('',(#63),#25,.F.);
#753=ADVANCED_FACE('',(#64),#742,.F.);
#754=ADVANCED_FACE('',(#65),#26,.F.);
#755=ADVANCED_FACE('',(#66),#743,.F.);
#756=ADVANCED_FACE('',(#67),#27,.F.);
#757=ADVANCED_FACE('',(#68),#744,.F.);
#758=ADVANCED_FACE('',(#69),#28,.F.);
#759=ADVANCED_FACE('',(#70),#745,.F.);
#760=ADVANCED_FACE('',(#71),#29,.F.);
#761=ADVANCED_FACE('',(#72),#746,.T.);
#762=ADVANCED_FACE('',(#73),#30,.T.);
#763=ADVANCED_FACE('',(#74,#15),#31,.F.);
#764=ADVANCED_FACE('',(#75,#16),#32,.F.);
#765=ADVANCED_FACE('',(#76,#17),#33,.F.);
#766=ADVANCED_FACE('',(#77,#18),#34,.F.);
#767=ADVANCED_FACE('',(#78),#35,.T.);
#768=ADVANCED_FACE('',(#79),#36,.T.);
#769=ADVANCED_FACE('',(#80),#37,.T.);
#770=ADVANCED_FACE('',(#81),#38,.T.);
#771=ADVANCED_FACE('',(#82),#39,.T.);
#772=ADVANCED_FACE('',(#83),#40,.T.);
#773=ADVANCED_FACE('',(#84),#41,.T.);
#774=ADVANCED_FACE('',(#85),#42,.T.);
#775=ADVANCED_FACE('',(#86),#43,.T.);
#776=ADVANCED_FACE('',(#87),#44,.T.);
#777=ADVANCED_FACE('',(#88),#45,.T.);
#778=ADVANCED_FACE('',(#89),#46,.T.);
#779=ADVANCED_FACE('',(#90),#47,.T.);
#780=ADVANCED_FACE('',(#91),#48,.T.);
#781=ADVANCED_FACE('',(#92),#49,.T.);
#782=ADVANCED_FACE('',(#93),#50,.T.);
#783=ADVANCED_FACE('',(#94),#51,.T.);
#784=ADVANCED_FACE('',(#95),#52,.T.);
#785=ADVANCED_FACE('',(#96),#53,.T.);
#786=ADVANCED_FACE('',(#97),#54,.T.);
#787=ADVANCED_FACE('',(#98),#55,.T.);
#788=ADVANCED_FACE('',(#99),#56,.T.);
#789=ADVANCED_FACE('',(#100),#57,.T.);
#790=ADVANCED_FACE('',(#101),#58,.T.);
#791=ADVANCED_FACE('',(#102),#59,.T.);
#792=ADVANCED_FACE('',(#103),#747,.T.);
#793=ADVANCED_FACE('',(#104),#748,.T.);
#794=ADVANCED_FACE('',(#105),#749,.T.);
#795=ADVANCED_FACE('',(#106),#750,.T.);
#796=ADVANCED_FACE('',(#107,#19),#60,.F.);
#797=ADVANCED_FACE('',(#108,#20,#21,#22,#23,#24),#61,.F.);
#798=CLOSED_SHELL('',(#751,#752,#753,#754,#755,#756,#757,#758,#759,#760,
#761,#762,#763,#764,#765,#766,#767,#768,#769,#770,#771,#772,#773,#774,#775,
#776,#777,#778,#779,#780,#781,#782,#783,#784,#785,#786,#787,#788,#789,#790,
#791,#792,#793,#794,#795,#796,#797));
#799=AXIS2_PLACEMENT_3D('',#1088,#867,#868);
#800=AXIS2_PLACEMENT_3D('',#1089,#869,#870);
#801=AXIS2_PLACEMENT_3D('',#1091,#871,#872);
#802=AXIS2_PLACEMENT_3D('',#1094,#874,#875);
#803=AXIS2_PLACEMENT_3D('',#1095,#876,#877);
#804=AXIS2_PLACEMENT_3D('',#1096,#878,#879);
#805=AXIS2_PLACEMENT_3D('',#1098,#880,#881);
#806=AXIS2_PLACEMENT_3D('',#1101,#883,#884);
#807=AXIS2_PLACEMENT_3D('',#1102,#885,#886);
#808=AXIS2_PLACEMENT_3D('',#1103,#887,#888);
#809=AXIS2_PLACEMENT_3D('',#1105,#889,#890);
#810=AXIS2_PLACEMENT_3D('',#1108,#892,#893);
#811=AXIS2_PLACEMENT_3D('',#1109,#894,#895);
#812=AXIS2_PLACEMENT_3D('',#1110,#896,#897);
#813=AXIS2_PLACEMENT_3D('',#1112,#898,#899);
#814=AXIS2_PLACEMENT_3D('',#1115,#901,#902);
#815=AXIS2_PLACEMENT_3D('',#1116,#903,#904);
#816=AXIS2_PLACEMENT_3D('',#1117,#905,#906);
#817=AXIS2_PLACEMENT_3D('',#1119,#907,#908);
#818=AXIS2_PLACEMENT_3D('',#1122,#910,#911);
#819=AXIS2_PLACEMENT_3D('',#1123,#912,#913);
#820=AXIS2_PLACEMENT_3D('',#1124,#914,#915);
#821=AXIS2_PLACEMENT_3D('',#1126,#916,#917);
#822=AXIS2_PLACEMENT_3D('',#1129,#919,#920);
#823=AXIS2_PLACEMENT_3D('',#1130,#921,#922);
#824=AXIS2_PLACEMENT_3D('',#1181,#948,#949);
#825=AXIS2_PLACEMENT_3D('',#1183,#950,#951);
#826=AXIS2_PLACEMENT_3D('',#1184,#952,#953);
#827=AXIS2_PLACEMENT_3D('',#1186,#954,#955);
#828=AXIS2_PLACEMENT_3D('',#1187,#956,#957);
#829=AXIS2_PLACEMENT_3D('',#1189,#958,#959);
#830=AXIS2_PLACEMENT_3D('',#1190,#960,#961);
#831=AXIS2_PLACEMENT_3D('',#1192,#962,#963);
#832=AXIS2_PLACEMENT_3D('',#1193,#964,#965);
#833=AXIS2_PLACEMENT_3D('',#1199,#969,#970);
#834=AXIS2_PLACEMENT_3D('',#1203,#973,#974);
#835=AXIS2_PLACEMENT_3D('',#1207,#977,#978);
#836=AXIS2_PLACEMENT_3D('',#1211,#981,#982);
#837=AXIS2_PLACEMENT_3D('',#1215,#985,#986);
#838=AXIS2_PLACEMENT_3D('',#1219,#989,#990);
#839=AXIS2_PLACEMENT_3D('',#1223,#993,#994);
#840=AXIS2_PLACEMENT_3D('',#1227,#997,#998);
#841=AXIS2_PLACEMENT_3D('',#1231,#1001,#1002);
#842=AXIS2_PLACEMENT_3D('',#1235,#1005,#1006);
#843=AXIS2_PLACEMENT_3D('',#1239,#1009,#1010);
#844=AXIS2_PLACEMENT_3D('',#1243,#1013,#1014);
#845=AXIS2_PLACEMENT_3D('',#1247,#1017,#1018);
#846=AXIS2_PLACEMENT_3D('',#1251,#1021,#1022);
#847=AXIS2_PLACEMENT_3D('',#1255,#1025,#1026);
#848=AXIS2_PLACEMENT_3D('',#1259,#1029,#1030);
#849=AXIS2_PLACEMENT_3D('',#1263,#1033,#1034);
#850=AXIS2_PLACEMENT_3D('',#1267,#1037,#1038);
#851=AXIS2_PLACEMENT_3D('',#1271,#1041,#1042);
#852=AXIS2_PLACEMENT_3D('',#1275,#1045,#1046);
#853=AXIS2_PLACEMENT_3D('',#1279,#1049,#1050);
#854=AXIS2_PLACEMENT_3D('',#1283,#1053,#1054);
#855=AXIS2_PLACEMENT_3D('',#1287,#1057,#1058);
#856=AXIS2_PLACEMENT_3D('',#1291,#1061,#1062);
#857=AXIS2_PLACEMENT_3D('',#1293,#1064,#1065);
#858=AXIS2_PLACEMENT_3D('',#1296,#1067,#1068);
#859=AXIS2_PLACEMENT_3D('',#1297,#1069,#1070);
#860=AXIS2_PLACEMENT_3D('',#1300,#1072,#1073);
#861=AXIS2_PLACEMENT_3D('',#1301,#1074,#1075);
#862=AXIS2_PLACEMENT_3D('',#1304,#1077,#1078);
#863=AXIS2_PLACEMENT_3D('',#1305,#1079,#1080);
#864=AXIS2_PLACEMENT_3D('',#1308,#1082,#1083);
#865=AXIS2_PLACEMENT_3D('',#1309,#1084,#1085);
#866=AXIS2_PLACEMENT_3D('',#1310,#1086,#1087);
#867=DIRECTION('axis',(0.,0.,1.));
#868=DIRECTION('refdir',(1.,0.,0.));
#869=DIRECTION('center_axis',(0.,0.,1.));
#870=DIRECTION('ref_axis',(-1.,0.,0.));
#871=DIRECTION('center_axis',(0.,0.,1.));
#872=DIRECTION('ref_axis',(-1.,0.,0.));
#873=DIRECTION('',(0.,0.,1.));
#874=DIRECTION('center_axis',(0.,0.,1.));
#875=DIRECTION('ref_axis',(-1.,0.,0.));
#876=DIRECTION('center_axis',(0.,0.,-1.));
#877=DIRECTION('ref_axis',(1.,0.,0.));
#878=DIRECTION('center_axis',(0.,0.,1.));
#879=DIRECTION('ref_axis',(-1.,0.,0.));
#880=DIRECTION('center_axis',(0.,0.,1.));
#881=DIRECTION('ref_axis',(-1.,0.,0.));
#882=DIRECTION('',(0.,0.,1.));
#883=DIRECTION('center_axis',(0.,0.,1.));
#884=DIRECTION('ref_axis',(-1.,0.,0.));
#885=DIRECTION('center_axis',(0.,0.,-1.));
#886=DIRECTION('ref_axis',(1.,0.,0.));
#887=DIRECTION('center_axis',(0.,0.,1.));
#888=DIRECTION('ref_axis',(-1.,0.,0.));
#889=DIRECTION('center_axis',(0.,0.,1.));
#890=DIRECTION('ref_axis',(-1.,0.,0.));
#891=DIRECTION('',(0.,0.,1.));
#892=DIRECTION('center_axis',(0.,0.,1.));
#893=DIRECTION('ref_axis',(-1.,0.,0.));
#894=DIRECTION('center_axis',(0.,0.,-1.));
#895=DIRECTION('ref_axis',(1.,0.,0.));
#896=DIRECTION('center_axis',(0.,0.,1.));
#897=DIRECTION('ref_axis',(-1.,0.,0.));
#898=DIRECTION('center_axis',(0.,0.,1.));
#899=DIRECTION('ref_axis',(-1.,0.,0.));
#900=DIRECTION('',(0.,0.,1.));
#901=DIRECTION('center_axis',(0.,0.,1.));
#902=DIRECTION('ref_axis',(-1.,0.,0.));
#903=DIRECTION('center_axis',(0.,0.,-1.));
#904=DIRECTION('ref_axis',(1.,0.,0.));
#905=DIRECTION('center_axis',(0.,0.,1.));
#906=DIRECTION('ref_axis',(-1.,0.,0.));
#907=DIRECTION('center_axis',(0.,0.,1.));
#908=DIRECTION('ref_axis',(-1.,0.,0.));
#909=DIRECTION('',(0.,0.,1.));
#910=DIRECTION('center_axis',(0.,0.,1.));
#911=DIRECTION('ref_axis',(-1.,0.,0.));
#912=DIRECTION('center_axis',(0.,0.,-1.));
#913=DIRECTION('ref_axis',(1.,0.,0.));
#914=DIRECTION('center_axis',(0.,0.,1.));
#915=DIRECTION('ref_axis',(-1.,0.,0.));
#916=DIRECTION('center_axis',(0.,0.,1.));
#917=DIRECTION('ref_axis',(-1.,0.,0.));
#918=DIRECTION('',(0.,0.,-1.));
#919=DIRECTION('center_axis',(0.,0.,-1.));
#920=DIRECTION('ref_axis',(-1.,0.,0.));
#921=DIRECTION('center_axis',(0.,0.,-1.));
#922=DIRECTION('ref_axis',(-1.,0.,0.));
#923=DIRECTION('',(1.,0.,0.));
#924=DIRECTION('',(0.,1.,0.));
#925=DIRECTION('',(1.,0.,0.));
#926=DIRECTION('',(0.,-1.,0.));
#927=DIRECTION('',(1.,0.,0.));
#928=DIRECTION('',(0.,-1.,0.));
#929=DIRECTION('',(1.,0.,0.));
#930=DIRECTION('',(0.,-1.,0.));
#931=DIRECTION('',(-0.342020149534967,-0.939692618525909,0.));
#932=DIRECTION('',(-0.939692587538931,0.342020234670974,0.));
#933=DIRECTION('',(-0.342020127538931,-0.939692626531811,0.));
#934=DIRECTION('',(-0.939692618525909,0.342020149534966,0.));
#935=DIRECTION('',(0.342020136953118,0.939692623105327,0.));
#936=DIRECTION('',(-0.939692640091876,0.342020090282954,0.));
#937=DIRECTION('',(0.342020177951986,0.939692608182959,0.));
#938=DIRECTION('',(-1.,-1.26552108980649E-13,0.));
#939=DIRECTION('',(0.,1.,0.));
#940=DIRECTION('',(-1.,0.,0.));
#941=DIRECTION('',(0.,-1.,0.));
#942=DIRECTION('',(-1.,0.,0.));
#943=DIRECTION('',(0.,-1.,0.));
#944=DIRECTION('',(-1.,0.,0.));
#945=DIRECTION('',(0.,1.,0.));
#946=DIRECTION('',(1.,0.,0.));
#947=DIRECTION('',(0.,1.,0.));
#948=DIRECTION('center_axis',(0.,0.,-1.));
#949=DIRECTION('ref_axis',(-1.,0.,0.));
#950=DIRECTION('center_axis',(0.,0.,1.));
#951=DIRECTION('ref_axis',(-1.,0.,0.));
#952=DIRECTION('center_axis',(0.,0.,-1.));
#953=DIRECTION('ref_axis',(-1.,0.,0.));
#954=DIRECTION('center_axis',(0.,0.,1.));
#955=DIRECTION('ref_axis',(-1.,0.,0.));
#956=DIRECTION('center_axis',(0.,0.,-1.));
#957=DIRECTION('ref_axis',(-1.,0.,0.));
#958=DIRECTION('center_axis',(0.,0.,1.));
#959=DIRECTION('ref_axis',(-1.,0.,0.));
#960=DIRECTION('center_axis',(0.,0.,-1.));
#961=DIRECTION('ref_axis',(-1.,0.,0.));
#962=DIRECTION('center_axis',(0.,0.,1.));
#963=DIRECTION('ref_axis',(-1.,0.,0.));
#964=DIRECTION('center_axis',(-1.,0.,0.));
#965=DIRECTION('ref_axis',(0.,1.,0.));
#966=DIRECTION('',(0.,1.,0.));
#967=DIRECTION('',(0.,0.,-1.));
#968=DIRECTION('',(0.,0.,-1.));
#969=DIRECTION('center_axis',(0.,1.,0.));
#970=DIRECTION('ref_axis',(1.,0.,0.));
#971=DIRECTION('',(1.,0.,0.));
#972=DIRECTION('',(0.,0.,-1.));
#973=DIRECTION('center_axis',(1.,0.,0.));
#974=DIRECTION('ref_axis',(0.,-1.,0.));
#975=DIRECTION('',(0.,-1.,0.));
#976=DIRECTION('',(0.,0.,-1.));
#977=DIRECTION('center_axis',(0.,1.,0.));
#978=DIRECTION('ref_axis',(1.,0.,0.));
#979=DIRECTION('',(1.,0.,0.));
#980=DIRECTION('',(0.,0.,-1.));
#981=DIRECTION('center_axis',(1.,0.,0.));
#982=DIRECTION('ref_axis',(0.,-1.,0.));
#983=DIRECTION('',(0.,-1.,0.));
#984=DIRECTION('',(0.,0.,-1.));
#985=DIRECTION('center_axis',(0.,1.,0.));
#986=DIRECTION('ref_axis',(1.,0.,0.));
#987=DIRECTION('',(1.,0.,0.));
#988=DIRECTION('',(0.,0.,-1.));
#989=DIRECTION('center_axis',(1.,0.,0.));
#990=DIRECTION('ref_axis',(0.,-1.,0.));
#991=DIRECTION('',(0.,-1.,0.));
#992=DIRECTION('',(0.,0.,-1.));
#993=DIRECTION('center_axis',(0.939692618525909,-0.342020149534967,0.));
#994=DIRECTION('ref_axis',(-0.342020149534967,-0.939692618525909,0.));
#995=DIRECTION('',(-0.342020149534967,-0.939692618525909,0.));
#996=DIRECTION('',(0.,0.,-1.));
#997=DIRECTION('center_axis',(-0.342020234670974,-0.939692587538931,0.));
#998=DIRECTION('ref_axis',(-0.939692587538931,0.342020234670974,0.));
#999=DIRECTION('',(-0.939692587538931,0.342020234670974,0.));
#1000=DIRECTION('',(0.,0.,-1.));
#1001=DIRECTION('center_axis',(0.939692626531811,-0.342020127538931,0.));
#1002=DIRECTION('ref_axis',(-0.342020127538931,-0.939692626531811,0.));
#1003=DIRECTION('',(-0.342020127538931,-0.939692626531811,0.));
#1004=DIRECTION('',(0.,0.,-1.));
#1005=DIRECTION('center_axis',(-0.342020149534966,-0.939692618525909,0.));
#1006=DIRECTION('ref_axis',(-0.939692618525909,0.342020149534966,0.));
#1007=DIRECTION('',(-0.939692618525909,0.342020149534966,0.));
#1008=DIRECTION('',(0.,0.,-1.));
#1009=DIRECTION('center_axis',(-0.939692623105327,0.342020136953118,0.));
#1010=DIRECTION('ref_axis',(0.342020136953118,0.939692623105327,0.));
#1011=DIRECTION('',(0.342020136953118,0.939692623105327,0.));
#1012=DIRECTION('',(0.,0.,-1.));
#1013=DIRECTION('center_axis',(-0.342020090282954,-0.939692640091876,0.));
#1014=DIRECTION('ref_axis',(-0.939692640091876,0.342020090282954,0.));
#1015=DIRECTION('',(-0.939692640091876,0.342020090282954,0.));
#1016=DIRECTION('',(0.,0.,-1.));
#1017=DIRECTION('center_axis',(-0.939692608182959,0.342020177951986,0.));
#1018=DIRECTION('ref_axis',(0.342020177951986,0.939692608182959,0.));
#1019=DIRECTION('',(0.342020177951986,0.939692608182959,0.));
#1020=DIRECTION('',(0.,0.,-1.));
#1021=DIRECTION('center_axis',(1.26552108980649E-13,-1.,0.));
#1022=DIRECTION('ref_axis',(-1.,-1.26552108980649E-13,0.));
#1023=DIRECTION('',(-1.,-1.26552108980649E-13,0.));
#1024=DIRECTION('',(0.,0.,-1.));
#1025=DIRECTION('center_axis',(-1.,0.,0.));
#1026=DIRECTION('ref_axis',(0.,1.,0.));
#1027=DIRECTION('',(0.,1.,0.));
#1028=DIRECTION('',(0.,0.,-1.));
#1029=DIRECTION('center_axis',(0.,-1.,0.));
#1030=DIRECTION('ref_axis',(-1.,0.,0.));
#1031=DIRECTION('',(-1.,0.,0.));
#1032=DIRECTION('',(0.,0.,-1.));
#1033=DIRECTION('center_axis',(1.,0.,0.));
#1034=DIRECTION('ref_axis',(0.,-1.,0.));
#1035=DIRECTION('',(0.,-1.,0.));
#1036=DIRECTION('',(0.,0.,-1.));
#1037=DIRECTION('center_axis',(0.,-1.,0.));
#1038=DIRECTION('ref_axis',(-1.,0.,0.));
#1039=DIRECTION('',(-1.,0.,0.));
#1040=DIRECTION('',(0.,0.,-1.));
#1041=DIRECTION('center_axis',(1.,0.,0.));
#1042=DIRECTION('ref_axis',(0.,-1.,0.));
#1043=DIRECTION('',(0.,-1.,0.));
#1044=DIRECTION('',(0.,0.,-1.));
#1045=DIRECTION('center_axis',(0.,-1.,0.));
#1046=DIRECTION('ref_axis',(-1.,0.,0.));
#1047=DIRECTION('',(-1.,0.,0.));
#1048=DIRECTION('',(0.,0.,-1.));
#1049=DIRECTION('center_axis',(-1.,0.,0.));
#1050=DIRECTION('ref_axis',(0.,1.,0.));
#1051=DIRECTION('',(0.,1.,0.));
#1052=DIRECTION('',(0.,0.,-1.));
#1053=DIRECTION('center_axis',(0.,1.,0.));
#1054=DIRECTION('ref_axis',(1.,0.,0.));
#1055=DIRECTION('',(1.,0.,0.));
#1056=DIRECTION('',(0.,0.,-1.));
#1057=DIRECTION('center_axis',(-1.,0.,0.));
#1058=DIRECTION('ref_axis',(0.,1.,0.));
#1059=DIRECTION('',(0.,1.,0.));
#1060=DIRECTION('',(0.,0.,-1.));
#1061=DIRECTION('center_axis',(0.,1.,0.));
#1062=DIRECTION('ref_axis',(1.,0.,0.));
#1063=DIRECTION('',(1.,0.,0.));
#1064=DIRECTION('center_axis',(0.,0.,1.));
#1065=DIRECTION('ref_axis',(-1.,0.,0.));
#1066=DIRECTION('',(0.,0.,-1.));
#1067=DIRECTION('center_axis',(0.,0.,-1.));
#1068=DIRECTION('ref_axis',(-1.,0.,0.));
#1069=DIRECTION('center_axis',(0.,0.,1.));
#1070=DIRECTION('ref_axis',(-1.,0.,0.));
#1071=DIRECTION('',(0.,0.,-1.));
#1072=DIRECTION('center_axis',(0.,0.,-1.));
#1073=DIRECTION('ref_axis',(-1.,0.,0.));
#1074=DIRECTION('center_axis',(0.,0.,1.));
#1075=DIRECTION('ref_axis',(-1.,0.,0.));
#1076=DIRECTION('',(0.,0.,-1.));
#1077=DIRECTION('center_axis',(0.,0.,-1.));
#1078=DIRECTION('ref_axis',(-1.,0.,0.));
#1079=DIRECTION('center_axis',(0.,0.,1.));
#1080=DIRECTION('ref_axis',(-1.,0.,0.));
#1081=DIRECTION('',(0.,0.,-1.));
#1082=DIRECTION('center_axis',(0.,0.,-1.));
#1083=DIRECTION('ref_axis',(-1.,0.,0.));
#1084=DIRECTION('center_axis',(0.,0.,-1.));
#1085=DIRECTION('ref_axis',(-1.,0.,0.));
#1086=DIRECTION('center_axis',(0.,0.,-1.));
#1087=DIRECTION('ref_axis',(-1.,0.,0.));
#1088=CARTESIAN_POINT('',(0.,0.,0.));
#1089=CARTESIAN_POINT('Origin',(74.29,-145.72,-1.55));
#1090=CARTESIAN_POINT('',(75.2277,-145.72,-4.05));
#1091=CARTESIAN_POINT('Origin',(74.29,-145.72,-4.05));
#1092=CARTESIAN_POINT('',(75.2277,-145.72,-0.05));
#1093=CARTESIAN_POINT('',(75.2277,-145.72,-1.55));
#1094=CARTESIAN_POINT('Origin',(74.29,-145.72,-0.05));
#1095=CARTESIAN_POINT('Origin',(74.29,-145.72,-4.05));
#1096=CARTESIAN_POINT('Origin',(179.77,-84.52,-1.55));
#1097=CARTESIAN_POINT('',(180.7077,-84.52,-4.05));
#1098=CARTESIAN_POINT('Origin',(179.77,-84.52,-4.05));
#1099=CARTESIAN_POINT('',(180.7077,-84.52,-0.05));
#1100=CARTESIAN_POINT('',(180.7077,-84.52,-1.55));
#1101=CARTESIAN_POINT('Origin',(179.77,-84.52,-0.05));
#1102=CARTESIAN_POINT('Origin',(179.77,-84.52,-4.05));
#1103=CARTESIAN_POINT('Origin',(195.,-148.33,-1.55));
#1104=CARTESIAN_POINT('',(195.9377,-148.33,-4.05));
#1105=CARTESIAN_POINT('Origin',(195.,-148.33,-4.05));
#1106=CARTESIAN_POINT('',(195.9377,-148.33,-0.05));
#1107=CARTESIAN_POINT('',(195.9377,-148.33,-1.55));
#1108=CARTESIAN_POINT('Origin',(195.,-148.33,-0.05));
#1109=CARTESIAN_POINT('Origin',(195.,-148.33,-4.05));
#1110=CARTESIAN_POINT('Origin',(93.74,-85.26,-1.55));
#1111=CARTESIAN_POINT('',(94.6777,-85.26,-4.05));
#1112=CARTESIAN_POINT('Origin',(93.74,-85.26,-4.05));
#1113=CARTESIAN_POINT('',(94.6777,-85.26,-0.05));
#1114=CARTESIAN_POINT('',(94.6777,-85.26,-1.55));
#1115=CARTESIAN_POINT('Origin',(93.74,-85.26,-0.05));
#1116=CARTESIAN_POINT('Origin',(93.74,-85.26,-4.05));
#1117=CARTESIAN_POINT('Origin',(160.8,-161.57,-1.55));
#1118=CARTESIAN_POINT('',(161.7377,-161.57,-4.05));
#1119=CARTESIAN_POINT('Origin',(160.8,-161.57,-4.05));
#1120=CARTESIAN_POINT('',(161.7377,-161.57,-0.05));
#1121=CARTESIAN_POINT('',(161.7377,-161.57,-1.55));
#1122=CARTESIAN_POINT('Origin',(160.8,-161.57,-0.05));
#1123=CARTESIAN_POINT('Origin',(160.8,-161.57,-4.05));
#1124=CARTESIAN_POINT('Origin',(74.29,-145.72,-4.05));
#1125=CARTESIAN_POINT('',(76.79,-145.72,-0.05));
#1126=CARTESIAN_POINT('Origin',(74.29,-145.72,-0.05));
#1127=CARTESIAN_POINT('',(76.79,-145.72,-4.05));
#1128=CARTESIAN_POINT('',(76.79,-145.72,-4.05));
#1129=CARTESIAN_POINT('Origin',(74.29,-145.72,-4.05));
#1130=CARTESIAN_POINT('Origin',(134.860741,-129.1646525,-8.05));
#1131=CARTESIAN_POINT('',(92.09,-77.4225,-8.05));
#1132=CARTESIAN_POINT('',(113.045,-77.4225,-8.05));
#1133=CARTESIAN_POINT('',(92.09,-77.4225,-8.05));
#1134=CARTESIAN_POINT('',(113.045,-66.945,-8.05));
#1135=CARTESIAN_POINT('',(113.045,-77.4225,-8.05));
#1136=CARTESIAN_POINT('',(139.095,-66.945,-8.05));
#1137=CARTESIAN_POINT('',(113.045,-66.945,-8.05));
#1138=CARTESIAN_POINT('',(139.095,-70.755,-8.05));
#1139=CARTESIAN_POINT('',(139.095,-66.945,-8.05));
#1140=CARTESIAN_POINT('',(160.05,-70.755,-8.05));
#1141=CARTESIAN_POINT('',(139.095,-70.755,-8.05));
#1142=CARTESIAN_POINT('',(160.05,-74.492228,-8.05));
#1143=CARTESIAN_POINT('',(160.05,-70.755,-8.05));
#1144=CARTESIAN_POINT('',(198.586482,-74.492228,-8.05));
#1145=CARTESIAN_POINT('',(160.05,-74.492228,-8.05));
#1146=CARTESIAN_POINT('',(198.586482,-149.867231,-8.05));
#1147=CARTESIAN_POINT('',(198.586482,-74.492228,-8.05));
#1148=CARTESIAN_POINT('',(189.676857000008,-174.346224000003,-8.05));
#1149=CARTESIAN_POINT('',(198.586482,-149.867231,-8.05));
#1150=CARTESIAN_POINT('',(182.516400000001,-171.740029999997,-8.05));
#1151=CARTESIAN_POINT('',(189.676857000008,-174.346224000003,-8.05));
#1152=CARTESIAN_POINT('',(175.366469000001,-191.384305,-8.05));
#1153=CARTESIAN_POINT('',(182.516400000001,-171.740029999997,-8.05));
#1154=CARTESIAN_POINT('',(150.887475999997,-182.474680000008,-8.05));
#1155=CARTESIAN_POINT('',(175.366469000001,-191.384305,-8.05));
#1156=CARTESIAN_POINT('',(158.054508,-162.783421,-8.05));
#1157=CARTESIAN_POINT('',(150.887475999997,-182.474680000008,-8.05));
#1158=CARTESIAN_POINT('',(145.570691000001,-158.239683999997,-8.05));
#1159=CARTESIAN_POINT('',(158.054508,-162.783421,-8.05));
#1160=CARTESIAN_POINT('',(153.370458999993,-136.809999999998,-8.05));
#1161=CARTESIAN_POINT('',(145.570691000001,-158.239683999997,-8.05));
#1162=CARTESIAN_POINT('',(134.,-136.81,-8.05));
#1163=CARTESIAN_POINT('',(153.370458999993,-136.809999999998,-8.05));
#1164=CARTESIAN_POINT('',(134.,-133.,-8.05));
#1165=CARTESIAN_POINT('',(134.,-136.81,-8.05));
#1166=CARTESIAN_POINT('',(118.14,-133.,-8.05));
#1167=CARTESIAN_POINT('',(134.,-133.,-8.05));
#1168=CARTESIAN_POINT('',(118.14,-143.4775,-8.05));
#1169=CARTESIAN_POINT('',(118.14,-133.,-8.05));
#1170=CARTESIAN_POINT('',(97.185,-143.4775,-8.05));
#1171=CARTESIAN_POINT('',(118.14,-143.4775,-8.05));
#1172=CARTESIAN_POINT('',(97.185,-149.1925,-8.05));
#1173=CARTESIAN_POINT('',(97.185,-143.4775,-8.05));
#1174=CARTESIAN_POINT('',(71.135,-149.1925,-8.05));
#1175=CARTESIAN_POINT('',(97.185,-149.1925,-8.05));
#1176=CARTESIAN_POINT('',(71.135,-83.1375,-8.05));
#1177=CARTESIAN_POINT('',(71.135,-149.1925,-8.05));
#1178=CARTESIAN_POINT('',(92.09,-83.1375,-8.05));
#1179=CARTESIAN_POINT('',(71.135,-83.1375,-8.05));
#1180=CARTESIAN_POINT('',(92.09,-83.1375,-8.05));
#1181=CARTESIAN_POINT('Origin',(134.645,-123.045,-0.05));
#1182=CARTESIAN_POINT('',(197.5,-148.33,-0.05));
#1183=CARTESIAN_POINT('Origin',(195.,-148.33,-0.05));
#1184=CARTESIAN_POINT('Origin',(134.645,-123.045,-0.05));
#1185=CARTESIAN_POINT('',(182.27,-84.52,-0.05));
#1186=CARTESIAN_POINT('Origin',(179.77,-84.52,-0.05));
#1187=CARTESIAN_POINT('Origin',(134.645,-123.045,-0.05));
#1188=CARTESIAN_POINT('',(163.3,-161.57,-0.05));
#1189=CARTESIAN_POINT('Origin',(160.8,-161.57,-0.05));
#1190=CARTESIAN_POINT('Origin',(134.645,-123.045,-0.05));
#1191=CARTESIAN_POINT('',(96.24,-85.26,-0.05));
#1192=CARTESIAN_POINT('Origin',(93.74,-85.26,-0.05));
#1193=CARTESIAN_POINT('Origin',(113.045,-77.4225,-4.05));
#1194=CARTESIAN_POINT('',(113.045,-77.4225,-4.05));
#1195=CARTESIAN_POINT('',(113.045,-66.945,-4.05));
#1196=CARTESIAN_POINT('',(113.045,-77.4225,-4.05));
#1197=CARTESIAN_POINT('',(113.045,-66.945,-4.05));
#1198=CARTESIAN_POINT('',(113.045,-77.4225,-4.05));
#1199=CARTESIAN_POINT('Origin',(113.045,-66.945,-4.05));
#1200=CARTESIAN_POINT('',(139.095,-66.945,-4.05));
#1201=CARTESIAN_POINT('',(113.045,-66.945,-4.05));
#1202=CARTESIAN_POINT('',(139.095,-66.945,-4.05));
#1203=CARTESIAN_POINT('Origin',(139.095,-66.945,-4.05));
#1204=CARTESIAN_POINT('',(139.095,-70.755,-4.05));
#1205=CARTESIAN_POINT('',(139.095,-66.945,-4.05));
#1206=CARTESIAN_POINT('',(139.095,-70.755,-4.05));
#1207=CARTESIAN_POINT('Origin',(139.095,-70.755,-4.05));
#1208=CARTESIAN_POINT('',(160.05,-70.755,-4.05));
#1209=CARTESIAN_POINT('',(139.095,-70.755,-4.05));
#1210=CARTESIAN_POINT('',(160.05,-70.755,-4.05));
#1211=CARTESIAN_POINT('Origin',(160.05,-70.755,-4.05));
#1212=CARTESIAN_POINT('',(160.05,-74.492228,-4.05));
#1213=CARTESIAN_POINT('',(160.05,-70.755,-4.05));
#1214=CARTESIAN_POINT('',(160.05,-74.492228,-4.05));
#1215=CARTESIAN_POINT('Origin',(160.05,-74.492228,-4.05));
#1216=CARTESIAN_POINT('',(198.586482,-74.492228,-4.05));
#1217=CARTESIAN_POINT('',(160.05,-74.492228,-4.05));
#1218=CARTESIAN_POINT('',(198.586482,-74.492228,-4.05));
#1219=CARTESIAN_POINT('Origin',(198.586482,-74.492228,-4.05));
#1220=CARTESIAN_POINT('',(198.586482,-149.867231,-4.05));
#1221=CARTESIAN_POINT('',(198.586482,-74.492228,-4.05));
#1222=CARTESIAN_POINT('',(198.586482,-149.867231,-4.05));
#1223=CARTESIAN_POINT('Origin',(198.586482,-149.867231,-4.05));
#1224=CARTESIAN_POINT('',(189.676857000008,-174.346224000003,-4.05));
#1225=CARTESIAN_POINT('',(198.586482,-149.867231,-4.05));
#1226=CARTESIAN_POINT('',(189.676857000008,-174.346224000003,-4.05));
#1227=CARTESIAN_POINT('Origin',(189.676857000008,-174.346224000003,-4.05));
#1228=CARTESIAN_POINT('',(182.516400000001,-171.740029999997,-4.05));
#1229=CARTESIAN_POINT('',(189.676857000008,-174.346224000003,-4.05));
#1230=CARTESIAN_POINT('',(182.516400000001,-171.740029999997,-4.05));
#1231=CARTESIAN_POINT('Origin',(182.516400000001,-171.740029999997,-4.05));
#1232=CARTESIAN_POINT('',(175.366469000001,-191.384305,-4.05));
#1233=CARTESIAN_POINT('',(182.516400000001,-171.740029999997,-4.05));
#1234=CARTESIAN_POINT('',(175.366469000001,-191.384305,-4.05));
#1235=CARTESIAN_POINT('Origin',(175.366469000001,-191.384305,-4.05));
#1236=CARTESIAN_POINT('',(150.887475999997,-182.474680000008,-4.05));
#1237=CARTESIAN_POINT('',(175.366469000001,-191.384305,-4.05));
#1238=CARTESIAN_POINT('',(150.887475999997,-182.474680000008,-4.05));
#1239=CARTESIAN_POINT('Origin',(150.887475999997,-182.474680000008,-4.05));
#1240=CARTESIAN_POINT('',(158.054508,-162.783421,-4.05));
#1241=CARTESIAN_POINT('',(150.887475999997,-182.474680000008,-4.05));
#1242=CARTESIAN_POINT('',(158.054508,-162.783421,-4.05));
#1243=CARTESIAN_POINT('Origin',(158.054508,-162.783421,-4.05));
#1244=CARTESIAN_POINT('',(145.570691000001,-158.239683999997,-4.05));
#1245=CARTESIAN_POINT('',(158.054508,-162.783421,-4.05));
#1246=CARTESIAN_POINT('',(145.570691000001,-158.239683999997,-4.05));
#1247=CARTESIAN_POINT('Origin',(145.570691000001,-158.239683999997,-4.05));
#1248=CARTESIAN_POINT('',(153.370458999993,-136.809999999998,-4.05));
#1249=CARTESIAN_POINT('',(145.570691000001,-158.239683999997,-4.05));
#1250=CARTESIAN_POINT('',(153.370458999993,-136.809999999998,-4.05));
#1251=CARTESIAN_POINT('Origin',(153.370458999993,-136.809999999998,-4.05));
#1252=CARTESIAN_POINT('',(134.,-136.81,-4.05));
#1253=CARTESIAN_POINT('',(153.370458999993,-136.809999999998,-4.05));
#1254=CARTESIAN_POINT('',(134.,-136.81,-4.05));
#1255=CARTESIAN_POINT('Origin',(134.,-136.81,-4.05));
#1256=CARTESIAN_POINT('',(134.,-133.,-4.05));
#1257=CARTESIAN_POINT('',(134.,-136.81,-4.05));
#1258=CARTESIAN_POINT('',(134.,-133.,-4.05));
#1259=CARTESIAN_POINT('Origin',(134.,-133.,-4.05));
#1260=CARTESIAN_POINT('',(118.14,-133.,-4.05));
#1261=CARTESIAN_POINT('',(134.,-133.,-4.05));
#1262=CARTESIAN_POINT('',(118.14,-133.,-4.05));
#1263=CARTESIAN_POINT('Origin',(118.14,-133.,-4.05));
#1264=CARTESIAN_POINT('',(118.14,-143.4775,-4.05));
#1265=CARTESIAN_POINT('',(118.14,-133.,-4.05));
#1266=CARTESIAN_POINT('',(118.14,-143.4775,-4.05));
#1267=CARTESIAN_POINT('Origin',(118.14,-143.4775,-4.05));
#1268=CARTESIAN_POINT('',(97.185,-143.4775,-4.05));
#1269=CARTESIAN_POINT('',(118.14,-143.4775,-4.05));
#1270=CARTESIAN_POINT('',(97.185,-143.4775,-4.05));
#1271=CARTESIAN_POINT('Origin',(97.185,-143.4775,-4.05));
#1272=CARTESIAN_POINT('',(97.185,-149.1925,-4.05));
#1273=CARTESIAN_POINT('',(97.185,-143.4775,-4.05));
#1274=CARTESIAN_POINT('',(97.185,-149.1925,-4.05));
#1275=CARTESIAN_POINT('Origin',(97.185,-149.1925,-4.05));
#1276=CARTESIAN_POINT('',(71.135,-149.1925,-4.05));
#1277=CARTESIAN_POINT('',(97.185,-149.1925,-4.05));
#1278=CARTESIAN_POINT('',(71.135,-149.1925,-4.05));
#1279=CARTESIAN_POINT('Origin',(71.135,-149.1925,-4.05));
#1280=CARTESIAN_POINT('',(71.135,-83.1375,-4.05));
#1281=CARTESIAN_POINT('',(71.135,-149.1925,-4.05));
#1282=CARTESIAN_POINT('',(71.135,-83.1375,-4.05));
#1283=CARTESIAN_POINT('Origin',(71.135,-83.1375,-4.05));
#1284=CARTESIAN_POINT('',(92.09,-83.1375,-4.05));
#1285=CARTESIAN_POINT('',(71.135,-83.1375,-4.05));
#1286=CARTESIAN_POINT('',(92.09,-83.1375,-4.05));
#1287=CARTESIAN_POINT('Origin',(92.09,-83.1375,-4.05));
#1288=CARTESIAN_POINT('',(92.09,-77.4225,-4.05));
#1289=CARTESIAN_POINT('',(92.09,-83.1375,-4.05));
#1290=CARTESIAN_POINT('',(92.09,-77.4225,-4.05));
#1291=CARTESIAN_POINT('Origin',(92.09,-77.4225,-4.05));
#1292=CARTESIAN_POINT('',(92.09,-77.4225,-4.05));
#1293=CARTESIAN_POINT('Origin',(195.,-148.33,-4.05));
#1294=CARTESIAN_POINT('',(197.5,-148.33,-4.05));
#1295=CARTESIAN_POINT('',(197.5,-148.33,-4.05));
#1296=CARTESIAN_POINT('Origin',(195.,-148.33,-4.05));
#1297=CARTESIAN_POINT('Origin',(179.77,-84.52,-4.05));
#1298=CARTESIAN_POINT('',(182.27,-84.52,-4.05));
#1299=CARTESIAN_POINT('',(182.27,-84.52,-4.05));
#1300=CARTESIAN_POINT('Origin',(179.77,-84.52,-4.05));
#1301=CARTESIAN_POINT('Origin',(160.8,-161.57,-4.05));
#1302=CARTESIAN_POINT('',(163.3,-161.57,-4.05));
#1303=CARTESIAN_POINT('',(163.3,-161.57,-4.05));
#1304=CARTESIAN_POINT('Origin',(160.8,-161.57,-4.05));
#1305=CARTESIAN_POINT('Origin',(93.74,-85.26,-4.05));
#1306=CARTESIAN_POINT('',(96.24,-85.26,-4.05));
#1307=CARTESIAN_POINT('',(96.24,-85.26,-4.05));
#1308=CARTESIAN_POINT('Origin',(93.74,-85.26,-4.05));
#1309=CARTESIAN_POINT('Origin',(134.645,-123.045,-0.05));
#1310=CARTESIAN_POINT('Origin',(134.860741,-129.1646525,-4.05));
#1311=UNCERTAINTY_MEASURE_WITH_UNIT(LENGTH_MEASURE(0.01),#1315,
'DISTANCE_ACCURACY_VALUE',
'Maximum model space distance between geometric entities at asserted c
onnectivities');
#1312=UNCERTAINTY_MEASURE_WITH_UNIT(LENGTH_MEASURE(0.01),#1315,
'DISTANCE_ACCURACY_VALUE',
'Maximum model space distance between geometric entities at asserted c
onnectivities');
#1313=(
GEOMETRIC_REPRESENTATION_CONTEXT(3)
GLOBAL_UNCERTAINTY_ASSIGNED_CONTEXT((#1311))
GLOBAL_UNIT_ASSIGNED_CONTEXT((#1315,#1316,#1317))
REPRESENTATION_CONTEXT('','3D')
);
#1314=(
GEOMETRIC_REPRESENTATION_CONTEXT(3)
GLOBAL_UNCERTAINTY_ASSIGNED_CONTEXT((#1312))
GLOBAL_UNIT_ASSIGNED_CONTEXT((#1315,#1316,#1317))
REPRESENTATION_CONTEXT('','3D')
);
#1315=(
LENGTH_UNIT()
NAMED_UNIT(*)
SI_UNIT(.MILLI.,.METRE.)
);
#1316=(
NAMED_UNIT(*)
PLANE_ANGLE_UNIT()
SI_UNIT($,.RADIAN.)
);
#1317=(
NAMED_UNIT(*)
SI_UNIT($,.STERADIAN.)
SOLID_ANGLE_UNIT()
);
#1318=SHAPE_DEFINITION_REPRESENTATION(#1319,#1320);
#1319=PRODUCT_DEFINITION_SHAPE('',$,#1322);
#1320=SHAPE_REPRESENTATION('',(#799),#1313);
#1321=PRODUCT_DEFINITION_CONTEXT('part definition',#1326,'design');
#1322=PRODUCT_DEFINITION('minimal Case','minimal Case v18',#1323,#1321);
#1323=PRODUCT_DEFINITION_FORMATION('',$,#1328);
#1324=PRODUCT_RELATED_PRODUCT_CATEGORY('minimal Case v18',
'minimal Case v18',(#1328));
#1325=APPLICATION_PROTOCOL_DEFINITION('international standard',
'automotive_design',2009,#1326);
#1326=APPLICATION_CONTEXT(
'Core Data for Automotive Mechanical Design Process');
#1327=PRODUCT_CONTEXT('part definition',#1326,'mechanical');
#1328=PRODUCT('minimal Case','minimal Case v18',$,(#1327));
#1329=PRESENTATION_STYLE_ASSIGNMENT((#1330));
#1330=SURFACE_STYLE_USAGE(.BOTH.,#1331);
#1331=SURFACE_SIDE_STYLE('',(#1332));
#1332=SURFACE_STYLE_FILL_AREA(#1333);
#1333=FILL_AREA_STYLE('Steel - Satin',(#1334));
#1334=FILL_AREA_STYLE_COLOUR('Steel - Satin',#1335);
#1335=COLOUR_RGB('Steel - Satin',0.627450980392157,0.627450980392157,0.627450980392157);
ENDSEC;
END-ISO-10303-21;
