ISO-10303-21;
HEADER;
/* Generated by software containing ST-Developer
 * from STEP Tools, Inc. (www.steptools.com) 
 */

FILE_DESCRIPTION(
/* description */ (''),
/* implementation_level */ '2;1');

FILE_NAME(
/* name */ 'minimal Case.step',
/* time_stamp */ '2026-07-10T01:39:39+02:00',
/* author */ (''),
/* organization */ (''),
/* preprocessor_version */ 'ST-DEVELOPER v20.1',
/* originating_system */ 'Autodesk Translation Framework v15.8.0.0',
/* authorisation */ '');

FILE_SCHEMA (('AUTOMOTIVE_DESIGN { 1 0 10303 214 3 1 1 }'));
ENDSEC;

DATA;
#10=MECHANICAL_DESIGN_GEOMETRIC_PRESENTATION_REPRESENTATION('',(#13),#1284);
#11=SHAPE_REPRESENTATION_RELATIONSHIP('SRR','None',#1290,#12);
#12=ADVANCED_BREP_SHAPE_REPRESENTATION('',(#14),#1283);
#13=STYLED_ITEM('',(#1299),#14);
#14=MANIFOLD_SOLID_BREP('Body2',#788);
#15=FACE_BOUND('',#106,.T.);
#16=FACE_BOUND('',#108,.T.);
#17=FACE_BOUND('',#110,.T.);
#18=FACE_BOUND('',#112,.T.);
#19=FACE_BOUND('',#114,.T.);
#20=FACE_BOUND('',#121,.T.);
#21=FACE_BOUND('',#122,.T.);
#22=FACE_BOUND('',#123,.T.);
#23=FACE_BOUND('',#124,.T.);
#24=FACE_BOUND('',#125,.T.);
#25=FACE_BOUND('',#156,.T.);
#26=FACE_BOUND('',#157,.T.);
#27=FACE_BOUND('',#158,.T.);
#28=FACE_BOUND('',#159,.T.);
#29=FACE_BOUND('',#160,.T.);
#30=PLANE('',#793);
#31=PLANE('',#795);
#32=PLANE('',#798);
#33=PLANE('',#801);
#34=PLANE('',#804);
#35=PLANE('',#817);
#36=PLANE('',#826);
#37=PLANE('',#827);
#38=PLANE('',#828);
#39=PLANE('',#829);
#40=PLANE('',#830);
#41=PLANE('',#831);
#42=PLANE('',#832);
#43=PLANE('',#833);
#44=PLANE('',#834);
#45=PLANE('',#835);
#46=PLANE('',#836);
#47=PLANE('',#837);
#48=PLANE('',#838);
#49=PLANE('',#839);
#50=PLANE('',#840);
#51=PLANE('',#841);
#52=PLANE('',#842);
#53=PLANE('',#843);
#54=PLANE('',#844);
#55=PLANE('',#845);
#56=PLANE('',#846);
#57=PLANE('',#847);
#58=PLANE('',#848);
#59=PLANE('',#849);
#60=PLANE('',#850);
#61=PLANE('',#851);
#62=FACE_OUTER_BOUND('',#104,.T.);
#63=FACE_OUTER_BOUND('',#105,.T.);
#64=FACE_OUTER_BOUND('',#107,.T.);
#65=FACE_OUTER_BOUND('',#109,.T.);
#66=FACE_OUTER_BOUND('',#111,.T.);
#67=FACE_OUTER_BOUND('',#113,.T.);
#68=FACE_OUTER_BOUND('',#115,.T.);
#69=FACE_OUTER_BOUND('',#116,.T.);
#70=FACE_OUTER_BOUND('',#117,.T.);
#71=FACE_OUTER_BOUND('',#118,.T.);
#72=FACE_OUTER_BOUND('',#119,.T.);
#73=FACE_OUTER_BOUND('',#120,.T.);
#74=FACE_OUTER_BOUND('',#126,.T.);
#75=FACE_OUTER_BOUND('',#127,.T.);
#76=FACE_OUTER_BOUND('',#128,.T.);
#77=FACE_OUTER_BOUND('',#129,.T.);
#78=FACE_OUTER_BOUND('',#130,.T.);
#79=FACE_OUTER_BOUND('',#131,.T.);
#80=FACE_OUTER_BOUND('',#132,.T.);
#81=FACE_OUTER_BOUND('',#133,.T.);
#82=FACE_OUTER_BOUND('',#134,.T.);
#83=FACE_OUTER_BOUND('',#135,.T.);
#84=FACE_OUTER_BOUND('',#136,.T.);
#85=FACE_OUTER_BOUND('',#137,.T.);
#86=FACE_OUTER_BOUND('',#138,.T.);
#87=FACE_OUTER_BOUND('',#139,.T.);
#88=FACE_OUTER_BOUND('',#140,.T.);
#89=FACE_OUTER_BOUND('',#141,.T.);
#90=FACE_OUTER_BOUND('',#142,.T.);
#91=FACE_OUTER_BOUND('',#143,.T.);
#92=FACE_OUTER_BOUND('',#144,.T.);
#93=FACE_OUTER_BOUND('',#145,.T.);
#94=FACE_OUTER_BOUND('',#146,.T.);
#95=FACE_OUTER_BOUND('',#147,.T.);
#96=FACE_OUTER_BOUND('',#148,.T.);
#97=FACE_OUTER_BOUND('',#149,.T.);
#98=FACE_OUTER_BOUND('',#150,.T.);
#99=FACE_OUTER_BOUND('',#151,.T.);
#100=FACE_OUTER_BOUND('',#152,.T.);
#101=FACE_OUTER_BOUND('',#153,.T.);
#102=FACE_OUTER_BOUND('',#154,.T.);
#103=FACE_OUTER_BOUND('',#155,.T.);
#104=EDGE_LOOP('',(#526,#527,#528,#529));
#105=EDGE_LOOP('',(#530));
#106=EDGE_LOOP('',(#531));
#107=EDGE_LOOP('',(#532));
#108=EDGE_LOOP('',(#533));
#109=EDGE_LOOP('',(#534));
#110=EDGE_LOOP('',(#535));
#111=EDGE_LOOP('',(#536));
#112=EDGE_LOOP('',(#537));
#113=EDGE_LOOP('',(#538));
#114=EDGE_LOOP('',(#539));
#115=EDGE_LOOP('',(#540,#541,#542,#543));
#116=EDGE_LOOP('',(#544,#545,#546,#547));
#117=EDGE_LOOP('',(#548,#549,#550,#551));
#118=EDGE_LOOP('',(#552,#553,#554,#555));
#119=EDGE_LOOP('',(#556,#557,#558,#559));
#120=EDGE_LOOP('',(#560,#561,#562,#563,#564,#565,#566,#567,#568,#569,#570,
#571,#572,#573,#574,#575,#576,#577,#578,#579,#580,#581,#582,#583,#584));
#121=EDGE_LOOP('',(#585));
#122=EDGE_LOOP('',(#586));
#123=EDGE_LOOP('',(#587));
#124=EDGE_LOOP('',(#588));
#125=EDGE_LOOP('',(#589));
#126=EDGE_LOOP('',(#590,#591,#592,#593));
#127=EDGE_LOOP('',(#594,#595,#596,#597));
#128=EDGE_LOOP('',(#598,#599,#600,#601));
#129=EDGE_LOOP('',(#602,#603,#604,#605));
#130=EDGE_LOOP('',(#606,#607,#608,#609));
#131=EDGE_LOOP('',(#610,#611,#612,#613));
#132=EDGE_LOOP('',(#614,#615,#616,#617));
#133=EDGE_LOOP('',(#618,#619,#620,#621));
#134=EDGE_LOOP('',(#622,#623,#624,#625));
#135=EDGE_LOOP('',(#626,#627,#628,#629));
#136=EDGE_LOOP('',(#630,#631,#632,#633));
#137=EDGE_LOOP('',(#634,#635,#636,#637));
#138=EDGE_LOOP('',(#638,#639,#640,#641));
#139=EDGE_LOOP('',(#642,#643,#644,#645));
#140=EDGE_LOOP('',(#646,#647,#648,#649));
#141=EDGE_LOOP('',(#650,#651,#652,#653));
#142=EDGE_LOOP('',(#654,#655,#656,#657));
#143=EDGE_LOOP('',(#658,#659,#660,#661));
#144=EDGE_LOOP('',(#662,#663,#664,#665));
#145=EDGE_LOOP('',(#666,#667,#668,#669));
#146=EDGE_LOOP('',(#670,#671,#672,#673));
#147=EDGE_LOOP('',(#674,#675,#676,#677));
#148=EDGE_LOOP('',(#678,#679,#680,#681));
#149=EDGE_LOOP('',(#682,#683,#684,#685));
#150=EDGE_LOOP('',(#686,#687,#688,#689));
#151=EDGE_LOOP('',(#690,#691,#692,#693));
#152=EDGE_LOOP('',(#694,#695,#696,#697));
#153=EDGE_LOOP('',(#698,#699,#700,#701));
#154=EDGE_LOOP('',(#702,#703,#704,#705));
#155=EDGE_LOOP('',(#706,#707,#708,#709,#710,#711,#712,#713,#714,#715,#716,
#717,#718,#719,#720,#721,#722,#723,#724,#725,#726,#727,#728,#729,#730));
#156=EDGE_LOOP('',(#731));
#157=EDGE_LOOP('',(#732));
#158=EDGE_LOOP('',(#733));
#159=EDGE_LOOP('',(#734));
#160=EDGE_LOOP('',(#735));
#161=LINE('',#1068,#246);
#162=LINE('',#1095,#247);
#163=LINE('',#1099,#248);
#164=LINE('',#1103,#249);
#165=LINE('',#1107,#250);
#166=LINE('',#1111,#251);
#167=LINE('',#1116,#252);
#168=LINE('',#1118,#253);
#169=LINE('',#1120,#254);
#170=LINE('',#1122,#255);
#171=LINE('',#1124,#256);
#172=LINE('',#1126,#257);
#173=LINE('',#1128,#258);
#174=LINE('',#1130,#259);
#175=LINE('',#1132,#260);
#176=LINE('',#1134,#261);
#177=LINE('',#1136,#262);
#178=LINE('',#1138,#263);
#179=LINE('',#1140,#264);
#180=LINE('',#1142,#265);
#181=LINE('',#1144,#266);
#182=LINE('',#1146,#267);
#183=LINE('',#1148,#268);
#184=LINE('',#1150,#269);
#185=LINE('',#1152,#270);
#186=LINE('',#1154,#271);
#187=LINE('',#1156,#272);
#188=LINE('',#1158,#273);
#189=LINE('',#1160,#274);
#190=LINE('',#1162,#275);
#191=LINE('',#1163,#276);
#192=LINE('',#1166,#277);
#193=LINE('',#1170,#278);
#194=LINE('',#1174,#279);
#195=LINE('',#1178,#280);
#196=LINE('',#1182,#281);
#197=LINE('',#1184,#282);
#198=LINE('',#1185,#283);
#199=LINE('',#1188,#284);
#200=LINE('',#1189,#285);
#201=LINE('',#1192,#286);
#202=LINE('',#1193,#287);
#203=LINE('',#1196,#288);
#204=LINE('',#1197,#289);
#205=LINE('',#1200,#290);
#206=LINE('',#1201,#291);
#207=LINE('',#1204,#292);
#208=LINE('',#1205,#293);
#209=LINE('',#1208,#294);
#210=LINE('',#1209,#295);
#211=LINE('',#1212,#296);
#212=LINE('',#1213,#297);
#213=LINE('',#1216,#298);
#214=LINE('',#1217,#299);
#215=LINE('',#1220,#300);
#216=LINE('',#1221,#301);
#217=LINE('',#1224,#302);
#218=LINE('',#1225,#303);
#219=LINE('',#1228,#304);
#220=LINE('',#1229,#305);
#221=LINE('',#1232,#306);
#222=LINE('',#1233,#307);
#223=LINE('',#1236,#308);
#224=LINE('',#1237,#309);
#225=LINE('',#1240,#310);
#226=LINE('',#1241,#311);
#227=LINE('',#1244,#312);
#228=LINE('',#1245,#313);
#229=LINE('',#1248,#314);
#230=LINE('',#1249,#315);
#231=LINE('',#1252,#316);
#232=LINE('',#1253,#317);
#233=LINE('',#1256,#318);
#234=LINE('',#1257,#319);
#235=LINE('',#1260,#320);
#236=LINE('',#1261,#321);
#237=LINE('',#1264,#322);
#238=LINE('',#1265,#323);
#239=LINE('',#1268,#324);
#240=LINE('',#1269,#325);
#241=LINE('',#1272,#326);
#242=LINE('',#1273,#327);
#243=LINE('',#1276,#328);
#244=LINE('',#1277,#329);
#245=LINE('',#1279,#330);
#246=VECTOR('',#858,0.8115);
#247=VECTOR('',#891,2.5);
#248=VECTOR('',#896,2.5);
#249=VECTOR('',#901,2.5);
#250=VECTOR('',#906,2.5);
#251=VECTOR('',#911,2.5);
#252=VECTOR('',#916,10.);
#253=VECTOR('',#917,10.);
#254=VECTOR('',#918,10.);
#255=VECTOR('',#919,10.);
#256=VECTOR('',#920,10.);
#257=VECTOR('',#921,10.);
#258=VECTOR('',#922,10.);
#259=VECTOR('',#923,10.);
#260=VECTOR('',#924,10.);
#261=VECTOR('',#925,10.);
#262=VECTOR('',#926,10.);
#263=VECTOR('',#927,10.);
#264=VECTOR('',#928,10.);
#265=VECTOR('',#929,10.);
#266=VECTOR('',#930,10.);
#267=VECTOR('',#931,10.);
#268=VECTOR('',#932,10.);
#269=VECTOR('',#933,10.);
#270=VECTOR('',#934,10.);
#271=VECTOR('',#935,10.);
#272=VECTOR('',#936,10.);
#273=VECTOR('',#937,10.);
#274=VECTOR('',#938,10.);
#275=VECTOR('',#939,10.);
#276=VECTOR('',#940,10.);
#277=VECTOR('',#943,0.8115);
#278=VECTOR('',#948,0.8115);
#279=VECTOR('',#953,0.8115);
#280=VECTOR('',#958,0.8115);
#281=VECTOR('',#963,10.);
#282=VECTOR('',#964,10.);
#283=VECTOR('',#965,10.);
#284=VECTOR('',#968,10.);
#285=VECTOR('',#969,10.);
#286=VECTOR('',#972,10.);
#287=VECTOR('',#973,10.);
#288=VECTOR('',#976,10.);
#289=VECTOR('',#977,10.);
#290=VECTOR('',#980,10.);
#291=VECTOR('',#981,10.);
#292=VECTOR('',#984,10.);
#293=VECTOR('',#985,10.);
#294=VECTOR('',#988,10.);
#295=VECTOR('',#989,10.);
#296=VECTOR('',#992,10.);
#297=VECTOR('',#993,10.);
#298=VECTOR('',#996,10.);
#299=VECTOR('',#997,10.);
#300=VECTOR('',#1000,10.);
#301=VECTOR('',#1001,10.);
#302=VECTOR('',#1004,10.);
#303=VECTOR('',#1005,10.);
#304=VECTOR('',#1008,10.);
#305=VECTOR('',#1009,10.);
#306=VECTOR('',#1012,10.);
#307=VECTOR('',#1013,10.);
#308=VECTOR('',#1016,10.);
#309=VECTOR('',#1017,10.);
#310=VECTOR('',#1020,10.);
#311=VECTOR('',#1021,10.);
#312=VECTOR('',#1024,10.);
#313=VECTOR('',#1025,10.);
#314=VECTOR('',#1028,10.);
#315=VECTOR('',#1029,10.);
#316=VECTOR('',#1032,10.);
#317=VECTOR('',#1033,10.);
#318=VECTOR('',#1036,10.);
#319=VECTOR('',#1037,10.);
#320=VECTOR('',#1040,10.);
#321=VECTOR('',#1041,10.);
#322=VECTOR('',#1044,10.);
#323=VECTOR('',#1045,10.);
#324=VECTOR('',#1048,10.);
#325=VECTOR('',#1049,10.);
#326=VECTOR('',#1052,10.);
#327=VECTOR('',#1053,10.);
#328=VECTOR('',#1056,10.);
#329=VECTOR('',#1057,10.);
#330=VECTOR('',#1060,10.);
#331=CIRCLE('',#791,0.8115);
#332=CIRCLE('',#792,0.8115);
#333=CIRCLE('',#794,2.5);
#334=CIRCLE('',#796,2.5);
#335=CIRCLE('',#797,0.8115);
#336=CIRCLE('',#799,2.5);
#337=CIRCLE('',#800,0.8115);
#338=CIRCLE('',#802,2.5);
#339=CIRCLE('',#803,0.8115);
#340=CIRCLE('',#805,2.5);
#341=CIRCLE('',#806,0.8115);
#342=CIRCLE('',#808,2.5);
#343=CIRCLE('',#810,2.5);
#344=CIRCLE('',#812,2.5);
#345=CIRCLE('',#814,2.5);
#346=CIRCLE('',#816,2.5);
#347=CIRCLE('',#819,0.8115);
#348=CIRCLE('',#821,0.8115);
#349=CIRCLE('',#823,0.8115);
#350=CIRCLE('',#825,0.8115);
#351=VERTEX_POINT('',#1065);
#352=VERTEX_POINT('',#1067);
#353=VERTEX_POINT('',#1071);
#354=VERTEX_POINT('',#1074);
#355=VERTEX_POINT('',#1076);
#356=VERTEX_POINT('',#1079);
#357=VERTEX_POINT('',#1081);
#358=VERTEX_POINT('',#1084);
#359=VERTEX_POINT('',#1086);
#360=VERTEX_POINT('',#1089);
#361=VERTEX_POINT('',#1091);
#362=VERTEX_POINT('',#1094);
#363=VERTEX_POINT('',#1098);
#364=VERTEX_POINT('',#1102);
#365=VERTEX_POINT('',#1106);
#366=VERTEX_POINT('',#1110);
#367=VERTEX_POINT('',#1114);
#368=VERTEX_POINT('',#1115);
#369=VERTEX_POINT('',#1117);
#370=VERTEX_POINT('',#1119);
#371=VERTEX_POINT('',#1121);
#372=VERTEX_POINT('',#1123);
#373=VERTEX_POINT('',#1125);
#374=VERTEX_POINT('',#1127);
#375=VERTEX_POINT('',#1129);
#376=VERTEX_POINT('',#1131);
#377=VERTEX_POINT('',#1133);
#378=VERTEX_POINT('',#1135);
#379=VERTEX_POINT('',#1137);
#380=VERTEX_POINT('',#1139);
#381=VERTEX_POINT('',#1141);
#382=VERTEX_POINT('',#1143);
#383=VERTEX_POINT('',#1145);
#384=VERTEX_POINT('',#1147);
#385=VERTEX_POINT('',#1149);
#386=VERTEX_POINT('',#1151);
#387=VERTEX_POINT('',#1153);
#388=VERTEX_POINT('',#1155);
#389=VERTEX_POINT('',#1157);
#390=VERTEX_POINT('',#1159);
#391=VERTEX_POINT('',#1161);
#392=VERTEX_POINT('',#1165);
#393=VERTEX_POINT('',#1169);
#394=VERTEX_POINT('',#1173);
#395=VERTEX_POINT('',#1177);
#396=VERTEX_POINT('',#1181);
#397=VERTEX_POINT('',#1183);
#398=VERTEX_POINT('',#1187);
#399=VERTEX_POINT('',#1191);
#400=VERTEX_POINT('',#1195);
#401=VERTEX_POINT('',#1199);
#402=VERTEX_POINT('',#1203);
#403=VERTEX_POINT('',#1207);
#404=VERTEX_POINT('',#1211);
#405=VERTEX_POINT('',#1215);
#406=VERTEX_POINT('',#1219);
#407=VERTEX_POINT('',#1223);
#408=VERTEX_POINT('',#1227);
#409=VERTEX_POINT('',#1231);
#410=VERTEX_POINT('',#1235);
#411=VERTEX_POINT('',#1239);
#412=VERTEX_POINT('',#1243);
#413=VERTEX_POINT('',#1247);
#414=VERTEX_POINT('',#1251);
#415=VERTEX_POINT('',#1255);
#416=VERTEX_POINT('',#1259);
#417=VERTEX_POINT('',#1263);
#418=VERTEX_POINT('',#1267);
#419=VERTEX_POINT('',#1271);
#420=VERTEX_POINT('',#1275);
#421=EDGE_CURVE('',#351,#351,#331,.T.);
#422=EDGE_CURVE('',#351,#352,#161,.T.);
#423=EDGE_CURVE('',#352,#352,#332,.T.);
#424=EDGE_CURVE('',#353,#353,#333,.T.);
#425=EDGE_CURVE('',#354,#354,#334,.T.);
#426=EDGE_CURVE('',#355,#355,#335,.T.);
#427=EDGE_CURVE('',#356,#356,#336,.T.);
#428=EDGE_CURVE('',#357,#357,#337,.T.);
#429=EDGE_CURVE('',#358,#358,#338,.T.);
#430=EDGE_CURVE('',#359,#359,#339,.T.);
#431=EDGE_CURVE('',#360,#360,#340,.T.);
#432=EDGE_CURVE('',#361,#361,#341,.T.);
#433=EDGE_CURVE('',#353,#362,#162,.T.);
#434=EDGE_CURVE('',#362,#362,#342,.T.);
#435=EDGE_CURVE('',#354,#363,#163,.T.);
#436=EDGE_CURVE('',#363,#363,#343,.T.);
#437=EDGE_CURVE('',#356,#364,#164,.T.);
#438=EDGE_CURVE('',#364,#364,#344,.T.);
#439=EDGE_CURVE('',#358,#365,#165,.T.);
#440=EDGE_CURVE('',#365,#365,#345,.T.);
#441=EDGE_CURVE('',#360,#366,#166,.T.);
#442=EDGE_CURVE('',#366,#366,#346,.T.);
#443=EDGE_CURVE('',#367,#368,#167,.T.);
#444=EDGE_CURVE('',#369,#367,#168,.T.);
#445=EDGE_CURVE('',#370,#369,#169,.T.);
#446=EDGE_CURVE('',#371,#370,#170,.T.);
#447=EDGE_CURVE('',#372,#371,#171,.T.);
#448=EDGE_CURVE('',#373,#372,#172,.T.);
#449=EDGE_CURVE('',#374,#373,#173,.T.);
#450=EDGE_CURVE('',#375,#374,#174,.T.);
#451=EDGE_CURVE('',#376,#375,#175,.T.);
#452=EDGE_CURVE('',#377,#376,#176,.T.);
#453=EDGE_CURVE('',#378,#377,#177,.T.);
#454=EDGE_CURVE('',#379,#378,#178,.T.);
#455=EDGE_CURVE('',#380,#379,#179,.T.);
#456=EDGE_CURVE('',#381,#380,#180,.T.);
#457=EDGE_CURVE('',#382,#381,#181,.T.);
#458=EDGE_CURVE('',#383,#382,#182,.T.);
#459=EDGE_CURVE('',#384,#383,#183,.T.);
#460=EDGE_CURVE('',#385,#384,#184,.T.);
#461=EDGE_CURVE('',#386,#385,#185,.T.);
#462=EDGE_CURVE('',#387,#386,#186,.T.);
#463=EDGE_CURVE('',#388,#387,#187,.T.);
#464=EDGE_CURVE('',#389,#388,#188,.T.);
#465=EDGE_CURVE('',#390,#389,#189,.T.);
#466=EDGE_CURVE('',#391,#390,#190,.T.);
#467=EDGE_CURVE('',#368,#391,#191,.T.);
#468=EDGE_CURVE('',#359,#392,#192,.T.);
#469=EDGE_CURVE('',#392,#392,#347,.T.);
#470=EDGE_CURVE('',#361,#393,#193,.T.);
#471=EDGE_CURVE('',#393,#393,#348,.T.);
#472=EDGE_CURVE('',#355,#394,#194,.T.);
#473=EDGE_CURVE('',#394,#394,#349,.T.);
#474=EDGE_CURVE('',#357,#395,#195,.T.);
#475=EDGE_CURVE('',#395,#395,#350,.T.);
#476=EDGE_CURVE('',#367,#396,#196,.T.);
#477=EDGE_CURVE('',#397,#396,#197,.T.);
#478=EDGE_CURVE('',#369,#397,#198,.T.);
#479=EDGE_CURVE('',#398,#397,#199,.T.);
#480=EDGE_CURVE('',#370,#398,#200,.T.);
#481=EDGE_CURVE('',#399,#398,#201,.T.);
#482=EDGE_CURVE('',#371,#399,#202,.T.);
#483=EDGE_CURVE('',#400,#399,#203,.T.);
#484=EDGE_CURVE('',#372,#400,#204,.T.);
#485=EDGE_CURVE('',#401,#400,#205,.T.);
#486=EDGE_CURVE('',#373,#401,#206,.T.);
#487=EDGE_CURVE('',#402,#401,#207,.T.);
#488=EDGE_CURVE('',#374,#402,#208,.T.);
#489=EDGE_CURVE('',#403,#402,#209,.T.);
#490=EDGE_CURVE('',#375,#403,#210,.T.);
#491=EDGE_CURVE('',#404,#403,#211,.T.);
#492=EDGE_CURVE('',#376,#404,#212,.T.);
#493=EDGE_CURVE('',#405,#404,#213,.T.);
#494=EDGE_CURVE('',#377,#405,#214,.T.);
#495=EDGE_CURVE('',#406,#405,#215,.T.);
#496=EDGE_CURVE('',#378,#406,#216,.T.);
#497=EDGE_CURVE('',#407,#406,#217,.T.);
#498=EDGE_CURVE('',#379,#407,#218,.T.);
#499=EDGE_CURVE('',#408,#407,#219,.T.);
#500=EDGE_CURVE('',#380,#408,#220,.T.);
#501=EDGE_CURVE('',#409,#408,#221,.T.);
#502=EDGE_CURVE('',#381,#409,#222,.T.);
#503=EDGE_CURVE('',#410,#409,#223,.T.);
#504=EDGE_CURVE('',#382,#410,#224,.T.);
#505=EDGE_CURVE('',#411,#410,#225,.T.);
#506=EDGE_CURVE('',#383,#411,#226,.T.);
#507=EDGE_CURVE('',#412,#411,#227,.T.);
#508=EDGE_CURVE('',#384,#412,#228,.T.);
#509=EDGE_CURVE('',#413,#412,#229,.T.);
#510=EDGE_CURVE('',#385,#413,#230,.T.);
#511=EDGE_CURVE('',#414,#413,#231,.T.);
#512=EDGE_CURVE('',#386,#414,#232,.T.);
#513=EDGE_CURVE('',#415,#414,#233,.T.);
#514=EDGE_CURVE('',#387,#415,#234,.T.);
#515=EDGE_CURVE('',#416,#415,#235,.T.);
#516=EDGE_CURVE('',#388,#416,#236,.T.);
#517=EDGE_CURVE('',#417,#416,#237,.T.);
#518=EDGE_CURVE('',#389,#417,#238,.T.);
#519=EDGE_CURVE('',#418,#417,#239,.T.);
#520=EDGE_CURVE('',#390,#418,#240,.T.);
#521=EDGE_CURVE('',#419,#418,#241,.T.);
#522=EDGE_CURVE('',#391,#419,#242,.T.);
#523=EDGE_CURVE('',#420,#419,#243,.T.);
#524=EDGE_CURVE('',#368,#420,#244,.T.);
#525=EDGE_CURVE('',#396,#420,#245,.T.);
#526=ORIENTED_EDGE('',*,*,#421,.F.);
#527=ORIENTED_EDGE('',*,*,#422,.T.);
#528=ORIENTED_EDGE('',*,*,#423,.F.);
#529=ORIENTED_EDGE('',*,*,#422,.F.);
#530=ORIENTED_EDGE('',*,*,#424,.T.);
#531=ORIENTED_EDGE('',*,*,#421,.T.);
#532=ORIENTED_EDGE('',*,*,#425,.T.);
#533=ORIENTED_EDGE('',*,*,#426,.T.);
#534=ORIENTED_EDGE('',*,*,#427,.T.);
#535=ORIENTED_EDGE('',*,*,#428,.T.);
#536=ORIENTED_EDGE('',*,*,#429,.T.);
#537=ORIENTED_EDGE('',*,*,#430,.T.);
#538=ORIENTED_EDGE('',*,*,#431,.T.);
#539=ORIENTED_EDGE('',*,*,#432,.T.);
#540=ORIENTED_EDGE('',*,*,#424,.F.);
#541=ORIENTED_EDGE('',*,*,#433,.T.);
#542=ORIENTED_EDGE('',*,*,#434,.F.);
#543=ORIENTED_EDGE('',*,*,#433,.F.);
#544=ORIENTED_EDGE('',*,*,#425,.F.);
#545=ORIENTED_EDGE('',*,*,#435,.T.);
#546=ORIENTED_EDGE('',*,*,#436,.F.);
#547=ORIENTED_EDGE('',*,*,#435,.F.);
#548=ORIENTED_EDGE('',*,*,#427,.F.);
#549=ORIENTED_EDGE('',*,*,#437,.T.);
#550=ORIENTED_EDGE('',*,*,#438,.F.);
#551=ORIENTED_EDGE('',*,*,#437,.F.);
#552=ORIENTED_EDGE('',*,*,#429,.F.);
#553=ORIENTED_EDGE('',*,*,#439,.T.);
#554=ORIENTED_EDGE('',*,*,#440,.F.);
#555=ORIENTED_EDGE('',*,*,#439,.F.);
#556=ORIENTED_EDGE('',*,*,#431,.F.);
#557=ORIENTED_EDGE('',*,*,#441,.T.);
#558=ORIENTED_EDGE('',*,*,#442,.F.);
#559=ORIENTED_EDGE('',*,*,#441,.F.);
#560=ORIENTED_EDGE('',*,*,#443,.F.);
#561=ORIENTED_EDGE('',*,*,#444,.F.);
#562=ORIENTED_EDGE('',*,*,#445,.F.);
#563=ORIENTED_EDGE('',*,*,#446,.F.);
#564=ORIENTED_EDGE('',*,*,#447,.F.);
#565=ORIENTED_EDGE('',*,*,#448,.F.);
#566=ORIENTED_EDGE('',*,*,#449,.F.);
#567=ORIENTED_EDGE('',*,*,#450,.F.);
#568=ORIENTED_EDGE('',*,*,#451,.F.);
#569=ORIENTED_EDGE('',*,*,#452,.F.);
#570=ORIENTED_EDGE('',*,*,#453,.F.);
#571=ORIENTED_EDGE('',*,*,#454,.F.);
#572=ORIENTED_EDGE('',*,*,#455,.F.);
#573=ORIENTED_EDGE('',*,*,#456,.F.);
#574=ORIENTED_EDGE('',*,*,#457,.F.);
#575=ORIENTED_EDGE('',*,*,#458,.F.);
#576=ORIENTED_EDGE('',*,*,#459,.F.);
#577=ORIENTED_EDGE('',*,*,#460,.F.);
#578=ORIENTED_EDGE('',*,*,#461,.F.);
#579=ORIENTED_EDGE('',*,*,#462,.F.);
#580=ORIENTED_EDGE('',*,*,#463,.F.);
#581=ORIENTED_EDGE('',*,*,#464,.F.);
#582=ORIENTED_EDGE('',*,*,#465,.F.);
#583=ORIENTED_EDGE('',*,*,#466,.F.);
#584=ORIENTED_EDGE('',*,*,#467,.F.);
#585=ORIENTED_EDGE('',*,*,#442,.T.);
#586=ORIENTED_EDGE('',*,*,#440,.T.);
#587=ORIENTED_EDGE('',*,*,#438,.T.);
#588=ORIENTED_EDGE('',*,*,#436,.T.);
#589=ORIENTED_EDGE('',*,*,#434,.T.);
#590=ORIENTED_EDGE('',*,*,#430,.F.);
#591=ORIENTED_EDGE('',*,*,#468,.T.);
#592=ORIENTED_EDGE('',*,*,#469,.F.);
#593=ORIENTED_EDGE('',*,*,#468,.F.);
#594=ORIENTED_EDGE('',*,*,#432,.F.);
#595=ORIENTED_EDGE('',*,*,#470,.T.);
#596=ORIENTED_EDGE('',*,*,#471,.F.);
#597=ORIENTED_EDGE('',*,*,#470,.F.);
#598=ORIENTED_EDGE('',*,*,#426,.F.);
#599=ORIENTED_EDGE('',*,*,#472,.T.);
#600=ORIENTED_EDGE('',*,*,#473,.F.);
#601=ORIENTED_EDGE('',*,*,#472,.F.);
#602=ORIENTED_EDGE('',*,*,#428,.F.);
#603=ORIENTED_EDGE('',*,*,#474,.T.);
#604=ORIENTED_EDGE('',*,*,#475,.F.);
#605=ORIENTED_EDGE('',*,*,#474,.F.);
#606=ORIENTED_EDGE('',*,*,#444,.T.);
#607=ORIENTED_EDGE('',*,*,#476,.T.);
#608=ORIENTED_EDGE('',*,*,#477,.F.);
#609=ORIENTED_EDGE('',*,*,#478,.F.);
#610=ORIENTED_EDGE('',*,*,#445,.T.);
#611=ORIENTED_EDGE('',*,*,#478,.T.);
#612=ORIENTED_EDGE('',*,*,#479,.F.);
#613=ORIENTED_EDGE('',*,*,#480,.F.);
#614=ORIENTED_EDGE('',*,*,#446,.T.);
#615=ORIENTED_EDGE('',*,*,#480,.T.);
#616=ORIENTED_EDGE('',*,*,#481,.F.);
#617=ORIENTED_EDGE('',*,*,#482,.F.);
#618=ORIENTED_EDGE('',*,*,#447,.T.);
#619=ORIENTED_EDGE('',*,*,#482,.T.);
#620=ORIENTED_EDGE('',*,*,#483,.F.);
#621=ORIENTED_EDGE('',*,*,#484,.F.);
#622=ORIENTED_EDGE('',*,*,#448,.T.);
#623=ORIENTED_EDGE('',*,*,#484,.T.);
#624=ORIENTED_EDGE('',*,*,#485,.F.);
#625=ORIENTED_EDGE('',*,*,#486,.F.);
#626=ORIENTED_EDGE('',*,*,#449,.T.);
#627=ORIENTED_EDGE('',*,*,#486,.T.);
#628=ORIENTED_EDGE('',*,*,#487,.F.);
#629=ORIENTED_EDGE('',*,*,#488,.F.);
#630=ORIENTED_EDGE('',*,*,#450,.T.);
#631=ORIENTED_EDGE('',*,*,#488,.T.);
#632=ORIENTED_EDGE('',*,*,#489,.F.);
#633=ORIENTED_EDGE('',*,*,#490,.F.);
#634=ORIENTED_EDGE('',*,*,#451,.T.);
#635=ORIENTED_EDGE('',*,*,#490,.T.);
#636=ORIENTED_EDGE('',*,*,#491,.F.);
#637=ORIENTED_EDGE('',*,*,#492,.F.);
#638=ORIENTED_EDGE('',*,*,#452,.T.);
#639=ORIENTED_EDGE('',*,*,#492,.T.);
#640=ORIENTED_EDGE('',*,*,#493,.F.);
#641=ORIENTED_EDGE('',*,*,#494,.F.);
#642=ORIENTED_EDGE('',*,*,#453,.T.);
#643=ORIENTED_EDGE('',*,*,#494,.T.);
#644=ORIENTED_EDGE('',*,*,#495,.F.);
#645=ORIENTED_EDGE('',*,*,#496,.F.);
#646=ORIENTED_EDGE('',*,*,#454,.T.);
#647=ORIENTED_EDGE('',*,*,#496,.T.);
#648=ORIENTED_EDGE('',*,*,#497,.F.);
#649=ORIENTED_EDGE('',*,*,#498,.F.);
#650=ORIENTED_EDGE('',*,*,#455,.T.);
#651=ORIENTED_EDGE('',*,*,#498,.T.);
#652=ORIENTED_EDGE('',*,*,#499,.F.);
#653=ORIENTED_EDGE('',*,*,#500,.F.);
#654=ORIENTED_EDGE('',*,*,#456,.T.);
#655=ORIENTED_EDGE('',*,*,#500,.T.);
#656=ORIENTED_EDGE('',*,*,#501,.F.);
#657=ORIENTED_EDGE('',*,*,#502,.F.);
#658=ORIENTED_EDGE('',*,*,#457,.T.);
#659=ORIENTED_EDGE('',*,*,#502,.T.);
#660=ORIENTED_EDGE('',*,*,#503,.F.);
#661=ORIENTED_EDGE('',*,*,#504,.F.);
#662=ORIENTED_EDGE('',*,*,#458,.T.);
#663=ORIENTED_EDGE('',*,*,#504,.T.);
#664=ORIENTED_EDGE('',*,*,#505,.F.);
#665=ORIENTED_EDGE('',*,*,#506,.F.);
#666=ORIENTED_EDGE('',*,*,#459,.T.);
#667=ORIENTED_EDGE('',*,*,#506,.T.);
#668=ORIENTED_EDGE('',*,*,#507,.F.);
#669=ORIENTED_EDGE('',*,*,#508,.F.);
#670=ORIENTED_EDGE('',*,*,#460,.T.);
#671=ORIENTED_EDGE('',*,*,#508,.T.);
#672=ORIENTED_EDGE('',*,*,#509,.F.);
#673=ORIENTED_EDGE('',*,*,#510,.F.);
#674=ORIENTED_EDGE('',*,*,#461,.T.);
#675=ORIENTED_EDGE('',*,*,#510,.T.);
#676=ORIENTED_EDGE('',*,*,#511,.F.);
#677=ORIENTED_EDGE('',*,*,#512,.F.);
#678=ORIENTED_EDGE('',*,*,#462,.T.);
#679=ORIENTED_EDGE('',*,*,#512,.T.);
#680=ORIENTED_EDGE('',*,*,#513,.F.);
#681=ORIENTED_EDGE('',*,*,#514,.F.);
#682=ORIENTED_EDGE('',*,*,#463,.T.);
#683=ORIENTED_EDGE('',*,*,#514,.T.);
#684=ORIENTED_EDGE('',*,*,#515,.F.);
#685=ORIENTED_EDGE('',*,*,#516,.F.);
#686=ORIENTED_EDGE('',*,*,#464,.T.);
#687=ORIENTED_EDGE('',*,*,#516,.T.);
#688=ORIENTED_EDGE('',*,*,#517,.F.);
#689=ORIENTED_EDGE('',*,*,#518,.F.);
#690=ORIENTED_EDGE('',*,*,#465,.T.);
#691=ORIENTED_EDGE('',*,*,#518,.T.);
#692=ORIENTED_EDGE('',*,*,#519,.F.);
#693=ORIENTED_EDGE('',*,*,#520,.F.);
#694=ORIENTED_EDGE('',*,*,#466,.T.);
#695=ORIENTED_EDGE('',*,*,#520,.T.);
#696=ORIENTED_EDGE('',*,*,#521,.F.);
#697=ORIENTED_EDGE('',*,*,#522,.F.);
#698=ORIENTED_EDGE('',*,*,#467,.T.);
#699=ORIENTED_EDGE('',*,*,#522,.T.);
#700=ORIENTED_EDGE('',*,*,#523,.F.);
#701=ORIENTED_EDGE('',*,*,#524,.F.);
#702=ORIENTED_EDGE('',*,*,#443,.T.);
#703=ORIENTED_EDGE('',*,*,#524,.T.);
#704=ORIENTED_EDGE('',*,*,#525,.F.);
#705=ORIENTED_EDGE('',*,*,#476,.F.);
#706=ORIENTED_EDGE('',*,*,#525,.T.);
#707=ORIENTED_EDGE('',*,*,#523,.T.);
#708=ORIENTED_EDGE('',*,*,#521,.T.);
#709=ORIENTED_EDGE('',*,*,#519,.T.);
#710=ORIENTED_EDGE('',*,*,#517,.T.);
#711=ORIENTED_EDGE('',*,*,#515,.T.);
#712=ORIENTED_EDGE('',*,*,#513,.T.);
#713=ORIENTED_EDGE('',*,*,#511,.T.);
#714=ORIENTED_EDGE('',*,*,#509,.T.);
#715=ORIENTED_EDGE('',*,*,#507,.T.);
#716=ORIENTED_EDGE('',*,*,#505,.T.);
#717=ORIENTED_EDGE('',*,*,#503,.T.);
#718=ORIENTED_EDGE('',*,*,#501,.T.);
#719=ORIENTED_EDGE('',*,*,#499,.T.);
#720=ORIENTED_EDGE('',*,*,#497,.T.);
#721=ORIENTED_EDGE('',*,*,#495,.T.);
#722=ORIENTED_EDGE('',*,*,#493,.T.);
#723=ORIENTED_EDGE('',*,*,#491,.T.);
#724=ORIENTED_EDGE('',*,*,#489,.T.);
#725=ORIENTED_EDGE('',*,*,#487,.T.);
#726=ORIENTED_EDGE('',*,*,#485,.T.);
#727=ORIENTED_EDGE('',*,*,#483,.T.);
#728=ORIENTED_EDGE('',*,*,#481,.T.);
#729=ORIENTED_EDGE('',*,*,#479,.T.);
#730=ORIENTED_EDGE('',*,*,#477,.T.);
#731=ORIENTED_EDGE('',*,*,#475,.T.);
#732=ORIENTED_EDGE('',*,*,#473,.T.);
#733=ORIENTED_EDGE('',*,*,#471,.T.);
#734=ORIENTED_EDGE('',*,*,#469,.T.);
#735=ORIENTED_EDGE('',*,*,#423,.T.);
#736=CYLINDRICAL_SURFACE('',#790,0.8115);
#737=CYLINDRICAL_SURFACE('',#807,2.5);
#738=CYLINDRICAL_SURFACE('',#809,2.5);
#739=CYLINDRICAL_SURFACE('',#811,2.5);
#740=CYLINDRICAL_SURFACE('',#813,2.5);
#741=CYLINDRICAL_SURFACE('',#815,2.5);
#742=CYLINDRICAL_SURFACE('',#818,0.8115);
#743=CYLINDRICAL_SURFACE('',#820,0.8115);
#744=CYLINDRICAL_SURFACE('',#822,0.8115);
#745=CYLINDRICAL_SURFACE('',#824,0.8115);
#746=ADVANCED_FACE('',(#62),#736,.F.);
#747=ADVANCED_FACE('',(#63,#15),#30,.F.);
#748=ADVANCED_FACE('',(#64,#16),#31,.F.);
#749=ADVANCED_FACE('',(#65,#17),#32,.F.);
#750=ADVANCED_FACE('',(#66,#18),#33,.F.);
#751=ADVANCED_FACE('',(#67,#19),#34,.F.);
#752=ADVANCED_FACE('',(#68),#737,.T.);
#753=ADVANCED_FACE('',(#69),#738,.T.);
#754=ADVANCED_FACE('',(#70),#739,.T.);
#755=ADVANCED_FACE('',(#71),#740,.T.);
#756=ADVANCED_FACE('',(#72),#741,.T.);
#757=ADVANCED_FACE('',(#73,#20,#21,#22,#23,#24),#35,.F.);
#758=ADVANCED_FACE('',(#74),#742,.F.);
#759=ADVANCED_FACE('',(#75),#743,.F.);
#760=ADVANCED_FACE('',(#76),#744,.F.);
#761=ADVANCED_FACE('',(#77),#745,.F.);
#762=ADVANCED_FACE('',(#78),#36,.T.);
#763=ADVANCED_FACE('',(#79),#37,.T.);
#764=ADVANCED_FACE('',(#80),#38,.T.);
#765=ADVANCED_FACE('',(#81),#39,.T.);
#766=ADVANCED_FACE('',(#82),#40,.T.);
#767=ADVANCED_FACE('',(#83),#41,.T.);
#768=ADVANCED_FACE('',(#84),#42,.T.);
#769=ADVANCED_FACE('',(#85),#43,.T.);
#770=ADVANCED_FACE('',(#86),#44,.T.);
#771=ADVANCED_FACE('',(#87),#45,.T.);
#772=ADVANCED_FACE('',(#88),#46,.T.);
#773=ADVANCED_FACE('',(#89),#47,.T.);
#774=ADVANCED_FACE('',(#90),#48,.T.);
#775=ADVANCED_FACE('',(#91),#49,.T.);
#776=ADVANCED_FACE('',(#92),#50,.T.);
#777=ADVANCED_FACE('',(#93),#51,.T.);
#778=ADVANCED_FACE('',(#94),#52,.T.);
#779=ADVANCED_FACE('',(#95),#53,.T.);
#780=ADVANCED_FACE('',(#96),#54,.T.);
#781=ADVANCED_FACE('',(#97),#55,.T.);
#782=ADVANCED_FACE('',(#98),#56,.T.);
#783=ADVANCED_FACE('',(#99),#57,.T.);
#784=ADVANCED_FACE('',(#100),#58,.T.);
#785=ADVANCED_FACE('',(#101),#59,.T.);
#786=ADVANCED_FACE('',(#102),#60,.T.);
#787=ADVANCED_FACE('',(#103,#25,#26,#27,#28,#29),#61,.T.);
#788=CLOSED_SHELL('',(#746,#747,#748,#749,#750,#751,#752,#753,#754,#755,
#756,#757,#758,#759,#760,#761,#762,#763,#764,#765,#766,#767,#768,#769,#770,
#771,#772,#773,#774,#775,#776,#777,#778,#779,#780,#781,#782,#783,#784,#785,
#786,#787));
#789=AXIS2_PLACEMENT_3D('',#1063,#852,#853);
#790=AXIS2_PLACEMENT_3D('',#1064,#854,#855);
#791=AXIS2_PLACEMENT_3D('',#1066,#856,#857);
#792=AXIS2_PLACEMENT_3D('',#1069,#859,#860);
#793=AXIS2_PLACEMENT_3D('',#1070,#861,#862);
#794=AXIS2_PLACEMENT_3D('',#1072,#863,#864);
#795=AXIS2_PLACEMENT_3D('',#1073,#865,#866);
#796=AXIS2_PLACEMENT_3D('',#1075,#867,#868);
#797=AXIS2_PLACEMENT_3D('',#1077,#869,#870);
#798=AXIS2_PLACEMENT_3D('',#1078,#871,#872);
#799=AXIS2_PLACEMENT_3D('',#1080,#873,#874);
#800=AXIS2_PLACEMENT_3D('',#1082,#875,#876);
#801=AXIS2_PLACEMENT_3D('',#1083,#877,#878);
#802=AXIS2_PLACEMENT_3D('',#1085,#879,#880);
#803=AXIS2_PLACEMENT_3D('',#1087,#881,#882);
#804=AXIS2_PLACEMENT_3D('',#1088,#883,#884);
#805=AXIS2_PLACEMENT_3D('',#1090,#885,#886);
#806=AXIS2_PLACEMENT_3D('',#1092,#887,#888);
#807=AXIS2_PLACEMENT_3D('',#1093,#889,#890);
#808=AXIS2_PLACEMENT_3D('',#1096,#892,#893);
#809=AXIS2_PLACEMENT_3D('',#1097,#894,#895);
#810=AXIS2_PLACEMENT_3D('',#1100,#897,#898);
#811=AXIS2_PLACEMENT_3D('',#1101,#899,#900);
#812=AXIS2_PLACEMENT_3D('',#1104,#902,#903);
#813=AXIS2_PLACEMENT_3D('',#1105,#904,#905);
#814=AXIS2_PLACEMENT_3D('',#1108,#907,#908);
#815=AXIS2_PLACEMENT_3D('',#1109,#909,#910);
#816=AXIS2_PLACEMENT_3D('',#1112,#912,#913);
#817=AXIS2_PLACEMENT_3D('',#1113,#914,#915);
#818=AXIS2_PLACEMENT_3D('',#1164,#941,#942);
#819=AXIS2_PLACEMENT_3D('',#1167,#944,#945);
#820=AXIS2_PLACEMENT_3D('',#1168,#946,#947);
#821=AXIS2_PLACEMENT_3D('',#1171,#949,#950);
#822=AXIS2_PLACEMENT_3D('',#1172,#951,#952);
#823=AXIS2_PLACEMENT_3D('',#1175,#954,#955);
#824=AXIS2_PLACEMENT_3D('',#1176,#956,#957);
#825=AXIS2_PLACEMENT_3D('',#1179,#959,#960);
#826=AXIS2_PLACEMENT_3D('',#1180,#961,#962);
#827=AXIS2_PLACEMENT_3D('',#1186,#966,#967);
#828=AXIS2_PLACEMENT_3D('',#1190,#970,#971);
#829=AXIS2_PLACEMENT_3D('',#1194,#974,#975);
#830=AXIS2_PLACEMENT_3D('',#1198,#978,#979);
#831=AXIS2_PLACEMENT_3D('',#1202,#982,#983);
#832=AXIS2_PLACEMENT_3D('',#1206,#986,#987);
#833=AXIS2_PLACEMENT_3D('',#1210,#990,#991);
#834=AXIS2_PLACEMENT_3D('',#1214,#994,#995);
#835=AXIS2_PLACEMENT_3D('',#1218,#998,#999);
#836=AXIS2_PLACEMENT_3D('',#1222,#1002,#1003);
#837=AXIS2_PLACEMENT_3D('',#1226,#1006,#1007);
#838=AXIS2_PLACEMENT_3D('',#1230,#1010,#1011);
#839=AXIS2_PLACEMENT_3D('',#1234,#1014,#1015);
#840=AXIS2_PLACEMENT_3D('',#1238,#1018,#1019);
#841=AXIS2_PLACEMENT_3D('',#1242,#1022,#1023);
#842=AXIS2_PLACEMENT_3D('',#1246,#1026,#1027);
#843=AXIS2_PLACEMENT_3D('',#1250,#1030,#1031);
#844=AXIS2_PLACEMENT_3D('',#1254,#1034,#1035);
#845=AXIS2_PLACEMENT_3D('',#1258,#1038,#1039);
#846=AXIS2_PLACEMENT_3D('',#1262,#1042,#1043);
#847=AXIS2_PLACEMENT_3D('',#1266,#1046,#1047);
#848=AXIS2_PLACEMENT_3D('',#1270,#1050,#1051);
#849=AXIS2_PLACEMENT_3D('',#1274,#1054,#1055);
#850=AXIS2_PLACEMENT_3D('',#1278,#1058,#1059);
#851=AXIS2_PLACEMENT_3D('',#1280,#1061,#1062);
#852=DIRECTION('axis',(0.,0.,1.));
#853=DIRECTION('refdir',(1.,0.,0.));
#854=DIRECTION('center_axis',(0.,0.,-1.));
#855=DIRECTION('ref_axis',(1.,0.,0.));
#856=DIRECTION('center_axis',(0.,0.,-1.));
#857=DIRECTION('ref_axis',(-1.,0.,0.));
#858=DIRECTION('',(0.,0.,-1.));
#859=DIRECTION('center_axis',(0.,0.,1.));
#860=DIRECTION('ref_axis',(1.,0.,0.));
#861=DIRECTION('center_axis',(0.,0.,-1.));
#862=DIRECTION('ref_axis',(-1.,0.,0.));
#863=DIRECTION('center_axis',(0.,0.,1.));
#864=DIRECTION('ref_axis',(-1.,0.,0.));
#865=DIRECTION('center_axis',(0.,0.,-1.));
#866=DIRECTION('ref_axis',(-1.,0.,0.));
#867=DIRECTION('center_axis',(0.,0.,1.));
#868=DIRECTION('ref_axis',(-1.,0.,0.));
#869=DIRECTION('center_axis',(0.,0.,-1.));
#870=DIRECTION('ref_axis',(-1.,0.,0.));
#871=DIRECTION('center_axis',(0.,0.,-1.));
#872=DIRECTION('ref_axis',(-1.,0.,0.));
#873=DIRECTION('center_axis',(0.,0.,1.));
#874=DIRECTION('ref_axis',(-1.,0.,0.));
#875=DIRECTION('center_axis',(0.,0.,-1.));
#876=DIRECTION('ref_axis',(-1.,0.,0.));
#877=DIRECTION('center_axis',(0.,0.,-1.));
#878=DIRECTION('ref_axis',(-1.,0.,0.));
#879=DIRECTION('center_axis',(0.,0.,1.));
#880=DIRECTION('ref_axis',(-1.,0.,0.));
#881=DIRECTION('center_axis',(0.,0.,-1.));
#882=DIRECTION('ref_axis',(-1.,0.,0.));
#883=DIRECTION('center_axis',(0.,0.,-1.));
#884=DIRECTION('ref_axis',(-1.,0.,0.));
#885=DIRECTION('center_axis',(0.,0.,1.));
#886=DIRECTION('ref_axis',(-1.,0.,0.));
#887=DIRECTION('center_axis',(0.,0.,-1.));
#888=DIRECTION('ref_axis',(-1.,0.,0.));
#889=DIRECTION('center_axis',(0.,0.,1.));
#890=DIRECTION('ref_axis',(-1.,0.,0.));
#891=DIRECTION('',(0.,0.,-1.));
#892=DIRECTION('center_axis',(0.,0.,-1.));
#893=DIRECTION('ref_axis',(-1.,0.,0.));
#894=DIRECTION('center_axis',(0.,0.,1.));
#895=DIRECTION('ref_axis',(-1.,0.,0.));
#896=DIRECTION('',(0.,0.,-1.));
#897=DIRECTION('center_axis',(0.,0.,-1.));
#898=DIRECTION('ref_axis',(-1.,0.,0.));
#899=DIRECTION('center_axis',(0.,0.,1.));
#900=DIRECTION('ref_axis',(-1.,0.,0.));
#901=DIRECTION('',(0.,0.,-1.));
#902=DIRECTION('center_axis',(0.,0.,-1.));
#903=DIRECTION('ref_axis',(-1.,0.,0.));
#904=DIRECTION('center_axis',(0.,0.,1.));
#905=DIRECTION('ref_axis',(-1.,0.,0.));
#906=DIRECTION('',(0.,0.,-1.));
#907=DIRECTION('center_axis',(0.,0.,-1.));
#908=DIRECTION('ref_axis',(-1.,0.,0.));
#909=DIRECTION('center_axis',(0.,0.,1.));
#910=DIRECTION('ref_axis',(-1.,0.,0.));
#911=DIRECTION('',(0.,0.,-1.));
#912=DIRECTION('center_axis',(0.,0.,-1.));
#913=DIRECTION('ref_axis',(-1.,0.,0.));
#914=DIRECTION('center_axis',(0.,0.,-1.));
#915=DIRECTION('ref_axis',(-1.,0.,0.));
#916=DIRECTION('',(1.,0.,0.));
#917=DIRECTION('',(0.,1.,0.));
#918=DIRECTION('',(1.,0.,0.));
#919=DIRECTION('',(0.,1.,0.));
#920=DIRECTION('',(-1.,0.,0.));
#921=DIRECTION('',(0.,-1.,0.));
#922=DIRECTION('',(-1.,0.,0.));
#923=DIRECTION('',(0.,-1.,0.));
#924=DIRECTION('',(-1.,0.,0.));
#925=DIRECTION('',(0.,1.,0.));
#926=DIRECTION('',(-1.,-1.26552108980649E-13,0.));
#927=DIRECTION('',(0.342020177951986,0.939692608182959,0.));
#928=DIRECTION('',(-0.939692640091876,0.342020090282954,0.));
#929=DIRECTION('',(0.342020136953118,0.939692623105327,0.));
#930=DIRECTION('',(-0.939692618525909,0.342020149534966,0.));
#931=DIRECTION('',(-0.342020127538931,-0.939692626531811,0.));
#932=DIRECTION('',(-0.939692587538931,0.342020234670974,0.));
#933=DIRECTION('',(-0.342020149534967,-0.939692618525909,0.));
#934=DIRECTION('',(0.,-1.,0.));
#935=DIRECTION('',(1.,0.,0.));
#936=DIRECTION('',(0.,-1.,0.));
#937=DIRECTION('',(1.,0.,0.));
#938=DIRECTION('',(0.,-1.,0.));
#939=DIRECTION('',(1.,0.,0.));
#940=DIRECTION('',(0.,1.,0.));
#941=DIRECTION('center_axis',(0.,0.,-1.));
#942=DIRECTION('ref_axis',(1.,0.,0.));
#943=DIRECTION('',(0.,0.,-1.));
#944=DIRECTION('center_axis',(0.,0.,1.));
#945=DIRECTION('ref_axis',(1.,0.,0.));
#946=DIRECTION('center_axis',(0.,0.,-1.));
#947=DIRECTION('ref_axis',(1.,0.,0.));
#948=DIRECTION('',(0.,0.,-1.));
#949=DIRECTION('center_axis',(0.,0.,1.));
#950=DIRECTION('ref_axis',(1.,0.,0.));
#951=DIRECTION('center_axis',(0.,0.,-1.));
#952=DIRECTION('ref_axis',(1.,0.,0.));
#953=DIRECTION('',(0.,0.,-1.));
#954=DIRECTION('center_axis',(0.,0.,1.));
#955=DIRECTION('ref_axis',(1.,0.,0.));
#956=DIRECTION('center_axis',(0.,0.,-1.));
#957=DIRECTION('ref_axis',(1.,0.,0.));
#958=DIRECTION('',(0.,0.,-1.));
#959=DIRECTION('center_axis',(0.,0.,1.));
#960=DIRECTION('ref_axis',(1.,0.,0.));
#961=DIRECTION('center_axis',(-1.,0.,0.));
#962=DIRECTION('ref_axis',(0.,1.,0.));
#963=DIRECTION('',(0.,0.,-1.));
#964=DIRECTION('',(0.,1.,0.));
#965=DIRECTION('',(0.,0.,-1.));
#966=DIRECTION('center_axis',(0.,1.,0.));
#967=DIRECTION('ref_axis',(1.,0.,0.));
#968=DIRECTION('',(1.,0.,0.));
#969=DIRECTION('',(0.,0.,-1.));
#970=DIRECTION('center_axis',(-1.,0.,0.));
#971=DIRECTION('ref_axis',(0.,1.,0.));
#972=DIRECTION('',(0.,1.,0.));
#973=DIRECTION('',(0.,0.,-1.));
#974=DIRECTION('center_axis',(0.,-1.,0.));
#975=DIRECTION('ref_axis',(-1.,0.,0.));
#976=DIRECTION('',(-1.,0.,0.));
#977=DIRECTION('',(0.,0.,-1.));
#978=DIRECTION('center_axis',(1.,0.,0.));
#979=DIRECTION('ref_axis',(0.,-1.,0.));
#980=DIRECTION('',(0.,-1.,0.));
#981=DIRECTION('',(0.,0.,-1.));
#982=DIRECTION('center_axis',(0.,-1.,0.));
#983=DIRECTION('ref_axis',(-1.,0.,0.));
#984=DIRECTION('',(-1.,0.,0.));
#985=DIRECTION('',(0.,0.,-1.));
#986=DIRECTION('center_axis',(1.,0.,0.));
#987=DIRECTION('ref_axis',(0.,-1.,0.));
#988=DIRECTION('',(0.,-1.,0.));
#989=DIRECTION('',(0.,0.,-1.));
#990=DIRECTION('center_axis',(0.,-1.,0.));
#991=DIRECTION('ref_axis',(-1.,0.,0.));
#992=DIRECTION('',(-1.,0.,0.));
#993=DIRECTION('',(0.,0.,-1.));
#994=DIRECTION('center_axis',(-1.,0.,0.));
#995=DIRECTION('ref_axis',(0.,1.,0.));
#996=DIRECTION('',(0.,1.,0.));
#997=DIRECTION('',(0.,0.,-1.));
#998=DIRECTION('center_axis',(1.26552108980649E-13,-1.,0.));
#999=DIRECTION('ref_axis',(-1.,-1.26552108980649E-13,0.));
#1000=DIRECTION('',(-1.,-1.26552108980649E-13,0.));
#1001=DIRECTION('',(0.,0.,-1.));
#1002=DIRECTION('center_axis',(-0.939692608182959,0.342020177951986,0.));
#1003=DIRECTION('ref_axis',(0.342020177951986,0.939692608182959,0.));
#1004=DIRECTION('',(0.342020177951986,0.939692608182959,0.));
#1005=DIRECTION('',(0.,0.,-1.));
#1006=DIRECTION('center_axis',(-0.342020090282954,-0.939692640091876,0.));
#1007=DIRECTION('ref_axis',(-0.939692640091876,0.342020090282954,0.));
#1008=DIRECTION('',(-0.939692640091876,0.342020090282954,0.));
#1009=DIRECTION('',(0.,0.,-1.));
#1010=DIRECTION('center_axis',(-0.939692623105327,0.342020136953118,0.));
#1011=DIRECTION('ref_axis',(0.342020136953118,0.939692623105327,0.));
#1012=DIRECTION('',(0.342020136953118,0.939692623105327,0.));
#1013=DIRECTION('',(0.,0.,-1.));
#1014=DIRECTION('center_axis',(-0.342020149534966,-0.939692618525909,0.));
#1015=DIRECTION('ref_axis',(-0.939692618525909,0.342020149534966,0.));
#1016=DIRECTION('',(-0.939692618525909,0.342020149534966,0.));
#1017=DIRECTION('',(0.,0.,-1.));
#1018=DIRECTION('center_axis',(0.939692626531811,-0.342020127538931,0.));
#1019=DIRECTION('ref_axis',(-0.342020127538931,-0.939692626531811,0.));
#1020=DIRECTION('',(-0.342020127538931,-0.939692626531811,0.));
#1021=DIRECTION('',(0.,0.,-1.));
#1022=DIRECTION('center_axis',(-0.342020234670974,-0.939692587538931,0.));
#1023=DIRECTION('ref_axis',(-0.939692587538931,0.342020234670974,0.));
#1024=DIRECTION('',(-0.939692587538931,0.342020234670974,0.));
#1025=DIRECTION('',(0.,0.,-1.));
#1026=DIRECTION('center_axis',(0.939692618525909,-0.342020149534967,0.));
#1027=DIRECTION('ref_axis',(-0.342020149534967,-0.939692618525909,0.));
#1028=DIRECTION('',(-0.342020149534967,-0.939692618525909,0.));
#1029=DIRECTION('',(0.,0.,-1.));
#1030=DIRECTION('center_axis',(1.,0.,0.));
#1031=DIRECTION('ref_axis',(0.,-1.,0.));
#1032=DIRECTION('',(0.,-1.,0.));
#1033=DIRECTION('',(0.,0.,-1.));
#1034=DIRECTION('center_axis',(0.,1.,0.));
#1035=DIRECTION('ref_axis',(1.,0.,0.));
#1036=DIRECTION('',(1.,0.,0.));
#1037=DIRECTION('',(0.,0.,-1.));
#1038=DIRECTION('center_axis',(1.,0.,0.));
#1039=DIRECTION('ref_axis',(0.,-1.,0.));
#1040=DIRECTION('',(0.,-1.,0.));
#1041=DIRECTION('',(0.,0.,-1.));
#1042=DIRECTION('center_axis',(0.,1.,0.));
#1043=DIRECTION('ref_axis',(1.,0.,0.));
#1044=DIRECTION('',(1.,0.,0.));
#1045=DIRECTION('',(0.,0.,-1.));
#1046=DIRECTION('center_axis',(1.,0.,0.));
#1047=DIRECTION('ref_axis',(0.,-1.,0.));
#1048=DIRECTION('',(0.,-1.,0.));
#1049=DIRECTION('',(0.,0.,-1.));
#1050=DIRECTION('center_axis',(0.,1.,0.));
#1051=DIRECTION('ref_axis',(1.,0.,0.));
#1052=DIRECTION('',(1.,0.,0.));
#1053=DIRECTION('',(0.,0.,-1.));
#1054=DIRECTION('center_axis',(-1.,0.,0.));
#1055=DIRECTION('ref_axis',(0.,1.,0.));
#1056=DIRECTION('',(0.,1.,0.));
#1057=DIRECTION('',(0.,0.,-1.));
#1058=DIRECTION('center_axis',(0.,1.,0.));
#1059=DIRECTION('ref_axis',(1.,0.,0.));
#1060=DIRECTION('',(1.,0.,0.));
#1061=DIRECTION('center_axis',(0.,0.,-1.));
#1062=DIRECTION('ref_axis',(-1.,0.,0.));
#1063=CARTESIAN_POINT('',(0.,0.,0.));
#1064=CARTESIAN_POINT('Origin',(195.,-148.33,-6.55));
#1065=CARTESIAN_POINT('',(194.1885,-148.33,-0.05));
#1066=CARTESIAN_POINT('Origin',(195.,-148.33,-0.05));
#1067=CARTESIAN_POINT('',(194.1885,-148.33,-8.05));
#1068=CARTESIAN_POINT('',(194.1885,-148.33,-6.55));
#1069=CARTESIAN_POINT('Origin',(195.,-148.33,-8.05));
#1070=CARTESIAN_POINT('Origin',(134.645,-123.045,-0.05));
#1071=CARTESIAN_POINT('',(197.5,-148.33,-0.05));
#1072=CARTESIAN_POINT('Origin',(195.,-148.33,-0.05));
#1073=CARTESIAN_POINT('Origin',(134.645,-123.045,-0.05));
#1074=CARTESIAN_POINT('',(182.27,-84.52,-0.05));
#1075=CARTESIAN_POINT('Origin',(179.77,-84.52,-0.05));
#1076=CARTESIAN_POINT('',(178.9585,-84.52,-0.05));
#1077=CARTESIAN_POINT('Origin',(179.77,-84.52,-0.05));
#1078=CARTESIAN_POINT('Origin',(134.645,-123.045,-0.05));
#1079=CARTESIAN_POINT('',(163.3,-161.57,-0.05));
#1080=CARTESIAN_POINT('Origin',(160.8,-161.57,-0.05));
#1081=CARTESIAN_POINT('',(159.9885,-161.57,-0.05));
#1082=CARTESIAN_POINT('Origin',(160.8,-161.57,-0.05));
#1083=CARTESIAN_POINT('Origin',(134.645,-123.045,-0.05));
#1084=CARTESIAN_POINT('',(96.24,-85.26,-0.05));
#1085=CARTESIAN_POINT('Origin',(93.74,-85.26,-0.05));
#1086=CARTESIAN_POINT('',(92.9285,-85.26,-0.05));
#1087=CARTESIAN_POINT('Origin',(93.74,-85.26,-0.05));
#1088=CARTESIAN_POINT('Origin',(134.645,-123.045,-0.05));
#1089=CARTESIAN_POINT('',(76.79,-145.72,-0.05));
#1090=CARTESIAN_POINT('Origin',(74.29,-145.72,-0.05));
#1091=CARTESIAN_POINT('',(73.4785,-145.72,-0.05));
#1092=CARTESIAN_POINT('Origin',(74.29,-145.72,-0.05));
#1093=CARTESIAN_POINT('Origin',(195.,-148.33,-4.05));
#1094=CARTESIAN_POINT('',(197.5,-148.33,-4.05));
#1095=CARTESIAN_POINT('',(197.5,-148.33,-4.05));
#1096=CARTESIAN_POINT('Origin',(195.,-148.33,-4.05));
#1097=CARTESIAN_POINT('Origin',(179.77,-84.52,-4.05));
#1098=CARTESIAN_POINT('',(182.27,-84.52,-4.05));
#1099=CARTESIAN_POINT('',(182.27,-84.52,-4.05));
#1100=CARTESIAN_POINT('Origin',(179.77,-84.52,-4.05));
#1101=CARTESIAN_POINT('Origin',(160.8,-161.57,-4.05));
#1102=CARTESIAN_POINT('',(163.3,-161.57,-4.05));
#1103=CARTESIAN_POINT('',(163.3,-161.57,-4.05));
#1104=CARTESIAN_POINT('Origin',(160.8,-161.57,-4.05));
#1105=CARTESIAN_POINT('Origin',(93.74,-85.26,-4.05));
#1106=CARTESIAN_POINT('',(96.24,-85.26,-4.05));
#1107=CARTESIAN_POINT('',(96.24,-85.26,-4.05));
#1108=CARTESIAN_POINT('Origin',(93.74,-85.26,-4.05));
#1109=CARTESIAN_POINT('Origin',(74.29,-145.72,-4.05));
#1110=CARTESIAN_POINT('',(76.79,-145.72,-4.05));
#1111=CARTESIAN_POINT('',(76.79,-145.72,-4.05));
#1112=CARTESIAN_POINT('Origin',(74.29,-145.72,-4.05));
#1113=CARTESIAN_POINT('Origin',(134.860741,-129.1646525,-4.05));
#1114=CARTESIAN_POINT('',(92.09,-77.4225,-4.05));
#1115=CARTESIAN_POINT('',(113.045,-77.4225,-4.05));
#1116=CARTESIAN_POINT('',(92.09,-77.4225,-4.05));
#1117=CARTESIAN_POINT('',(92.09,-83.1375,-4.05));
#1118=CARTESIAN_POINT('',(92.09,-83.1375,-4.05));
#1119=CARTESIAN_POINT('',(71.135,-83.1375,-4.05));
#1120=CARTESIAN_POINT('',(71.135,-83.1375,-4.05));
#1121=CARTESIAN_POINT('',(71.135,-149.1925,-4.05));
#1122=CARTESIAN_POINT('',(71.135,-149.1925,-4.05));
#1123=CARTESIAN_POINT('',(97.185,-149.1925,-4.05));
#1124=CARTESIAN_POINT('',(97.185,-149.1925,-4.05));
#1125=CARTESIAN_POINT('',(97.185,-143.4775,-4.05));
#1126=CARTESIAN_POINT('',(97.185,-143.4775,-4.05));
#1127=CARTESIAN_POINT('',(118.14,-143.4775,-4.05));
#1128=CARTESIAN_POINT('',(118.14,-143.4775,-4.05));
#1129=CARTESIAN_POINT('',(118.14,-133.,-4.05));
#1130=CARTESIAN_POINT('',(118.14,-133.,-4.05));
#1131=CARTESIAN_POINT('',(134.,-133.,-4.05));
#1132=CARTESIAN_POINT('',(134.,-133.,-4.05));
#1133=CARTESIAN_POINT('',(134.,-136.81,-4.05));
#1134=CARTESIAN_POINT('',(134.,-136.81,-4.05));
#1135=CARTESIAN_POINT('',(153.370458999993,-136.809999999998,-4.05));
#1136=CARTESIAN_POINT('',(153.370458999993,-136.809999999998,-4.05));
#1137=CARTESIAN_POINT('',(145.570691000001,-158.239683999997,-4.05));
#1138=CARTESIAN_POINT('',(145.570691000001,-158.239683999997,-4.05));
#1139=CARTESIAN_POINT('',(158.054508,-162.783421,-4.05));
#1140=CARTESIAN_POINT('',(158.054508,-162.783421,-4.05));
#1141=CARTESIAN_POINT('',(150.887475999997,-182.474680000008,-4.05));
#1142=CARTESIAN_POINT('',(150.887475999997,-182.474680000008,-4.05));
#1143=CARTESIAN_POINT('',(175.366469000001,-191.384305,-4.05));
#1144=CARTESIAN_POINT('',(175.366469000001,-191.384305,-4.05));
#1145=CARTESIAN_POINT('',(182.516400000001,-171.740029999997,-4.05));
#1146=CARTESIAN_POINT('',(182.516400000001,-171.740029999997,-4.05));
#1147=CARTESIAN_POINT('',(189.676857000008,-174.346224000003,-4.05));
#1148=CARTESIAN_POINT('',(189.676857000008,-174.346224000003,-4.05));
#1149=CARTESIAN_POINT('',(198.586482,-149.867231,-4.05));
#1150=CARTESIAN_POINT('',(198.586482,-149.867231,-4.05));
#1151=CARTESIAN_POINT('',(198.586482,-74.492228,-4.05));
#1152=CARTESIAN_POINT('',(198.586482,-74.492228,-4.05));
#1153=CARTESIAN_POINT('',(160.05,-74.492228,-4.05));
#1154=CARTESIAN_POINT('',(160.05,-74.492228,-4.05));
#1155=CARTESIAN_POINT('',(160.05,-70.755,-4.05));
#1156=CARTESIAN_POINT('',(160.05,-70.755,-4.05));
#1157=CARTESIAN_POINT('',(139.095,-70.755,-4.05));
#1158=CARTESIAN_POINT('',(139.095,-70.755,-4.05));
#1159=CARTESIAN_POINT('',(139.095,-66.945,-4.05));
#1160=CARTESIAN_POINT('',(139.095,-66.945,-4.05));
#1161=CARTESIAN_POINT('',(113.045,-66.945,-4.05));
#1162=CARTESIAN_POINT('',(113.045,-66.945,-4.05));
#1163=CARTESIAN_POINT('',(113.045,-77.4225,-4.05));
#1164=CARTESIAN_POINT('Origin',(93.74,-85.26,-6.55));
#1165=CARTESIAN_POINT('',(92.9285,-85.26,-8.05));
#1166=CARTESIAN_POINT('',(92.9285,-85.26,-6.55));
#1167=CARTESIAN_POINT('Origin',(93.74,-85.26,-8.05));
#1168=CARTESIAN_POINT('Origin',(74.29,-145.72,-6.55));
#1169=CARTESIAN_POINT('',(73.4785,-145.72,-8.05));
#1170=CARTESIAN_POINT('',(73.4785,-145.72,-6.55));
#1171=CARTESIAN_POINT('Origin',(74.29,-145.72,-8.05));
#1172=CARTESIAN_POINT('Origin',(179.77,-84.52,-6.55));
#1173=CARTESIAN_POINT('',(178.9585,-84.52,-8.05));
#1174=CARTESIAN_POINT('',(178.9585,-84.52,-6.55));
#1175=CARTESIAN_POINT('Origin',(179.77,-84.52,-8.05));
#1176=CARTESIAN_POINT('Origin',(160.8,-161.57,-6.55));
#1177=CARTESIAN_POINT('',(159.9885,-161.57,-8.05));
#1178=CARTESIAN_POINT('',(159.9885,-161.57,-6.55));
#1179=CARTESIAN_POINT('Origin',(160.8,-161.57,-8.05));
#1180=CARTESIAN_POINT('Origin',(92.09,-83.1375,-4.05));
#1181=CARTESIAN_POINT('',(92.09,-77.4225,-8.05));
#1182=CARTESIAN_POINT('',(92.09,-77.4225,-4.05));
#1183=CARTESIAN_POINT('',(92.09,-83.1375,-8.05));
#1184=CARTESIAN_POINT('',(92.09,-83.1375,-8.05));
#1185=CARTESIAN_POINT('',(92.09,-83.1375,-4.05));
#1186=CARTESIAN_POINT('Origin',(71.135,-83.1375,-4.05));
#1187=CARTESIAN_POINT('',(71.135,-83.1375,-8.05));
#1188=CARTESIAN_POINT('',(71.135,-83.1375,-8.05));
#1189=CARTESIAN_POINT('',(71.135,-83.1375,-4.05));
#1190=CARTESIAN_POINT('Origin',(71.135,-149.1925,-4.05));
#1191=CARTESIAN_POINT('',(71.135,-149.1925,-8.05));
#1192=CARTESIAN_POINT('',(71.135,-149.1925,-8.05));
#1193=CARTESIAN_POINT('',(71.135,-149.1925,-4.05));
#1194=CARTESIAN_POINT('Origin',(97.185,-149.1925,-4.05));
#1195=CARTESIAN_POINT('',(97.185,-149.1925,-8.05));
#1196=CARTESIAN_POINT('',(97.185,-149.1925,-8.05));
#1197=CARTESIAN_POINT('',(97.185,-149.1925,-4.05));
#1198=CARTESIAN_POINT('Origin',(97.185,-143.4775,-4.05));
#1199=CARTESIAN_POINT('',(97.185,-143.4775,-8.05));
#1200=CARTESIAN_POINT('',(97.185,-143.4775,-8.05));
#1201=CARTESIAN_POINT('',(97.185,-143.4775,-4.05));
#1202=CARTESIAN_POINT('Origin',(118.14,-143.4775,-4.05));
#1203=CARTESIAN_POINT('',(118.14,-143.4775,-8.05));
#1204=CARTESIAN_POINT('',(118.14,-143.4775,-8.05));
#1205=CARTESIAN_POINT('',(118.14,-143.4775,-4.05));
#1206=CARTESIAN_POINT('Origin',(118.14,-133.,-4.05));
#1207=CARTESIAN_POINT('',(118.14,-133.,-8.05));
#1208=CARTESIAN_POINT('',(118.14,-133.,-8.05));
#1209=CARTESIAN_POINT('',(118.14,-133.,-4.05));
#1210=CARTESIAN_POINT('Origin',(134.,-133.,-4.05));
#1211=CARTESIAN_POINT('',(134.,-133.,-8.05));
#1212=CARTESIAN_POINT('',(134.,-133.,-8.05));
#1213=CARTESIAN_POINT('',(134.,-133.,-4.05));
#1214=CARTESIAN_POINT('Origin',(134.,-136.81,-4.05));
#1215=CARTESIAN_POINT('',(134.,-136.81,-8.05));
#1216=CARTESIAN_POINT('',(134.,-136.81,-8.05));
#1217=CARTESIAN_POINT('',(134.,-136.81,-4.05));
#1218=CARTESIAN_POINT('Origin',(153.370458999993,-136.809999999998,-4.05));
#1219=CARTESIAN_POINT('',(153.370458999993,-136.809999999998,-8.05));
#1220=CARTESIAN_POINT('',(153.370458999993,-136.809999999998,-8.05));
#1221=CARTESIAN_POINT('',(153.370458999993,-136.809999999998,-4.05));
#1222=CARTESIAN_POINT('Origin',(145.570691000001,-158.239683999997,-4.05));
#1223=CARTESIAN_POINT('',(145.570691000001,-158.239683999997,-8.05));
#1224=CARTESIAN_POINT('',(145.570691000001,-158.239683999997,-8.05));
#1225=CARTESIAN_POINT('',(145.570691000001,-158.239683999997,-4.05));
#1226=CARTESIAN_POINT('Origin',(158.054508,-162.783421,-4.05));
#1227=CARTESIAN_POINT('',(158.054508,-162.783421,-8.05));
#1228=CARTESIAN_POINT('',(158.054508,-162.783421,-8.05));
#1229=CARTESIAN_POINT('',(158.054508,-162.783421,-4.05));
#1230=CARTESIAN_POINT('Origin',(150.887475999997,-182.474680000008,-4.05));
#1231=CARTESIAN_POINT('',(150.887475999997,-182.474680000008,-8.05));
#1232=CARTESIAN_POINT('',(150.887475999997,-182.474680000008,-8.05));
#1233=CARTESIAN_POINT('',(150.887475999997,-182.474680000008,-4.05));
#1234=CARTESIAN_POINT('Origin',(175.366469000001,-191.384305,-4.05));
#1235=CARTESIAN_POINT('',(175.366469000001,-191.384305,-8.05));
#1236=CARTESIAN_POINT('',(175.366469000001,-191.384305,-8.05));
#1237=CARTESIAN_POINT('',(175.366469000001,-191.384305,-4.05));
#1238=CARTESIAN_POINT('Origin',(182.516400000001,-171.740029999997,-4.05));
#1239=CARTESIAN_POINT('',(182.516400000001,-171.740029999997,-8.05));
#1240=CARTESIAN_POINT('',(182.516400000001,-171.740029999997,-8.05));
#1241=CARTESIAN_POINT('',(182.516400000001,-171.740029999997,-4.05));
#1242=CARTESIAN_POINT('Origin',(189.676857000008,-174.346224000003,-4.05));
#1243=CARTESIAN_POINT('',(189.676857000008,-174.346224000003,-8.05));
#1244=CARTESIAN_POINT('',(189.676857000008,-174.346224000003,-8.05));
#1245=CARTESIAN_POINT('',(189.676857000008,-174.346224000003,-4.05));
#1246=CARTESIAN_POINT('Origin',(198.586482,-149.867231,-4.05));
#1247=CARTESIAN_POINT('',(198.586482,-149.867231,-8.05));
#1248=CARTESIAN_POINT('',(198.586482,-149.867231,-8.05));
#1249=CARTESIAN_POINT('',(198.586482,-149.867231,-4.05));
#1250=CARTESIAN_POINT('Origin',(198.586482,-74.492228,-4.05));
#1251=CARTESIAN_POINT('',(198.586482,-74.492228,-8.05));
#1252=CARTESIAN_POINT('',(198.586482,-74.492228,-8.05));
#1253=CARTESIAN_POINT('',(198.586482,-74.492228,-4.05));
#1254=CARTESIAN_POINT('Origin',(160.05,-74.492228,-4.05));
#1255=CARTESIAN_POINT('',(160.05,-74.492228,-8.05));
#1256=CARTESIAN_POINT('',(160.05,-74.492228,-8.05));
#1257=CARTESIAN_POINT('',(160.05,-74.492228,-4.05));
#1258=CARTESIAN_POINT('Origin',(160.05,-70.755,-4.05));
#1259=CARTESIAN_POINT('',(160.05,-70.755,-8.05));
#1260=CARTESIAN_POINT('',(160.05,-70.755,-8.05));
#1261=CARTESIAN_POINT('',(160.05,-70.755,-4.05));
#1262=CARTESIAN_POINT('Origin',(139.095,-70.755,-4.05));
#1263=CARTESIAN_POINT('',(139.095,-70.755,-8.05));
#1264=CARTESIAN_POINT('',(139.095,-70.755,-8.05));
#1265=CARTESIAN_POINT('',(139.095,-70.755,-4.05));
#1266=CARTESIAN_POINT('Origin',(139.095,-66.945,-4.05));
#1267=CARTESIAN_POINT('',(139.095,-66.945,-8.05));
#1268=CARTESIAN_POINT('',(139.095,-66.945,-8.05));
#1269=CARTESIAN_POINT('',(139.095,-66.945,-4.05));
#1270=CARTESIAN_POINT('Origin',(113.045,-66.945,-4.05));
#1271=CARTESIAN_POINT('',(113.045,-66.945,-8.05));
#1272=CARTESIAN_POINT('',(113.045,-66.945,-8.05));
#1273=CARTESIAN_POINT('',(113.045,-66.945,-4.05));
#1274=CARTESIAN_POINT('Origin',(113.045,-77.4225,-4.05));
#1275=CARTESIAN_POINT('',(113.045,-77.4225,-8.05));
#1276=CARTESIAN_POINT('',(113.045,-77.4225,-8.05));
#1277=CARTESIAN_POINT('',(113.045,-77.4225,-4.05));
#1278=CARTESIAN_POINT('Origin',(92.09,-77.4225,-4.05));
#1279=CARTESIAN_POINT('',(92.09,-77.4225,-8.05));
#1280=CARTESIAN_POINT('Origin',(134.860741,-129.1646525,-8.05));
#1281=UNCERTAINTY_MEASURE_WITH_UNIT(LENGTH_MEASURE(0.01),#1285,
'DISTANCE_ACCURACY_VALUE',
'Maximum model space distance between geometric entities at asserted c
onnectivities');
#1282=UNCERTAINTY_MEASURE_WITH_UNIT(LENGTH_MEASURE(0.01),#1285,
'DISTANCE_ACCURACY_VALUE',
'Maximum model space distance between geometric entities at asserted c
onnectivities');
#1283=(
GEOMETRIC_REPRESENTATION_CONTEXT(3)
GLOBAL_UNCERTAINTY_ASSIGNED_CONTEXT((#1281))
GLOBAL_UNIT_ASSIGNED_CONTEXT((#1285,#1286,#1287))
REPRESENTATION_CONTEXT('','3D')
);
#1284=(
GEOMETRIC_REPRESENTATION_CONTEXT(3)
GLOBAL_UNCERTAINTY_ASSIGNED_CONTEXT((#1282))
GLOBAL_UNIT_ASSIGNED_CONTEXT((#1285,#1286,#1287))
REPRESENTATION_CONTEXT('','3D')
);
#1285=(
LENGTH_UNIT()
NAMED_UNIT(*)
SI_UNIT(.MILLI.,.METRE.)
);
#1286=(
NAMED_UNIT(*)
PLANE_ANGLE_UNIT()
SI_UNIT($,.RADIAN.)
);
#1287=(
NAMED_UNIT(*)
SI_UNIT($,.STERADIAN.)
SOLID_ANGLE_UNIT()
);
#1288=SHAPE_DEFINITION_REPRESENTATION(#1289,#1290);
#1289=PRODUCT_DEFINITION_SHAPE('',$,#1292);
#1290=SHAPE_REPRESENTATION('',(#789),#1283);
#1291=PRODUCT_DEFINITION_CONTEXT('part definition',#1296,'design');
#1292=PRODUCT_DEFINITION('minimal Case','minimal Case v14',#1293,#1291);
#1293=PRODUCT_DEFINITION_FORMATION('',$,#1298);
#1294=PRODUCT_RELATED_PRODUCT_CATEGORY('minimal Case v14',
'minimal Case v14',(#1298));
#1295=APPLICATION_PROTOCOL_DEFINITION('international standard',
'automotive_design',2009,#1296);
#1296=APPLICATION_CONTEXT(
'Core Data for Automotive Mechanical Design Process');
#1297=PRODUCT_CONTEXT('part definition',#1296,'mechanical');
#1298=PRODUCT('minimal Case','minimal Case v14',$,(#1297));
#1299=PRESENTATION_STYLE_ASSIGNMENT((#1300));
#1300=SURFACE_STYLE_USAGE(.BOTH.,#1301);
#1301=SURFACE_SIDE_STYLE('',(#1302));
#1302=SURFACE_STYLE_FILL_AREA(#1303);
#1303=FILL_AREA_STYLE('Steel - Satin',(#1304));
#1304=FILL_AREA_STYLE_COLOUR('Steel - Satin',#1305);
#1305=COLOUR_RGB('Steel - Satin',0.627450980392157,0.627450980392157,0.627450980392157);
ENDSEC;
END-ISO-10303-21;
