999
dxflib 3.26.4.0
  0
SECTION
  2
HEADER
  9
$ACADVER
  1
AC1015
  9
$HANDSEED
  5
FFFF
  9
$DIMADEC
 70
0
  9
$DIMASZ
 40
0.18
  9
$DIMATFIT
 70
0
  9
$DIMAUNIT
 70
0
  9
$DIMAZIN
 70
0
  9
$DIMBLK
  1
0
  9
$DIMBLK1
  1
0
  9
$DIMBLK2
  1
0
  9
$DIMDEC
 70
4
  9
$DIMDLI
 40
0.36
  9
$DIMDSEP
 70
0
  9
$DIMEXE
 40
0.18
  9
$DIMEXO
 40
0.0625
  9
$DIMGAP
 40
0.09
  9
$DIMLFAC
 40
0.0
  9
$DIMLUNIT
 70
2
  9
$DIMSCALE
 40
0.0
  9
$DIMTAD
 70
0
  9
$DIMTIH
 70
0
  9
$DIMTSZ
 40
0.0
  9
$DIMTXT
 40
0.18
  9
$DIMZIN
 70
0
  9
$DWGCODEPAGE
  3
ANSI_1252
  9
$INSUNITS
 70
4
  9
$LTSCALE
 40
1.0
  9
$MAXACTVP
 70
64
  9
$MEASUREMENT
 70
1
  9
$MIRRTEXT
 70
0
  9
$PDMODE
 70
0
  9
$PDSIZE
 40
0.0
  0
ENDSEC
  0
SECTION
  2
TABLES
  0
TABLE
  2
VPORT
  5
8
100
AcDbSymbolTable
 70
1
  0
VPORT
  5
30
100
AcDbSymbolTableRecord
100
AcDbViewportTableRecord
  2
*Active
 70
0
 10
0.0
 20
0.0
 11
1.0
 21
1.0
 12
286.3055555555554861
 22
148.5
 13
0.0
 23
0.0
 14
10.0
 24
10.0
 15
10.0
 25
10.0
 16
0.0
 26
0.0
 36
1.0
 17
0.0
 27
0.0
 37
0.0
 40
297.0
 41
1.92798353909465
 42
50.0
 43
0.0
 44
0.0
 50
0.0
 51
0.0
 71
0
 72
100
 73
1
 74
3
 75
1
 76
1
 77
0
 78
0
281
0
 65
1
110
0.0
120
0.0
130
0.0
111
1.0
121
0.0
131
0.0
112
0.0
122
1.0
132
0.0
 79
0
146
0.0
  0
ENDTAB
  0
TABLE
  2
LTYPE
  5
5
100
AcDbSymbolTable
 70
41
  0
LTYPE
  5
16
100
AcDbSymbolTableRecord
100
AcDbLinetypeTableRecord
  2
CONTINUOUS
 70
0
  3
Solid line
 72
65
 73
0
 40
0.0
  0
LTYPE
  5
31
100
AcDbSymbolTableRecord
100
AcDbLinetypeTableRecord
  2
DASHED2
 70
0
  3
Dashed (.5x) _ _ _ _ _ _ _ _ _ _ _ _ _ _ _ _ _ 
 72
65
 73
2
 40
9.5249999999999986
 49
6.3499999999999996
 74
0
 49
-3.1749999999999998
 74
0
  0
LTYPE
  5
32
100
AcDbSymbolTableRecord
100
AcDbLinetypeTableRecord
  2
BORDERX2
 70
0
  3
Border (2x) ____  ____  .  ____  ____  .  ___
 72
65
 73
6
 40
88.8999999999999773
 49
25.3999999999999986
 74
0
 49
-12.6999999999999993
 74
0
 49
25.3999999999999986
 74
0
 49
-12.6499999999999986
 74
0
 49
0.1
 74
0
 49
-12.6499999999999986
 74
0
  0
LTYPE
  5
33
100
AcDbSymbolTableRecord
100
AcDbLinetypeTableRecord
  2
PHANTOMX2
 70
0
  3
Phantom (2x) ____________    ____    ____   _
 72
65
 73
6
 40
127.0000000000000142
 49
63.5
 74
0
 49
-12.6999999999999993
 74
0
 49
12.6999999999999993
 74
0
 49
-12.6999999999999993
 74
0
 49
12.6999999999999993
 74
0
 49
-12.6999999999999993
 74
0
  0
LTYPE
  5
34
100
AcDbSymbolTableRecord
100
AcDbLinetypeTableRecord
  2
DOTX2
 70
0
  3
Dot (2x) .  .  .  .  .  .  .  .  .  .  .  .  .  .
 72
65
 73
2
 40
12.6999999999999993
 49
0.1
 74
0
 49
-12.5999999999999996
 74
0
  0
LTYPE
  5
35
100
AcDbSymbolTableRecord
100
AcDbLinetypeTableRecord
  2
ACAD_ISO15W100
 70
0
  3
ISO double-dash triple-dot __ __ . . . __ __ . .
 72
65
 73
10
 40
39.0000000000000071
 49
12.0
 74
0
 49
-3.0
 74
0
 49
12.0
 74
0
 49
-2.9500000000000002
 74
0
 49
0.1
 74
0
 49
-2.9000000000000004
 74
0
 49
0.1
 74
0
 49
-2.9000000000000004
 74
0
 49
0.1
 74
0
 49
-2.9500000000000002
 74
0
  0
LTYPE
  5
36
100
AcDbSymbolTableRecord
100
AcDbLinetypeTableRecord
  2
DASHDOT
 70
0
  3
Dash dot __ . __ . __ . __ . __ . __ . __ . __
 72
65
 73
4
 40
25.4000000000000021
 49
12.6999999999999993
 74
0
 49
-6.2999999999999998
 74
0
 49
0.1
 74
0
 49
-6.2999999999999998
 74
0
  0
LTYPE
  5
37
100
AcDbSymbolTableRecord
100
AcDbLinetypeTableRecord
  2
ACAD_ISO13W100
 70
0
  3
ISO double-dash double-dot __ __ . . __ __ . . _
 72
65
 73
8
 40
36.0000000000000071
 49
12.0
 74
0
 49
-3.0
 74
0
 49
12.0
 74
0
 49
-2.9500000000000002
 74
0
 49
0.1
 74
0
 49
-2.9000000000000004
 74
0
 49
0.1
 74
0
 49
-2.9500000000000002
 74
0
  0
LTYPE
  5
38
100
AcDbSymbolTableRecord
100
AcDbLinetypeTableRecord
  2
DIVIDE2
 70
0
  3
Divide (.5x) __..__..__..__..__..__..__..__.._
 72
65
 73
6
 40
15.8749999999999982
 49
6.3499999999999996
 74
0
 49
-3.125
 74
0
 49
0.1
 74
0
 49
-3.0750000000000002
 74
0
 49
0.1
 74
0
 49
-3.125
 74
0
  0
LTYPE
  5
39
100
AcDbSymbolTableRecord
100
AcDbLinetypeTableRecord
  2
BORDER2
 70
0
  3
Border (.5x) __.__.__.__.__.__.__.__.__.__.__.
 72
65
 73
6
 40
22.2250000000000014
 49
6.3499999999999996
 74
0
 49
-3.1749999999999998
 74
0
 49
6.3499999999999996
 74
0
 49
-3.125
 74
0
 49
0.1
 74
0
 49
-3.125
 74
0
  0
LTYPE
  5
3A
100
AcDbSymbolTableRecord
100
AcDbLinetypeTableRecord
  2
ACAD_ISO11W100
 70
0
  3
ISO double-dash dot __ __ . __ __ . __ __ . __ _
 72
65
 73
6
 40
33.0
 49
12.0
 74
0
 49
-3.0
 74
0
 49
12.0
 74
0
 49
-2.9500000000000002
 74
0
 49
0.1
 74
0
 49
-2.9500000000000002
 74
0
  0
LTYPE
  5
3B
100
AcDbSymbolTableRecord
100
AcDbLinetypeTableRecord
  2
DIVIDEX2
 70
0
  3
Divide (2x) ________  .  .  ________  .  .  _
 72
65
 73
6
 40
63.5
 49
25.3999999999999986
 74
0
 49
-12.6499999999999986
 74
0
 49
0.1
 74
0
 49
-12.5999999999999979
 74
0
 49
0.1
 74
0
 49
-12.6499999999999986
 74
0
  0
LTYPE
  5
15
100
AcDbSymbolTableRecord
100
AcDbLinetypeTableRecord
  2
BYLAYER
 70
0
  3

 72
65
 73
0
 40
0.0
  0
LTYPE
  5
3C
100
AcDbSymbolTableRecord
100
AcDbLinetypeTableRecord
  2
HIDDEN2
 70
0
  3
Hidden (.5x) _ _ _ _ _ _ _ _ _ _ _ _ _ _ _ _ _ 
 72
65
 73
2
 40
4.7624999999999993
 49
3.1749999999999998
 74
0
 49
-1.5874999999999999
 74
0
  0
LTYPE
  5
3D
100
AcDbSymbolTableRecord
100
AcDbLinetypeTableRecord
  2
ACAD_ISO12W100
 70
0
  3
ISO dash double-dot __ . . __ . . __ . . __ . . 
 72
65
 73
6
 40
21.0
 49
12.0
 74
0
 49
-2.9500000000000002
 74
0
 49
0.1
 74
0
 49
-2.9000000000000004
 74
0
 49
0.1
 74
0
 49
-2.9500000000000002
 74
0
  0
LTYPE
  5
3E
100
AcDbSymbolTableRecord
100
AcDbLinetypeTableRecord
  2
ACAD_ISO08W100
 70
0
  3
ISO long-dash short-dash ____ __ ____ __ ____ _
 72
65
 73
4
 40
36.0
 49
24.0
 74
0
 49
-3.0
 74
0
 49
6.0
 74
0
 49
-3.0
 74
0
  0
LTYPE
  5
3F
100
AcDbSymbolTableRecord
100
AcDbLinetypeTableRecord
  2
ACAD_ISO10W100
 70
0
  3
ISO dash dot __ . __ . __ . __ . __ . __ . __ . 
 72
65
 73
4
 40
18.0
 49
12.0
 74
0
 49
-2.9500000000000002
 74
0
 49
0.1
 74
0
 49
-2.9500000000000002
 74
0
  0
LTYPE
  5
40
100
AcDbSymbolTableRecord
100
AcDbLinetypeTableRecord
  2
ACAD_ISO14W100
 70
0
  3
ISO dash triple-dot __ . . . __ . . . __ . . . _
 72
65
 73
8
 40
24.0000000000000036
 49
12.0
 74
0
 49
-2.9500000000000002
 74
0
 49
0.1
 74
0
 49
-2.9000000000000004
 74
0
 49
0.1
 74
0
 49
-2.9000000000000004
 74
0
 49
0.1
 74
0
 49
-2.9500000000000002
 74
0
  0
LTYPE
  5
41
100
AcDbSymbolTableRecord
100
AcDbLinetypeTableRecord
  2
DASHDOTX2
 70
0
  3
Dash dot (2x) ____  .  ____  .  ____  .  ___
 72
65
 73
4
 40
50.7999999999999972
 49
25.3999999999999986
 74
0
 49
-12.6499999999999986
 74
0
 49
0.1
 74
0
 49
-12.6499999999999986
 74
0
  0
LTYPE
  5
42
100
AcDbSymbolTableRecord
100
AcDbLinetypeTableRecord
  2
CENTERX2
 70
0
  3
Center (2x) ________  __  ________  __  _____
 72
65
 73
4
 40
101.6000000000000085
 49
63.5
 74
0
 49
-12.6999999999999993
 74
0
 49
12.6999999999999993
 74
0
 49
-12.6999999999999993
 74
0
  0
LTYPE
  5
43
100
AcDbSymbolTableRecord
100
AcDbLinetypeTableRecord
  2
PHANTOM
 70
0
  3
Phantom ______  __  __  ______  __  __  ______ 
 72
65
 73
6
 40
63.5000000000000071
 49
31.75
 74
0
 49
-6.3499999999999996
 74
0
 49
6.3499999999999996
 74
0
 49
-6.3499999999999996
 74
0
 49
6.3499999999999996
 74
0
 49
-6.3499999999999996
 74
0
  0
LTYPE
  5
44
100
AcDbSymbolTableRecord
100
AcDbLinetypeTableRecord
  2
PHANTOM2
 70
0
  3
Phantom (.5x) ___ _ _ ___ _ _ ___ _ _ ___ _ _
 72
65
 73
6
 40
31.7500000000000036
 49
15.875
 74
0
 49
-3.1749999999999998
 74
0
 49
3.1749999999999998
 74
0
 49
-3.1749999999999998
 74
0
 49
3.1749999999999998
 74
0
 49
-3.1749999999999998
 74
0
  0
LTYPE
  5
45
100
AcDbSymbolTableRecord
100
AcDbLinetypeTableRecord
  2
DOT2
 70
0
  3
Dot (.5x) ........................................
 72
65
 73
2
 40
3.1749999999999998
 49
0.1
 74
0
 49
-3.0749999999999997
 74
0
  0
LTYPE
  5
46
100
AcDbSymbolTableRecord
100
AcDbLinetypeTableRecord
  2
DOT
 70
0
  3
Dot . . . . . . . . . . . . . . . . . . . . . . . .
 72
65
 73
2
 40
6.3499999999999996
 49
0.1
 74
0
 49
-6.25
 74
0
  0
LTYPE
  5
47
100
AcDbSymbolTableRecord
100
AcDbLinetypeTableRecord
  2
DASHED
 70
0
  3
Dashed __ __ __ __ __ __ __ __ __ __ __ __ __ _
 72
65
 73
2
 40
19.0499999999999972
 49
12.6999999999999993
 74
0
 49
-6.3499999999999996
 74
0
  0
LTYPE
  5
48
100
AcDbSymbolTableRecord
100
AcDbLinetypeTableRecord
  2
DASHEDX2
 70
0
  3
Dashed (2x) ____  ____  ____  ____  ____  ___
 72
65
 73
2
 40
38.0999999999999943
 49
25.3999999999999986
 74
0
 49
-12.6999999999999993
 74
0
  0
LTYPE
  5
49
100
AcDbSymbolTableRecord
100
AcDbLinetypeTableRecord
  2
HIDDEN
 70
0
  3
Hidden __ __ __ __ __ __ __ __ __ __ __ __ __ __
 72
65
 73
2
 40
9.5249999999999986
 49
6.3499999999999996
 74
0
 49
-3.1749999999999998
 74
0
  0
LTYPE
  5
4A
100
AcDbSymbolTableRecord
100
AcDbLinetypeTableRecord
  2
ACAD_ISO05W100
 70
0
  3
ISO long-dash double-dot ____ .. ____ .. ____ . 
 72
65
 73
6
 40
33.0000000000000071
 49
24.0
 74
0
 49
-2.9500000000000002
 74
0
 49
0.1
 74
0
 49
-2.9000000000000004
 74
0
 49
0.1
 74
0
 49
-2.9500000000000002
 74
0
  0
LTYPE
  5
4B
100
AcDbSymbolTableRecord
100
AcDbLinetypeTableRecord
  2
HIDDENX2
 70
0
  3
Hidden (2x) ____ ____ ____ ____ ____ ____ ____ 
 72
65
 73
2
 40
19.0499999999999972
 49
12.6999999999999993
 74
0
 49
-6.3499999999999996
 74
0
  0
LTYPE
  5
4C
100
AcDbSymbolTableRecord
100
AcDbLinetypeTableRecord
  2
ACAD_ISO03W100
 70
0
  3
ISO dash space __    __    __    __    __    __
 72
65
 73
2
 40
30.0
 49
12.0
 74
0
 49
-18.0
 74
0
  0
LTYPE
  5
4D
100
AcDbSymbolTableRecord
100
AcDbLinetypeTableRecord
  2
CENTER2
 70
0
  3
Center (.5x) ___ _ ___ _ ___ _ ___ _ ___ _ ___
 72
65
 73
4
 40
28.5750000000000028
 49
19.0500000000000007
 74
0
 49
-3.1749999999999998
 74
0
 49
3.1749999999999998
 74
0
 49
-3.1749999999999998
 74
0
  0
LTYPE
  5
14
100
AcDbSymbolTableRecord
100
AcDbLinetypeTableRecord
  2
BYBLOCK
 70
0
  3

 72
65
 73
0
 40
0.0
  0
LTYPE
  5
4E
100
AcDbSymbolTableRecord
100
AcDbLinetypeTableRecord
  2
BORDER
 70
0
  3
Border __ __ . __ __ . __ __ . __ __ . __ __ .
 72
65
 73
6
 40
44.4499999999999957
 49
12.6999999999999993
 74
0
 49
-6.3499999999999996
 74
0
 49
12.6999999999999993
 74
0
 49
-6.2999999999999998
 74
0
 49
0.1
 74
0
 49
-6.2999999999999998
 74
0
  0
LTYPE
  5
4F
100
AcDbSymbolTableRecord
100
AcDbLinetypeTableRecord
  2
ACAD_ISO06W100
 70
0
  3
ISO long-dash triple-dot ____ ... ____ ... ____
 72
65
 73
8
 40
36.0000000000000071
 49
24.0
 74
0
 49
-2.9500000000000002
 74
0
 49
0.1
 74
0
 49
-2.9000000000000004
 74
0
 49
0.1
 74
0
 49
-2.9000000000000004
 74
0
 49
0.1
 74
0
 49
-2.9500000000000002
 74
0
  0
LTYPE
  5
50
100
AcDbSymbolTableRecord
100
AcDbLinetypeTableRecord
  2
CENTER
 70
0
  3
Center ____ _ ____ _ ____ _ ____ _ ____ _ ____
 72
65
 73
4
 40
50.8000000000000043
 49
31.75
 74
0
 49
-6.3499999999999996
 74
0
 49
6.3499999999999996
 74
0
 49
-6.3499999999999996
 74
0
  0
LTYPE
  5
51
100
AcDbSymbolTableRecord
100
AcDbLinetypeTableRecord
  2
DIVIDE
 70
0
  3
Divide ____ . . ____ . . ____ . . ____ . . ____
 72
65
 73
6
 40
31.7500000000000036
 49
12.6999999999999993
 74
0
 49
-6.2999999999999998
 74
0
 49
0.1
 74
0
 49
-6.25
 74
0
 49
0.1
 74
0
 49
-6.2999999999999998
 74
0
  0
LTYPE
  5
52
100
AcDbSymbolTableRecord
100
AcDbLinetypeTableRecord
  2
ACAD_ISO09W100
 70
0
  3
ISO long-dash double-short-dash ____ __ __ ____
 72
65
 73
6
 40
45.0
 49
24.0
 74
0
 49
-3.0
 74
0
 49
6.0
 74
0
 49
-3.0
 74
0
 49
6.0
 74
0
 49
-3.0
 74
0
  0
LTYPE
  5
53
100
AcDbSymbolTableRecord
100
AcDbLinetypeTableRecord
  2
ACAD_ISO04W100
 70
0
  3
ISO long-dash dot ____ . ____ . ____ . ____ . _
 72
65
 73
4
 40
30.0
 49
24.0
 74
0
 49
-2.9500000000000002
 74
0
 49
0.1
 74
0
 49
-2.9500000000000002
 74
0
  0
LTYPE
  5
54
100
AcDbSymbolTableRecord
100
AcDbLinetypeTableRecord
  2
ACAD_ISO02W100
 70
0
  3
ISO dash __ __ __ __ __ __ __ __ __ __ __ __ __
 72
65
 73
2
 40
15.0
 49
12.0
 74
0
 49
-3.0
 74
0
  0
LTYPE
  5
55
100
AcDbSymbolTableRecord
100
AcDbLinetypeTableRecord
  2
ACAD_ISO07W100
 70
0
  3
ISO dot . . . . . . . . . . . . . . . . . . . . 
 72
65
 73
2
 40
3.0
 49
0.1
 74
0
 49
-2.8999999999999999
 74
0
  0
LTYPE
  5
56
100
AcDbSymbolTableRecord
100
AcDbLinetypeTableRecord
  2
DASHDOT2
 70
0
  3
Dash dot (.5x) _._._._._._._._._._._._._._._.
 72
65
 73
4
 40
12.6999999999999993
 49
6.3499999999999996
 74
0
 49
-3.125
 74
0
 49
0.1
 74
0
 49
-3.125
 74
0
  0
ENDTAB
  0
TABLE
  2
LAYER
  5
2
100
AcDbSymbolTable
 70
1
  0
LAYER
  5
10
100
AcDbSymbolTableRecord
100
AcDbLayerTableRecord
  2
0
 70
0
 62
7
420
16777215
  6
CONTINUOUS
370
25
390
F
  0
ENDTAB
  0
TABLE
  2
STYLE
  5
3
100
AcDbSymbolTable
 70
1
  0
STYLE
  5
57
100
AcDbSymbolTableRecord
100
AcDbTextStyleTableRecord
  2
Standard
 70
0
 40
0.0
 41
1.0
 50
0.0
 71
0
 42
2.5
  3

  4

1001
ACAD
1000
txt
1071
0
  0
ENDTAB
  0
TABLE
  2
VIEW
  5
6
100
AcDbSymbolTable
 70
0
  0
ENDTAB
  0
TABLE
  2
UCS
  5
7
100
AcDbSymbolTable
 70
0
  0
ENDTAB
  0
TABLE
  2
APPID
  5
9
100
AcDbSymbolTable
 70
1
  0
APPID
  5
12
100
AcDbSymbolTableRecord
100
AcDbRegAppTableRecord
  2
ACAD
 70
0
  0
APPID
  5
58
100
AcDbSymbolTableRecord
100
AcDbRegAppTableRecord
  2
QCAD
 70
0
  0
ENDTAB
  0
TABLE
  2
DIMSTYLE
  5
A
100
AcDbSymbolTable
 70
1
100
AcDbDimStyleTable
 71
0
  0
DIMSTYLE
105
27
100
AcDbSymbolTableRecord
100
AcDbDimStyleTableRecord
  2
Standard
 41
0.18
 42
0.0625
 43
3.75
 44
0.18
 70
0
 73
0
 74
0
 77
0
 78
8
140
0.18
141
2.5
143
0.03937007874016
147
0.09
171
3
172
1
271
2
272
2
274
3
278
44
283
0
284
8
340
57
  0
ENDTAB
  0
TABLE
  2
BLOCK_RECORD
  5
1
100
AcDbSymbolTable
 70
1
  0
BLOCK_RECORD
  5
1F
100
AcDbSymbolTableRecord
100
AcDbBlockTableRecord
  2
*Model_Space
340
22
  0
BLOCK_RECORD
  5
1B
100
AcDbSymbolTableRecord
100
AcDbBlockTableRecord
  2
*Paper_Space
340
1E
  0
BLOCK_RECORD
  5
23
100
AcDbSymbolTableRecord
100
AcDbBlockTableRecord
  2
*Paper_Space0
340
26
  0
BLOCK_RECORD
  5
59
100
AcDbSymbolTableRecord
100
AcDbBlockTableRecord
  2
Edit this
340
0
  0
BLOCK_RECORD
  5
5A
100
AcDbSymbolTableRecord
100
AcDbBlockTableRecord
  2
keys
340
0
  0
ENDTAB
  0
ENDSEC
  0
SECTION
  2
BLOCKS
  0
BLOCK
  5
20
100
AcDbEntity
  8
0
100
AcDbBlockBegin
  2
*Model_Space
 70
0
 10
0.0
 20
0.0
 30
0.0
  3
*Model_Space
  1

  0
ENDBLK
  5
21
100
AcDbEntity
  8
0
100
AcDbBlockEnd
  0
BLOCK
  5
1C
100
AcDbEntity
 67
1
  8
0
100
AcDbBlockBegin
  2
*Paper_Space
 70
0
 10
0.0
 20
0.0
 30
0.0
  3
*Paper_Space
  1

  0
ENDBLK
  5
1D
100
AcDbEntity
 67
1
  8
0
100
AcDbBlockEnd
  0
BLOCK
  5
24
100
AcDbEntity
  8
0
100
AcDbBlockBegin
  2
*Paper_Space0
 70
0
 10
0.0
 20
0.0
 30
0.0
  3
*Paper_Space0
  1

  0
ENDBLK
  5
25
100
AcDbEntity
  8
0
100
AcDbBlockEnd
  0
BLOCK
  5
5B
100
AcDbEntity
  8
0
100
AcDbBlockBegin
  2
Edit this
 70
0
 10
0.0
 20
0.0
 30
0.0
  3
Edit this
  1

  0
LINE
  5
5C
100
AcDbEntity
  8
0
 62
256
370
-1
 48
1.0
  6
BYLAYER
100
AcDbLine
 10
-267.8157410000000027
 20
79.5948582499999873
 30
0.0
 11
-241.7657409999999913
 21
79.5948582499999873
 31
0.0
  0
LINE
  5
5D
100
AcDbEntity
  8
0
 62
256
370
-1
 48
1.0
  6
BYLAYER
100
AcDbLine
 10
-241.7657409999999913
 20
79.5948582499999873
 30
0.0
 11
-241.7657409999999913
 21
85.3098582499999907
 31
0.0
  0
LINE
  5
5E
100
AcDbEntity
  8
0
 62
256
370
-1
 48
1.0
  6
BYLAYER
100
AcDbLine
 10
-267.8157410000000027
 20
79.5948582499999873
 30
0.0
 11
-267.8157410000000027
 21
145.6498582499999941
 31
0.0
  0
LINE
  5
5F
100
AcDbEntity
  8
0
 62
256
370
-1
 48
1.0
  6
BYLAYER
100
AcDbLine
 10
-246.8607409999999902
 20
145.6498582499999941
 30
0.0
 11
-267.8157410000000027
 21
145.6498582499999941
 31
0.0
  0
LINE
  5
60
100
AcDbEntity
  8
0
 62
256
370
-1
 48
1.0
  6
BYLAYER
100
AcDbLine
 10
-241.7657409999999913
 20
85.3098582499999907
 30
0.0
 11
-220.8107410000000073
 21
85.3098582499999907
 31
0.0
  0
LINE
  5
61
100
AcDbEntity
  8
0
 62
256
370
-1
 48
1.0
  6
BYLAYER
100
AcDbLine
 10
-220.8107410000000073
 20
85.3098582499999907
 30
0.0
 11
-220.8107410000000073
 21
95.7873582499999969
 31
0.0
  0
LINE
  5
62
100
AcDbEntity
  8
0
 62
256
370
-1
 48
1.0
  6
BYLAYER
100
AcDbLine
 10
-225.9057409999999777
 20
151.3648582499999975
 30
0.0
 11
-246.8607409999999902
 21
151.3648582499999975
 31
0.0
  0
LINE
  5
63
100
AcDbEntity
  8
0
 62
256
370
-1
 48
1.0
  6
BYLAYER
100
AcDbLine
 10
-246.8607409999999902
 20
151.3648582499999975
 30
0.0
 11
-246.8607409999999902
 21
145.6498582499999941
 31
0.0
  0
LINE
  5
64
100
AcDbEntity
  8
0
 62
256
370
-1
 48
1.0
  6
BYLAYER
100
AcDbLine
 10
-220.8107410000000073
 20
95.7873582499999969
 30
0.0
 11
-204.9507409999999936
 21
95.7873582499999969
 31
0.0
  0
LINE
  5
65
100
AcDbEntity
  8
0
 62
256
370
-1
 48
1.0
  6
BYLAYER
100
AcDbLine
 10
-199.8557409999999948
 20
158.0323582499999873
 30
0.0
 11
-199.8557409999999948
 21
161.8423582499999895
 31
0.0
  0
LINE
  5
66
100
AcDbEntity
  8
0
 62
256
370
-1
 48
1.0
  6
BYLAYER
100
AcDbLine
 10
-199.8557409999999948
 20
161.8423582499999895
 30
0.0
 11
-225.9057409999999777
 21
161.8423582499999895
 31
0.0
  0
LINE
  5
67
100
AcDbEntity
  8
0
 62
256
370
-1
 48
1.0
  6
BYLAYER
100
AcDbLine
 10
-225.9057409999999777
 20
161.8423582499999895
 30
0.0
 11
-225.9057409999999777
 21
151.3648582499999975
 31
0.0
  0
LINE
  5
68
100
AcDbEntity
  8
0
 62
256
370
-1
 48
1.0
  6
BYLAYER
100
AcDbLine
 10
-204.9507409999999936
 20
91.9773582499999947
 30
0.0
 11
-185.5802826000000039
 21
91.9773582499999947
 31
0.0
  0
LINE
  5
69
100
AcDbEntity
  8
0
 62
256
370
-1
 48
1.0
  6
BYLAYER
100
AcDbLine
 10
-204.9507409999999936
 20
95.7873582499999969
 30
0.0
 11
-204.9507409999999936
 21
91.9773582499999947
 31
0.0
  0
LINE
  5
6A
100
AcDbEntity
  8
0
 62
256
370
-1
 48
1.0
  6
BYLAYER
100
AcDbLine
 10
-178.9007410000000107
 20
154.2862940021659028
 30
0.0
 11
-178.9007409999999823
 21
158.0323582499999873
 31
0.0
  0
LINE
  5
6B
100
AcDbEntity
  8
0
 62
256
370
-1
 48
1.0
  6
BYLAYER
100
AcDbLine
 10
-178.9007409999999823
 20
158.0323582499999873
 30
0.0
 11
-199.8557409999999948
 21
158.0323582499999873
 31
0.0
  0
LINE
  5
6C
100
AcDbEntity
  8
0
 62
256
370
-1
 48
1.0
  6
BYLAYER
100
AcDbLine
 10
-143.710455135100176
 20
80.1381981310832998
 30
0.0
 11
-143.7104551351001476
 21
154.2862940021659028
 31
0.0
  0
LINE
  5
6D
100
AcDbEntity
  8
0
 62
256
370
-1
 48
1.0
  6
BYLAYER
100
AcDbLine
 10
-143.7104551351001476
 20
154.2862940021659028
 30
0.0
 11
-178.9007990810432602
 21
154.2862940021659028
 31
0.0
  0
LINE
  5
6E
100
AcDbEntity
  8
0
 62
256
370
-1
 48
1.0
  6
BYLAYER
100
AcDbLine
 10
-193.3800497999999948
 20
70.54767425
 30
0.0
 11
-180.8962333000000058
 21
66.00393665
 31
0.0
  0
LINE
  5
6F
100
AcDbEntity
  8
0
 62
256
370
-1
 48
1.0
  6
BYLAYER
100
AcDbLine
 10
-185.5802826000000039
 20
91.9773582499999947
 30
0.0
 11
-193.3800497999999948
 21
70.54767425
 31
0.0
  0
LINE
  5
70
100
AcDbEntity
  8
0
 62
256
370
-1
 48
1.0
  6
BYLAYER
100
AcDbLine
 10
-188.0632653999999775
 20
46.31267785
 30
0.0
 11
-163.5842725999999914
 21
37.4030530499999827
 31
0.0
  0
LINE
  5
71
100
AcDbEntity
  8
0
 62
256
370
-1
 48
1.0
  6
BYLAYER
100
AcDbLine
 10
-163.5842725999999914
 20
37.4030530499999827
 30
0.0
 11
-156.4343413999999939
 21
57.0473273499999891
 31
0.0
  0
LINE
  5
72
100
AcDbEntity
  8
0
 62
256
370
-1
 48
1.0
  6
BYLAYER
100
AcDbLine
 10
-180.8962333000000058
 20
66.00393665
 30
0.0
 11
-188.0632653999999775
 21
46.31267785
 31
0.0
  0
LINE
  5
73
100
AcDbEntity
  8
0
 62
256
370
-1
 48
1.0
  6
BYLAYER
100
AcDbLine
 10
-156.4343413999999939
 20
57.0473273499999891
 30
0.0
 11
-149.273883799999993
 21
54.4411338499999999
 31
0.0
  0
LINE
  5
74
100
AcDbEntity
  8
0
 62
256
370
-1
 48
1.0
  6
BYLAYER
100
AcDbLine
 10
-149.273883799999993
 20
54.4411338499999999
 30
0.0
 11
-140.3642590000000041
 21
78.9201266499999861
 31
0.0
  0
LINE
  5
75
100
AcDbEntity
  8
0
 62
256
370
-1
 48
1.0
  6
BYLAYER
100
AcDbLine
 10
-140.3642590000000041
 20
78.9201266499999861
 30
0.0
 11
-143.7104551351001192
 21
80.1381981310832998
 31
0.0
  0
INSERT
  5
76
100
AcDbEntity
  8
0
 62
256
370
-1
 48
1.0
  6
BYLAYER
100
AcDbBlockReference
  2
keys
 10
-260.0
 20
40.0
 30
0.0
  0
ENDBLK
  5
77
100
AcDbEntity
  8
0
100
AcDbBlockEnd
  0
BLOCK
  5
78
100
AcDbEntity
  8
0
100
AcDbBlockBegin
  2
keys
 70
0
 10
0.0
 20
0.0
 30
0.0
  3
keys
  1

  0
LINE
  5
79
100
AcDbEntity
  8
0
 62
256
370
-1
 48
1.0
  6
BYLAYER
100
AcDbLine
 10
-4.0
 20
61.4302056500000049
 30
0.0
 11
14.0
 21
61.4302056500000049
 31
0.0
  0
LINE
  5
7A
100
AcDbEntity
  8
0
 62
256
370
-1
 48
1.0
  6
BYLAYER
100
AcDbLine
 10
14.0
 20
61.4302056500000049
 30
0.0
 11
14.0
 21
43.4302056500000049
 31
0.0
  0
LINE
  5
7B
100
AcDbEntity
  8
0
 62
256
370
-1
 48
1.0
  6
BYLAYER
100
AcDbLine
 10
14.0
 20
43.4302056500000049
 30
0.0
 11
-4.0
 21
43.4302056500000049
 31
0.0
  0
LINE
  5
7C
100
AcDbEntity
  8
0
 62
256
370
-1
 48
1.0
  6
BYLAYER
100
AcDbLine
 10
-4.0
 20
43.4302056500000049
 30
0.0
 11
-4.0
 21
61.4302056500000049
 31
0.0
  0
LINE
  5
7D
100
AcDbEntity
  8
0
 62
256
370
-1
 48
1.0
  6
BYLAYER
100
AcDbLine
 10
-4.0
 20
81.4327056500000026
 30
0.0
 11
14.0
 21
81.4327056500000026
 31
0.0
  0
LINE
  5
7E
100
AcDbEntity
  8
0
 62
256
370
-1
 48
1.0
  6
BYLAYER
100
AcDbLine
 10
14.0
 20
81.4327056500000026
 30
0.0
 11
14.0
 21
63.4327056500000026
 31
0.0
  0
LINE
  5
7F
100
AcDbEntity
  8
0
 62
256
370
-1
 48
1.0
  6
BYLAYER
100
AcDbLine
 10
14.0
 20
63.4327056500000026
 30
0.0
 11
-4.0
 21
63.4327056500000026
 31
0.0
  0
LINE
  5
80
100
AcDbEntity
  8
0
 62
256
370
-1
 48
1.0
  6
BYLAYER
100
AcDbLine
 10
-4.0
 20
63.4327056500000026
 30
0.0
 11
-4.0
 21
81.4327056500000026
 31
0.0
  0
LINE
  5
81
100
AcDbEntity
  8
0
 62
256
370
-1
 48
1.0
  6
BYLAYER
100
AcDbLine
 10
-4.0
 20
101.4352056500000003
 30
0.0
 11
14.0
 21
101.4352056500000003
 31
0.0
  0
LINE
  5
82
100
AcDbEntity
  8
0
 62
256
370
-1
 48
1.0
  6
BYLAYER
100
AcDbLine
 10
14.0
 20
101.4352056500000003
 30
0.0
 11
14.0
 21
83.4352056500000003
 31
0.0
  0
LINE
  5
83
100
AcDbEntity
  8
0
 62
256
370
-1
 48
1.0
  6
BYLAYER
100
AcDbLine
 10
14.0
 20
83.4352056500000003
 30
0.0
 11
-4.0
 21
83.4352056500000003
 31
0.0
  0
LINE
  5
84
100
AcDbEntity
  8
0
 62
256
370
-1
 48
1.0
  6
BYLAYER
100
AcDbLine
 10
-4.0
 20
83.4352056500000003
 30
0.0
 11
-4.0
 21
101.4352056500000003
 31
0.0
  0
LINE
  5
85
100
AcDbEntity
  8
0
 62
256
370
-1
 48
1.0
  6
BYLAYER
100
AcDbLine
 10
16.9549999999999983
 20
67.1452056500000083
 30
0.0
 11
34.9549999999999983
 21
67.1452056500000083
 31
0.0
  0
LINE
  5
86
100
AcDbEntity
  8
0
 62
256
370
-1
 48
1.0
  6
BYLAYER
100
AcDbLine
 10
34.9549999999999983
 20
67.1452056500000083
 30
0.0
 11
34.9549999999999983
 21
49.1452056500000083
 31
0.0
  0
LINE
  5
87
100
AcDbEntity
  8
0
 62
256
370
-1
 48
1.0
  6
BYLAYER
100
AcDbLine
 10
34.9549999999999983
 20
49.1452056500000083
 30
0.0
 11
16.9549999999999983
 21
49.1452056500000083
 31
0.0
  0
LINE
  5
88
100
AcDbEntity
  8
0
 62
256
370
-1
 48
1.0
  6
BYLAYER
100
AcDbLine
 10
16.9549999999999983
 20
49.1452056500000083
 30
0.0
 11
16.9549999999999983
 21
67.1452056500000083
 31
0.0
  0
LINE
  5
89
100
AcDbEntity
  8
0
 62
256
370
-1
 48
1.0
  6
BYLAYER
100
AcDbLine
 10
16.9549999999999983
 20
87.147705650000006
 30
0.0
 11
34.9549999999999983
 21
87.147705650000006
 31
0.0
  0
LINE
  5
8A
100
AcDbEntity
  8
0
 62
256
370
-1
 48
1.0
  6
BYLAYER
100
AcDbLine
 10
34.9549999999999983
 20
87.147705650000006
 30
0.0
 11
34.9549999999999983
 21
69.147705650000006
 31
0.0
  0
LINE
  5
8B
100
AcDbEntity
  8
0
 62
256
370
-1
 48
1.0
  6
BYLAYER
100
AcDbLine
 10
34.9549999999999983
 20
69.147705650000006
 30
0.0
 11
16.9549999999999983
 21
69.147705650000006
 31
0.0
  0
LINE
  5
8C
100
AcDbEntity
  8
0
 62
256
370
-1
 48
1.0
  6
BYLAYER
100
AcDbLine
 10
16.9549999999999983
 20
69.147705650000006
 30
0.0
 11
16.9549999999999983
 21
87.147705650000006
 31
0.0
  0
LINE
  5
8D
100
AcDbEntity
  8
0
 62
256
370
-1
 48
1.0
  6
BYLAYER
100
AcDbLine
 10
16.9549999999999983
 20
107.1502056500000037
 30
0.0
 11
34.9549999999999983
 21
107.1502056500000037
 31
0.0
  0
LINE
  5
8E
100
AcDbEntity
  8
0
 62
256
370
-1
 48
1.0
  6
BYLAYER
100
AcDbLine
 10
34.9549999999999983
 20
107.1502056500000037
 30
0.0
 11
34.9549999999999983
 21
89.1502056500000037
 31
0.0
  0
LINE
  5
8F
100
AcDbEntity
  8
0
 62
256
370
-1
 48
1.0
  6
BYLAYER
100
AcDbLine
 10
34.9549999999999983
 20
89.1502056500000037
 30
0.0
 11
16.9549999999999983
 21
89.1502056500000037
 31
0.0
  0
LINE
  5
90
100
AcDbEntity
  8
0
 62
256
370
-1
 48
1.0
  6
BYLAYER
100
AcDbLine
 10
16.9549999999999983
 20
89.1502056500000037
 30
0.0
 11
16.9549999999999983
 21
107.1502056500000037
 31
0.0
  0
LINE
  5
91
100
AcDbEntity
  8
0
 62
256
370
-1
 48
1.0
  6
BYLAYER
100
AcDbLine
 10
37.9099999999999966
 20
77.6227056500000003
 30
0.0
 11
55.9099999999999966
 21
77.6227056500000003
 31
0.0
  0
LINE
  5
92
100
AcDbEntity
  8
0
 62
256
370
-1
 48
1.0
  6
BYLAYER
100
AcDbLine
 10
55.9099999999999966
 20
77.6227056500000003
 30
0.0
 11
55.9099999999999966
 21
59.6227056500000003
 31
0.0
  0
LINE
  5
93
100
AcDbEntity
  8
0
 62
256
370
-1
 48
1.0
  6
BYLAYER
100
AcDbLine
 10
55.9099999999999966
 20
59.6227056500000003
 30
0.0
 11
37.9099999999999966
 21
59.6227056500000003
 31
0.0
  0
LINE
  5
94
100
AcDbEntity
  8
0
 62
256
370
-1
 48
1.0
  6
BYLAYER
100
AcDbLine
 10
37.9099999999999966
 20
59.6227056500000003
 30
0.0
 11
37.9099999999999966
 21
77.6227056500000003
 31
0.0
  0
LINE
  5
95
100
AcDbEntity
  8
0
 62
256
370
-1
 48
1.0
  6
BYLAYER
100
AcDbLine
 10
37.9099999999999966
 20
97.6252056499999981
 30
0.0
 11
55.9099999999999966
 21
97.6252056499999981
 31
0.0
  0
LINE
  5
96
100
AcDbEntity
  8
0
 62
256
370
-1
 48
1.0
  6
BYLAYER
100
AcDbLine
 10
55.9099999999999966
 20
97.6252056499999981
 30
0.0
 11
55.9099999999999966
 21
79.6252056499999981
 31
0.0
  0
LINE
  5
97
100
AcDbEntity
  8
0
 62
256
370
-1
 48
1.0
  6
BYLAYER
100
AcDbLine
 10
55.9099999999999966
 20
79.6252056499999981
 30
0.0
 11
37.9099999999999966
 21
79.6252056499999981
 31
0.0
  0
LINE
  5
98
100
AcDbEntity
  8
0
 62
256
370
-1
 48
1.0
  6
BYLAYER
100
AcDbLine
 10
37.9099999999999966
 20
79.6252056499999981
 30
0.0
 11
37.9099999999999966
 21
97.6252056499999981
 31
0.0
  0
LINE
  5
99
100
AcDbEntity
  8
0
 62
256
370
-1
 48
1.0
  6
BYLAYER
100
AcDbLine
 10
37.9099999999999966
 20
117.6277056499999958
 30
0.0
 11
55.9099999999999966
 21
117.6277056499999958
 31
0.0
  0
LINE
  5
9A
100
AcDbEntity
  8
0
 62
256
370
-1
 48
1.0
  6
BYLAYER
100
AcDbLine
 10
55.9099999999999966
 20
117.6277056499999958
 30
0.0
 11
55.9099999999999966
 21
99.6277056499999958
 31
0.0
  0
LINE
  5
9B
100
AcDbEntity
  8
0
 62
256
370
-1
 48
1.0
  6
BYLAYER
100
AcDbLine
 10
55.9099999999999966
 20
99.6277056499999958
 30
0.0
 11
37.9099999999999966
 21
99.6277056499999958
 31
0.0
  0
LINE
  5
9C
100
AcDbEntity
  8
0
 62
256
370
-1
 48
1.0
  6
BYLAYER
100
AcDbLine
 10
37.9099999999999966
 20
99.6277056499999958
 30
0.0
 11
37.9099999999999966
 21
117.6277056499999958
 31
0.0
  0
LINE
  5
9D
100
AcDbEntity
  8
0
 62
256
370
-1
 48
1.0
  6
BYLAYER
100
AcDbLine
 10
58.8649999999999949
 20
73.8127056499999981
 30
0.0
 11
76.8649999999999949
 21
73.8127056499999981
 31
0.0
  0
LINE
  5
9E
100
AcDbEntity
  8
0
 62
256
370
-1
 48
1.0
  6
BYLAYER
100
AcDbLine
 10
76.8649999999999949
 20
73.8127056499999981
 30
0.0
 11
76.8649999999999949
 21
55.8127056499999981
 31
0.0
  0
LINE
  5
9F
100
AcDbEntity
  8
0
 62
256
370
-1
 48
1.0
  6
BYLAYER
100
AcDbLine
 10
76.8649999999999949
 20
55.8127056499999981
 30
0.0
 11
58.8649999999999949
 21
55.8127056499999981
 31
0.0
  0
LINE
  5
A0
100
AcDbEntity
  8
0
 62
256
370
-1
 48
1.0
  6
BYLAYER
100
AcDbLine
 10
58.8649999999999949
 20
55.8127056499999981
 30
0.0
 11
58.8649999999999949
 21
73.8127056499999981
 31
0.0
  0
LINE
  5
A1
100
AcDbEntity
  8
0
 62
256
370
-1
 48
1.0
  6
BYLAYER
100
AcDbLine
 10
58.8649999999999949
 20
93.8152056499999958
 30
0.0
 11
76.8649999999999949
 21
93.8152056499999958
 31
0.0
  0
LINE
  5
A2
100
AcDbEntity
  8
0
 62
256
370
-1
 48
1.0
  6
BYLAYER
100
AcDbLine
 10
76.8649999999999949
 20
93.8152056499999958
 30
0.0
 11
76.8649999999999949
 21
75.81520565000001
 31
0.0
  0
LINE
  5
A3
100
AcDbEntity
  8
0
 62
256
370
-1
 48
1.0
  6
BYLAYER
100
AcDbLine
 10
76.8649999999999949
 20
75.81520565000001
 30
0.0
 11
58.8649999999999949
 21
75.81520565000001
 31
0.0
  0
LINE
  5
A4
100
AcDbEntity
  8
0
 62
256
370
-1
 48
1.0
  6
BYLAYER
100
AcDbLine
 10
58.8649999999999949
 20
75.81520565000001
 30
0.0
 11
58.8649999999999949
 21
93.8152056499999958
 31
0.0
  0
LINE
  5
A5
100
AcDbEntity
  8
0
 62
256
370
-1
 48
1.0
  6
BYLAYER
100
AcDbLine
 10
58.8649999999999949
 20
113.8177056500000077
 30
0.0
 11
76.8649999999999949
 21
113.8177056500000077
 31
0.0
  0
LINE
  5
A6
100
AcDbEntity
  8
0
 62
256
370
-1
 48
1.0
  6
BYLAYER
100
AcDbLine
 10
76.8649999999999949
 20
113.8177056500000077
 30
0.0
 11
76.8649999999999949
 21
95.8177056500000077
 31
0.0
  0
LINE
  5
A7
100
AcDbEntity
  8
0
 62
256
370
-1
 48
1.0
  6
BYLAYER
100
AcDbLine
 10
76.8649999999999949
 20
95.8177056500000077
 30
0.0
 11
58.8649999999999949
 21
95.8177056500000077
 31
0.0
  0
LINE
  5
A8
100
AcDbEntity
  8
0
 62
256
370
-1
 48
1.0
  6
BYLAYER
100
AcDbLine
 10
58.8649999999999949
 20
95.8177056500000077
 30
0.0
 11
58.8649999999999949
 21
113.8177056500000077
 31
0.0
  0
LINE
  5
A9
100
AcDbEntity
  8
0
 62
256
370
-1
 48
1.0
  6
BYLAYER
100
AcDbLine
 10
79.8199999999999932
 20
70.00270565000001
 30
0.0
 11
97.8199999999999932
 21
70.00270565000001
 31
0.0
  0
LINE
  5
AA
100
AcDbEntity
  8
0
 62
256
370
-1
 48
1.0
  6
BYLAYER
100
AcDbLine
 10
97.8199999999999932
 20
70.00270565000001
 30
0.0
 11
97.8199999999999932
 21
52.00270565000001
 31
0.0
  0
LINE
  5
AB
100
AcDbEntity
  8
0
 62
256
370
-1
 48
1.0
  6
BYLAYER
100
AcDbLine
 10
97.8199999999999932
 20
52.00270565000001
 30
0.0
 11
79.8199999999999932
 21
52.00270565000001
 31
0.0
  0
LINE
  5
AC
100
AcDbEntity
  8
0
 62
256
370
-1
 48
1.0
  6
BYLAYER
100
AcDbLine
 10
79.8199999999999932
 20
52.00270565000001
 30
0.0
 11
79.8199999999999932
 21
70.00270565000001
 31
0.0
  0
LINE
  5
AD
100
AcDbEntity
  8
0
 62
256
370
-1
 48
1.0
  6
BYLAYER
100
AcDbLine
 10
79.8199999999999932
 20
90.0052056500000077
 30
0.0
 11
97.8199999999999932
 21
90.0052056500000077
 31
0.0
  0
LINE
  5
AE
100
AcDbEntity
  8
0
 62
256
370
-1
 48
1.0
  6
BYLAYER
100
AcDbLine
 10
97.8199999999999932
 20
90.0052056500000077
 30
0.0
 11
97.8199999999999932
 21
72.0052056500000077
 31
0.0
  0
LINE
  5
AF
100
AcDbEntity
  8
0
 62
256
370
-1
 48
1.0
  6
BYLAYER
100
AcDbLine
 10
97.8199999999999932
 20
72.0052056500000077
 30
0.0
 11
79.8199999999999932
 21
72.0052056500000077
 31
0.0
  0
LINE
  5
B0
100
AcDbEntity
  8
0
 62
256
370
-1
 48
1.0
  6
BYLAYER
100
AcDbLine
 10
79.8199999999999932
 20
72.0052056500000077
 30
0.0
 11
79.8199999999999932
 21
90.0052056500000077
 31
0.0
  0
LINE
  5
B1
100
AcDbEntity
  8
0
 62
256
370
-1
 48
1.0
  6
BYLAYER
100
AcDbLine
 10
79.8199999999999932
 20
110.0077056500000054
 30
0.0
 11
97.8199999999999932
 21
110.0077056500000054
 31
0.0
  0
LINE
  5
B2
100
AcDbEntity
  8
0
 62
256
370
-1
 48
1.0
  6
BYLAYER
100
AcDbLine
 10
97.8199999999999932
 20
110.0077056500000054
 30
0.0
 11
97.8199999999999932
 21
92.0077056500000054
 31
0.0
  0
LINE
  5
B3
100
AcDbEntity
  8
0
 62
256
370
-1
 48
1.0
  6
BYLAYER
100
AcDbLine
 10
97.8199999999999932
 20
92.0077056500000054
 30
0.0
 11
79.8199999999999932
 21
92.0077056500000054
 31
0.0
  0
LINE
  5
B4
100
AcDbEntity
  8
0
 62
256
370
-1
 48
1.0
  6
BYLAYER
100
AcDbLine
 10
79.8199999999999932
 20
92.0077056500000054
 30
0.0
 11
79.8199999999999932
 21
110.0077056500000054
 31
0.0
  0
LINE
  5
B5
100
AcDbEntity
  8
0
 62
256
370
-1
 48
1.0
  6
BYLAYER
100
AcDbLine
 10
77.7259477000000061
 20
49.6781205500000027
 30
0.0
 11
94.6404148999999961
 21
43.5217579500000085
 31
0.0
  0
LINE
  5
B6
100
AcDbEntity
  8
0
 62
256
370
-1
 48
1.0
  6
BYLAYER
100
AcDbLine
 10
94.6404148999999961
 20
43.5217579500000085
 30
0.0
 11
88.4840523000000019
 21
26.6072907500000042
 31
0.0
  0
LINE
  5
B7
100
AcDbEntity
  8
0
 62
256
370
-1
 48
1.0
  6
BYLAYER
100
AcDbLine
 10
88.4840523000000019
 20
26.6072907500000042
 30
0.0
 11
71.5695850999999976
 21
32.7636533499999985
 31
0.0
  0
LINE
  5
B8
100
AcDbEntity
  8
0
 62
256
370
-1
 48
1.0
  6
BYLAYER
100
AcDbLine
 10
71.5695850999999976
 20
32.7636533499999985
 30
0.0
 11
77.7259477000000061
 21
49.6781205500000027
 31
0.0
  0
LINE
  5
B9
100
AcDbEntity
  8
0
 62
256
370
-1
 48
1.0
  6
BYLAYER
100
AcDbLine
 10
83.0427320999999949
 20
25.4431241500000027
 30
0.0
 11
99.9571993000000134
 21
19.2867615499999943
 31
0.0
  0
LINE
  5
BA
100
AcDbEntity
  8
0
 62
256
370
-1
 48
1.0
  6
BYLAYER
100
AcDbLine
 10
99.9571993000000134
 20
19.2867615499999943
 30
0.0
 11
93.8008366999999907
 21
2.3722943500000042
 31
0.0
  0
LINE
  5
BB
100
AcDbEntity
  8
0
 62
256
370
-1
 48
1.0
  6
BYLAYER
100
AcDbLine
 10
93.8008366999999907
 20
2.3722943500000042
 30
0.0
 11
76.8863695000000007
 21
8.5286569499999985
 31
0.0
  0
LINE
  5
BC
100
AcDbEntity
  8
0
 62
256
370
-1
 48
1.0
  6
BYLAYER
100
AcDbLine
 10
76.8863695000000007
 20
8.5286569499999985
 30
0.0
 11
83.0427320999999949
 21
25.4431241500000027
 31
0.0
  0
LINE
  5
BD
100
AcDbEntity
  8
0
 62
256
370
-1
 48
1.0
  6
BYLAYER
100
AcDbLine
 10
97.3531208999999933
 20
42.4812049500000057
 30
0.0
 11
114.2675881000000118
 21
36.3248423500000115
 31
0.0
  0
LINE
  5
BE
100
AcDbEntity
  8
0
 62
256
370
-1
 48
1.0
  6
BYLAYER
100
AcDbLine
 10
114.2675881000000118
 20
36.3248423500000115
 30
0.0
 11
108.1112254999999891
 21
19.410375149999993
 31
0.0
  0
LINE
  5
BF
100
AcDbEntity
  8
0
 62
256
370
-1
 48
1.0
  6
BYLAYER
100
AcDbLine
 10
108.1112254999999891
 20
19.410375149999993
 30
0.0
 11
91.1967582999999991
 21
25.5667377500000015
 31
0.0
  0
LINE
  5
C0
100
AcDbEntity
  8
0
 62
256
370
-1
 48
1.0
  6
BYLAYER
100
AcDbLine
 10
91.1967582999999991
 20
25.5667377500000015
 30
0.0
 11
97.3531208999999933
 21
42.4812049500000057
 31
0.0
  0
ENDBLK
  5
C1
100
AcDbEntity
  8
0
100
AcDbBlockEnd
  0
ENDSEC
  0
SECTION
  2
ENTITIES
  0
LINE
  5
C2
100
AcDbEntity
  8
0
 62
256
370
-1
 48
1.0
  6
BYLAYER
100
AcDbLine
 10
209.4294612450293869
 20
35.5545914674692511
 30
0.0
 11
235.4794612450293982
 21
35.5545914674692511
 31
0.0
  0
LINE
  5
C3
100
AcDbEntity
  8
0
 62
256
370
-1
 48
1.0
  6
BYLAYER
100
AcDbLine
 10
235.4794612450293982
 20
35.5545914674692511
 30
0.0
 11
235.4794612450293982
 21
41.2695914674692546
 31
0.0
  0
LINE
  5
C4
100
AcDbEntity
  8
0
 62
256
370
-1
 48
1.0
  6
BYLAYER
100
AcDbLine
 10
209.4294612450293869
 20
35.5545914674692511
 30
0.0
 11
209.4294612450293869
 21
101.609591467469258
 31
0.0
  0
LINE
  5
C5
100
AcDbEntity
  8
0
 62
256
370
-1
 48
1.0
  6
BYLAYER
100
AcDbLine
 10
230.3844612450293994
 20
101.609591467469258
 30
0.0
 11
209.4294612450293869
 21
101.609591467469258
 31
0.0
  0
LINE
  5
C6
100
AcDbEntity
  8
0
 62
256
370
-1
 48
1.0
  6
BYLAYER
100
AcDbLine
 10
235.4794612450293982
 20
41.2695914674692546
 30
0.0
 11
256.4344612450294107
 21
41.2695914674692546
 31
0.0
  0
LINE
  5
C7
100
AcDbEntity
  8
0
 62
256
370
-1
 48
1.0
  6
BYLAYER
100
AcDbLine
 10
256.4344612450294107
 20
41.2695914674692546
 30
0.0
 11
256.4344612450294107
 21
51.7470914674692608
 31
0.0
  0
LINE
  5
C8
100
AcDbEntity
  8
0
 62
256
370
-1
 48
1.0
  6
BYLAYER
100
AcDbLine
 10
251.3394612450294119
 20
107.3245914674692614
 30
0.0
 11
230.3844612450293994
 21
107.3245914674692614
 31
0.0
  0
LINE
  5
C9
100
AcDbEntity
  8
0
 62
256
370
-1
 48
1.0
  6
BYLAYER
100
AcDbLine
 10
230.3844612450293994
 20
107.3245914674692614
 30
0.0
 11
230.3844612450293994
 21
101.609591467469258
 31
0.0
  0
LINE
  5
CA
100
AcDbEntity
  8
0
 62
256
370
-1
 48
1.0
  6
BYLAYER
100
AcDbLine
 10
256.4344612450294107
 20
51.7470914674692608
 30
0.0
 11
272.2944612450294244
 21
51.7470914674692608
 31
0.0
  0
LINE
  5
CB
100
AcDbEntity
  8
0
 62
256
370
-1
 48
1.0
  6
BYLAYER
100
AcDbLine
 10
277.3894612450293948
 20
113.9920914674692511
 30
0.0
 11
277.3894612450293948
 21
117.8020914674692534
 31
0.0
  0
LINE
  5
CC
100
AcDbEntity
  8
0
 62
256
370
-1
 48
1.0
  6
BYLAYER
100
AcDbLine
 10
277.3894612450293948
 20
117.8020914674692534
 30
0.0
 11
251.3394612450294119
 21
117.8020914674692534
 31
0.0
  0
LINE
  5
CD
100
AcDbEntity
  8
0
 62
256
370
-1
 48
1.0
  6
BYLAYER
100
AcDbLine
 10
251.3394612450294119
 20
117.8020914674692534
 30
0.0
 11
251.3394612450294119
 21
107.3245914674692614
 31
0.0
  0
LINE
  5
CE
100
AcDbEntity
  8
0
 62
256
370
-1
 48
1.0
  6
BYLAYER
100
AcDbLine
 10
272.2944612450294244
 20
47.9370914674692585
 30
0.0
 11
291.6649196450293857
 21
47.9370914674692585
 31
0.0
  0
LINE
  5
CF
100
AcDbEntity
  8
0
 62
256
370
-1
 48
1.0
  6
BYLAYER
100
AcDbLine
 10
272.2944612450294244
 20
51.7470914674692608
 30
0.0
 11
272.2944612450294244
 21
47.9370914674692585
 31
0.0
  0
LINE
  5
D0
100
AcDbEntity
  8
0
 62
256
370
-1
 48
1.0
  6
BYLAYER
100
AcDbLine
 10
298.3444612450293789
 20
110.2548634176771714
 30
0.0
 11
298.3444612450293789
 21
113.9920914674692511
 31
0.0
  0
LINE
  5
D1
100
AcDbEntity
  8
0
 62
256
370
-1
 48
1.0
  6
BYLAYER
100
AcDbLine
 10
298.3444612450293789
 20
113.9920914674692511
 30
0.0
 11
277.3894612450293948
 21
113.9920914674692511
 31
0.0
  0
LINE
  5
D2
100
AcDbEntity
  8
0
 62
256
370
-1
 48
1.0
  6
BYLAYER
100
AcDbLine
 10
336.8809432450293571
 20
34.8798598674692428
 30
0.0
 11
336.8809432450293571
 21
110.2548634176771714
 31
0.0
  0
LINE
  5
D3
100
AcDbEntity
  8
0
 62
256
370
-1
 48
1.0
  6
BYLAYER
100
AcDbLine
 10
336.8809432450293571
 20
110.2548634176771714
 30
0.0
 11
298.3444021509425284
 21
110.2548634176771714
 31
0.0
  0
LINE
  5
D4
100
AcDbEntity
  8
0
 62
256
370
-1
 48
1.0
  6
BYLAYER
100
AcDbLine
 10
283.8651524450293664
 20
26.5074074674692639
 30
0.0
 11
296.3489689450293554
 21
21.9636698674692639
 31
0.0
  0
LINE
  5
D5
100
AcDbEntity
  8
0
 62
256
370
-1
 48
1.0
  6
BYLAYER
100
AcDbLine
 10
291.6649196450293857
 20
47.9370914674692585
 30
0.0
 11
283.8651524450293664
 21
26.5074074674692639
 31
0.0
  0
LINE
  5
D6
100
AcDbEntity
  8
0
 62
256
370
-1
 48
1.0
  6
BYLAYER
100
AcDbLine
 10
289.1819368450294405
 20
2.2724110674692639
 30
0.0
 11
313.6609296450293982
 21
-6.6372137325307534
 31
0.0
  0
LINE
  5
D7
100
AcDbEntity
  8
0
 62
256
370
-1
 48
1.0
  6
BYLAYER
100
AcDbLine
 10
313.6609296450293982
 20
-6.6372137325307534
 30
0.0
 11
320.8108608450294241
 21
13.007060567469253
 31
0.0
  0
LINE
  5
D8
100
AcDbEntity
  8
0
 62
256
370
-1
 48
1.0
  6
BYLAYER
100
AcDbLine
 10
296.3489689450293554
 20
21.9636698674692639
 30
0.0
 11
289.1819368450294405
 21
2.2724110674692639
 31
0.0
  0
LINE
  5
D9
100
AcDbEntity
  8
0
 62
256
370
-1
 48
1.0
  6
BYLAYER
100
AcDbLine
 10
320.8108608450294241
 20
13.007060567469253
 30
0.0
 11
327.9713184450293966
 21
10.4008670674692638
 31
0.0
  0
LINE
  5
DA
100
AcDbEntity
  8
0
 62
256
370
-1
 48
1.0
  6
BYLAYER
100
AcDbLine
 10
327.9713184450293966
 20
10.4008670674692638
 30
0.0
 11
336.8809432450293571
 21
34.8798598674692499
 31
0.0
  0
INSERT
  5
DB
100
AcDbEntity
  8
0
 62
256
370
-1
 48
1.0
  6
BYLAYER
100
AcDbBlockReference
  2
keys
 10
217.2452022450293896
 20
-4.0402667825307361
 30
0.0
  0
ENDSEC
  0
SECTION
  2
OBJECTS
  0
DICTIONARY
  5
C
100
AcDbDictionary
280
0
281
1
  3
ACAD_GROUP
350
D
  3
ACAD_LAYOUT
350
1A
  3
ACAD_MLINESTYLE
350
17
  3
ACAD_PLOTSETTINGS
350
19
  3
ACAD_PLOTSTYLENAME
350
E
  3
AcDbVariableDictionary
350
DC
  3
QCAD_OBJECTS
350
DD
  0
DICTIONARY
  5
D
100
AcDbDictionary
280
0
281
1
  0
ACDBDICTIONARYWDFLT
  5
E
100
AcDbDictionary
281
1
  3
Normal
350
F
100
AcDbDictionaryWithDefault
340
F
  0
ACDBPLACEHOLDER
  5
F
  0
DICTIONARY
  5
17
100
AcDbDictionary
280
0
281
1
  3
Standard
350
18
  0
MLINESTYLE
  5
18
100
AcDbMlineStyle
  2
STANDARD
 70
0
  3

 62
256
 51
90.0
 52
90.0
 71
2
 49
0.5
 62
256
  6
BYLAYER
 49
-0.5
 62
256
  6
BYLAYER
  0
DICTIONARY
  5
19
100
AcDbDictionary
280
0
281
1
  0
DICTIONARY
  5
1A
100
AcDbDictionary
281
1
  3
Layout1
350
1E
  3
Layout2
350
26
  3
Model
350
22
  0
LAYOUT
  5
1E
100
AcDbPlotSettings
  1

  2
none_device
  4

  6

 40
0.0
 41
0.0
 42
0.0
 43
0.0
 44
0.0
 45
0.0
 46
0.0
 47
0.0
 48
0.0
 49
0.0
140
0.0
141
0.0
142
1.0
143
1.0
 70
688
 72
0
 73
0
 74
5
  7

 75
16
147
1.0
148
0.0
149
0.0
100
AcDbLayout
  1
Layout1
 70
1
 71
1
 10
0.0
 20
0.0
 11
420.0
 21
297.0
 12
0.0
 22
0.0
 32
0.0
 14
100000000000000000000.0
 24
100000000000000000000.0
 34
100000000000000000000.0
 15
-100000000000000000000.0
 25
-100000000000000000000.0
 35
-100000000000000000000.0
146
0.0
 13
0.0
 23
0.0
 33
0.0
 16
1.0
 26
0.0
 36
0.0
 17
0.0
 27
1.0
 37
0.0
 76
0
330
1B
  0
LAYOUT
  5
22
100
AcDbPlotSettings
  1

  2
none_device
  4

  6

 40
0.0
 41
0.0
 42
0.0
 43
0.0
 44
0.0
 45
0.0
 46
0.0
 47
0.0
 48
0.0
 49
0.0
140
0.0
141
0.0
142
1.0
143
1.0
 70
1712
 72
0
 73
0
 74
0
  7

 75
0
147
1.0
148
0.0
149
0.0
100
AcDbLayout
  1
Model
 70
1
 71
0
 10
0.0
 20
0.0
 11
12.0
 21
9.0
 12
0.0
 22
0.0
 32
0.0
 14
0.0
 24
0.0
 34
0.0
 15
0.0
 25
0.0
 35
0.0
146
0.0
 13
0.0
 23
0.0
 33
0.0
 16
1.0
 26
0.0
 36
0.0
 17
0.0
 27
1.0
 37
0.0
 76
0
330
1F
  0
LAYOUT
  5
26
100
AcDbPlotSettings
  1

  2
none_device
  4

  6

 40
0.0
 41
0.0
 42
0.0
 43
0.0
 44
0.0
 45
0.0
 46
0.0
 47
0.0
 48
0.0
 49
0.0
140
0.0
141
0.0
142
1.0
143
1.0
 70
688
 72
0
 73
0
 74
5
  7

 75
16
147
1.0
148
0.0
149
0.0
100
AcDbLayout
  1
Layout2
 70
1
 71
2
 10
0.0
 20
0.0
 11
12.0
 21
9.0
 12
0.0
 22
0.0
 32
0.0
 14
0.0
 24
0.0
 34
0.0
 15
0.0
 25
0.0
 35
0.0
146
0.0
 13
0.0
 23
0.0
 33
0.0
 16
1.0
 26
0.0
 36
0.0
 17
0.0
 27
1.0
 37
0.0
 76
0
330
23
  0
DICTIONARY
  5
DC
100
AcDbDictionary
281
1
  3
DIMASSOC
350
DF
  3
HIDETEXT
350
DE
  0
DICTIONARYVAR
  5
DE
100
DictionaryVariables
280
0
  1
2
  0
DICTIONARYVAR
  5
DF
100
DictionaryVariables
280
0
  1
1
  0
DICTIONARY
  5
DD
100
AcDbDictionary
281
1
  3
ColorSettings/BackgroundColor
350
E0
  3
ColorSettings/ColorMode
350
E1
  3
Grid/DisplayGrid00
350
E2
  3
Grid/DisplayGrid01
350
E3
  3
Grid/DisplayGrid02
350
E4
  3
Grid/DisplayGrid03
350
E5
  3
Grid/GridSpacingX00
350
E6
  3
Grid/GridSpacingX01
350
E7
  3
Grid/GridSpacingX02
350
E8
  3
Grid/GridSpacingX03
350
E9
  3
Grid/GridSpacingY00
350
EA
  3
Grid/GridSpacingY01
350
EB
  3
Grid/GridSpacingY02
350
EC
  3
Grid/GridSpacingY03
350
ED
  3
Grid/IsometricGrid00
350
EE
  3
Grid/IsometricGrid01
350
EF
  3
Grid/IsometricGrid02
350
F0
  3
Grid/IsometricGrid03
350
F1
  3
Grid/IsometricProjection00
350
F2
  3
Grid/IsometricProjection01
350
F3
  3
Grid/IsometricProjection02
350
F4
  3
Grid/IsometricProjection03
350
F5
  3
Grid/MetaGridSpacingX00
350
F6
  3
Grid/MetaGridSpacingX01
350
F7
  3
Grid/MetaGridSpacingX02
350
F8
  3
Grid/MetaGridSpacingX03
350
F9
  3
Grid/MetaGridSpacingY00
350
FA
  3
Grid/MetaGridSpacingY01
350
FB
  3
Grid/MetaGridSpacingY02
350
FC
  3
Grid/MetaGridSpacingY03
350
FD
  3
MultiPageSettings/Columns
350
FE
  3
MultiPageSettings/GlueMarginsBottom
350
FF
  3
MultiPageSettings/GlueMarginsLeft
350
100
  3
MultiPageSettings/GlueMarginsRight
350
101
  3
MultiPageSettings/GlueMarginsTop
350
102
  3
MultiPageSettings/PrintCropMarks
350
103
  3
MultiPageSettings/Rows
350
104
  3
PageSettings/OffsetX
350
105
  3
PageSettings/OffsetY
350
106
  3
PageSettings/PageOrientation
350
107
  3
PageSettings/PaperHeight
350
108
  3
PageSettings/PaperWidth
350
109
  3
PageSettings/Scale
350
10A
  3
PageSettings/ShowPaperBorders
350
10B
  3
PageTagSettings/EnablePageTags
350
10C
  3
PageTagSettings/TagAlignment
350
10D
  3
PageTagSettings/TagFont
350
10E
  3
PageTagSettings/TagPosition
350
10F
  3
QCADVersion
350
110
  3
UnitSettings/PaperUnit
350
111
  3
ViewportCenter
350
112
  3
ViewportHeight
350
113
  3
ViewportWidth
350
114
  0
XRECORD
  5
E1
330
DD
100
AcDbXrecord
280
1
1000
FullColor
  0
XRECORD
  5
E2
330
DD
100
AcDbXrecord
280
1
290
1
  0
XRECORD
  5
E3
330
DD
100
AcDbXrecord
280
1
290
1
  0
XRECORD
  5
E4
330
DD
100
AcDbXrecord
280
1
290
1
  0
XRECORD
  5
E5
330
DD
100
AcDbXrecord
280
1
290
1
  0
XRECORD
  5
E6
330
DD
100
AcDbXrecord
280
1
1000
auto
  0
XRECORD
  5
E7
330
DD
100
AcDbXrecord
280
1
1000
auto
  0
XRECORD
  5
E8
330
DD
100
AcDbXrecord
280
1
1000
auto
  0
XRECORD
  5
E9
330
DD
100
AcDbXrecord
280
1
1000
auto
  0
XRECORD
  5
EA
330
DD
100
AcDbXrecord
280
1
1000
auto
  0
XRECORD
  5
EB
330
DD
100
AcDbXrecord
280
1
1000
auto
  0
XRECORD
  5
EC
330
DD
100
AcDbXrecord
280
1
1000
auto
  0
XRECORD
  5
ED
330
DD
100
AcDbXrecord
280
1
1000
auto
  0
XRECORD
  5
EE
330
DD
100
AcDbXrecord
280
1
290
0
  0
XRECORD
  5
EF
330
DD
100
AcDbXrecord
280
1
290
0
  0
XRECORD
  5
F0
330
DD
100
AcDbXrecord
280
1
290
0
  0
XRECORD
  5
F1
330
DD
100
AcDbXrecord
280
1
290
0
  0
XRECORD
  5
F2
330
DD
100
AcDbXrecord
280
1
 90
65537
  0
XRECORD
  5
F3
330
DD
100
AcDbXrecord
280
1
 90
65537
  0
XRECORD
  5
F4
330
DD
100
AcDbXrecord
280
1
 90
65537
  0
XRECORD
  5
F5
330
DD
100
AcDbXrecord
280
1
 90
65537
  0
XRECORD
  5
F6
330
DD
100
AcDbXrecord
280
1
1000
auto
  0
XRECORD
  5
F7
330
DD
100
AcDbXrecord
280
1
1000
auto
  0
XRECORD
  5
F8
330
DD
100
AcDbXrecord
280
1
1000
auto
  0
XRECORD
  5
F9
330
DD
100
AcDbXrecord
280
1
1000
auto
  0
XRECORD
  5
FA
330
DD
100
AcDbXrecord
280
1
1000
auto
  0
XRECORD
  5
FB
330
DD
100
AcDbXrecord
280
1
1000
auto
  0
XRECORD
  5
FC
330
DD
100
AcDbXrecord
280
1
1000
auto
  0
XRECORD
  5
FD
330
DD
100
AcDbXrecord
280
1
1000
auto
  0
XRECORD
  5
FE
330
DD
100
AcDbXrecord
280
1
 90
1
  0
XRECORD
  5
FF
330
DD
100
AcDbXrecord
280
1
 40
10.0
  0
XRECORD
  5
100
330
DD
100
AcDbXrecord
280
1
 40
10.0
  0
XRECORD
  5
101
330
DD
100
AcDbXrecord
280
1
 40
10.0
  0
XRECORD
  5
102
330
DD
100
AcDbXrecord
280
1
 40
10.0
  0
XRECORD
  5
103
330
DD
100
AcDbXrecord
280
1
290
0
  0
XRECORD
  5
104
330
DD
100
AcDbXrecord
280
1
 90
1
  0
XRECORD
  5
105
330
DD
100
AcDbXrecord
280
1
 40
0.0
  0
XRECORD
  5
106
330
DD
100
AcDbXrecord
280
1
 40
0.0
  0
XRECORD
  5
107
330
DD
100
AcDbXrecord
280
1
1000
Portrait
  0
XRECORD
  5
108
330
DD
100
AcDbXrecord
280
1
 40
297.0
  0
XRECORD
  5
109
330
DD
100
AcDbXrecord
280
1
 40
210.0
  0
XRECORD
  5
10A
330
DD
100
AcDbXrecord
280
1
1000
1:1
  0
XRECORD
  5
10B
330
DD
100
AcDbXrecord
280
1
290
1
  0
XRECORD
  5
10C
330
DD
100
AcDbXrecord
280
1
290
0
  0
XRECORD
  5
10D
330
DD
100
AcDbXrecord
280
1
1000
Inside
  0
XRECORD
  5
10E
330
DD
100
AcDbXrecord
280
1
1000
Arial,10,-1,5,400,0,0,0,0,0,0,0,0,0,0,1
  0
XRECORD
  5
10F
330
DD
100
AcDbXrecord
280
1
1000
TopLeft
  0
XRECORD
  5
110
330
DD
100
AcDbXrecord
280
1
1000
3.32.6
  0
XRECORD
  5
111
330
DD
100
AcDbXrecord
280
1
 90
4
  0
XRECORD
  5
113
330
DD
100
AcDbXrecord
280
1
 40
197.2516561085971603
  0
XRECORD
  5
114
330
DD
100
AcDbXrecord
280
1
 40
355.2525610859726157
  0
ENDSEC
  0
EOF
